<svg width="20" height="21" viewBox="0 0 20 21" fill="none" xmlns="http://www.w3.org/2000/svg">
<g clip-path="url(#clip0_6_161)">
<path opacity="0.8" fill-rule="evenodd" clip-rule="evenodd" d="M12.6709 2.86149C13.0183 5.67454 11.472 8.72569 8.02751 12.0193L7.94932 12.0855L7.87548 12.1516L7.80164 12.2178L7.73214 12.2839L7.66699 12.35L7.60183 12.4162L7.54102 12.4779L7.48456 12.5396L7.42809 12.6013L7.37597 12.6631L7.32819 12.7248L7.28041 12.7865C7.26737 12.8086 7.25 12.8262 7.23697 12.8483L7.19788 12.91C7.18485 12.932 7.17182 12.9497 7.15878 12.9717L7.12404 13.029C7.111 13.0467 7.10232 13.0687 7.09363 13.0864C7.08494 13.104 7.07191 13.126 7.06322 13.1437C7.05454 13.1613 7.04585 13.1834 7.03716 13.201C7.02848 13.2186 7.01979 13.2407 7.01544 13.2583C7.00676 13.276 7.00241 13.298 6.99807 13.3156C6.99373 13.3333 6.98504 13.3553 6.9807 13.373C6.97635 13.3906 6.97201 13.4126 6.96766 13.4303C6.96766 13.4479 6.95898 13.47 6.95898 13.4876C6.95898 13.5052 6.95463 13.5273 6.95029 13.5449C6.95029 13.5625 6.95029 13.5846 6.94595 13.6022C6.94595 13.6199 6.94595 13.6419 6.94595 13.6596C6.94595 13.6772 6.94595 13.6992 6.94595 13.7169C6.94595 13.7345 6.94595 13.7566 6.94595 13.7742C6.94595 13.7918 6.94595 13.8139 6.95463 13.8315C6.95463 13.8491 6.95898 13.8712 6.96332 13.8888C6.96332 13.9065 6.97201 13.9285 6.97635 13.9461L6.99373 14.0035C6.99807 14.0211 7.00676 14.0431 7.0111 14.0608C7.01979 14.0784 7.02413 14.1005 7.03282 14.1181C7.05019 14.1578 7.06757 14.1931 7.08494 14.2327C7.09363 14.2504 7.10666 14.2724 7.11535 14.2901C7.389 14.7971 7.99711 15.3394 8.93099 16.0008C10.9204 17.4118 13.6221 18.8227 15.0164 19.634C15.0772 19.6693 15.138 19.7045 15.1988 19.7354L15.112 19.6869H15.1163L15.2032 19.7398C15.694 19.9911 16.0936 20.0396 16.4194 19.9558C16.7539 19.8721 17.0188 19.6516 17.2447 19.3518L17.2534 19.343L17.2751 19.3121C17.5705 18.9109 17.7876 18.3906 18.0048 17.9232V17.9144L18.0352 17.8571C18.5912 16.6578 18.6042 15.798 18.2915 15.1543C17.8267 14.1931 16.6409 13.7169 15.4812 13.32C14.682 13.0423 13.8958 12.7998 13.3571 12.4867C12.9575 12.2442 12.6969 11.9576 12.6665 11.5652C12.6318 11.1155 12.8967 10.5379 13.6004 9.75303C14.6776 8.54932 16.4628 6.43733 17.4141 4.47084C18.235 2.7689 18.4348 1.17278 17.0275 0.343855C15.8721 -0.335157 15.2206 0.0660773 14.5864 0.762726C14.2215 1.16396 13.8653 1.66661 13.4223 2.11634C13.1747 2.36766 12.9228 2.61458 12.6665 2.85708M3.14527 14.6296C4.60473 14.6296 5.79054 15.8333 5.79054 17.3148C5.79054 18.7962 4.60473 19.9999 3.14527 19.9999C1.68581 19.9999 0.5 18.7962 0.5 17.3148C0.5 15.8333 1.68581 14.6296 3.14527 14.6296Z" fill="white"/>
<path opacity="0.8" fill-rule="evenodd" clip-rule="evenodd" d="M17.4141 4.47525C16.4628 6.44615 14.6776 8.55373 13.6004 9.75744C10.056 12.1252 5.68629 12.8527 1.58156 11.7636C0.938707 11.3888 0.573842 10.7451 0.573842 9.99113C0.573842 8.62428 1.1472 8.29359 1.97683 8.12605C2.40251 8.04227 2.89768 7.99818 3.41892 7.87472C7.45849 6.93557 10.7075 4.89853 13.431 2.11635C13.874 1.66661 14.2302 1.16396 14.5951 0.76273C15.2249 0.0660813 15.8764 -0.330744 17.0362 0.343859C18.4435 1.16837 18.2437 2.7689 17.4228 4.47084M3.14527 -5.61951e-05C4.60473 -5.61951e-05 5.79054 1.20365 5.79054 2.68513C5.79054 4.16661 4.60473 5.37031 3.14527 5.37031C1.68581 5.37031 0.5 4.16661 0.5 2.68513C0.5 1.20365 1.68581 -5.61951e-05 3.14527 -5.61951e-05Z" fill="white"/>
</g>
<defs>
<clipPath id="clip0_6_161">
<rect width="18" height="20" fill="white" transform="translate(0.5)"/>
</clipPath>
</defs>
</svg>
