<svg width="36" height="39" viewBox="0 0 36 39" fill="none" xmlns="http://www.w3.org/2000/svg">
<path fill-rule="evenodd" clip-rule="evenodd" d="M33.8384 18.0031C32.3267 18.3223 31.8612 17.0118 30.6039 16.182C29.3423 15.3512 28.1852 15.0329 27.0175 13.8732C26.5485 13.405 26.4288 12.6062 25.9624 12.1176C25.3409 11.4562 24.9623 11.2753 24.1182 10.9464C22.6375 10.3718 21.367 9.94626 20.1363 8.93373C19.928 8.76527 19.4394 8.54006 18.9828 8.45494C18.7878 8.41327 18.7 8.4443 18.6344 8.51878C18.4509 8.75463 18.2833 9.03923 18.1201 9.307C18.0749 9.38059 17.9233 9.59515 17.801 9.7113C17.5624 9.9241 17.2654 10.2007 17.0384 10.3275C15.7998 11.0838 14.1684 11.7231 13.4644 12.9901C13.3341 13.2224 11.9837 13.8519 11.6716 14.0948C11.1813 14.4991 10.6999 14.8937 10.1954 15.2661C9.72371 15.6181 9.07027 16.1607 8.57818 16.5224C8.3184 16.4276 8.05241 16.3424 7.80681 16.3008C7.22695 16.182 6.73931 15.7351 6.24102 15.4381C5.60175 15.0329 5.64963 14.9912 5.44748 14.8724C5.27104 14.7775 5.18415 14.7137 5.11588 14.6827C4.64064 14.4043 4.61227 14.6827 3.93754 15.0967C3.37541 15.4381 2.72729 16.0117 2.24407 16.4692C1.85838 16.8319 1.46561 17.2149 1.06307 17.6086C1.64027 8.90181 9.00554 2.02773 18.0102 2.02773C26.9244 2.02773 34.2303 8.77502 34.9352 17.3523C34.6603 17.7149 34.2702 17.9082 33.8384 18.0031ZM17.9996 0C8.05862 0 0 8.02936 0 17.9322C0 22.0595 1.40088 25.8454 3.75046 28.8768L4.24166 28.4716C2.93387 26.7072 1.96921 24.6857 1.44344 22.485C1.59505 22.517 1.77859 22.5693 2.08182 22.6641C3.08194 22.9842 4.96781 23.5995 6.32613 22.9842C7.18971 22.5799 8.69345 22.2492 9.26976 22.0266C9.81592 21.8032 10.9694 22.3024 9.60845 21.4096H9.60136C9.58363 21.3989 9.56235 21.3883 9.5322 21.3776C9.48698 21.3564 9.44265 21.3457 9.39123 21.3351C9.25823 21.3032 8.16679 21.5151 7.92474 21.484C7.84937 21.4628 7.77667 21.4406 7.70485 21.3989C7.11258 21.0797 9.64037 19.1132 9.72371 18.622C8.99756 18.6982 8.39908 19.1557 7.75007 19.4412C6.98756 19.7719 6.15058 19.7826 5.3331 19.7923C4.39859 19.7923 3.67155 20.5167 2.85053 20.8474C2.42051 21.0265 1.71564 21.187 1.23951 21.4947C1.20405 21.2934 1.1739 21.0904 1.1473 20.8891C1.16238 20.5371 1.2005 20.1115 1.28739 19.623C1.47447 18.559 1.90804 17.7291 2.87269 16.4533C2.87269 16.4533 3.81253 15.3272 4.36135 14.9646C4.57414 14.8148 4.80467 14.6144 5.03165 14.7518C5.27104 14.9017 4.96515 15.8264 5.60707 15.9851C5.99453 16.0702 5.65229 16.7086 5.78617 17.081C5.92803 17.4747 4.19023 18.9952 4.64862 19.1761C4.90397 19.2825 6.05571 18.6982 6.6666 18.5058C7.20567 18.3365 7.77933 18.3258 8.36982 17.7717C8.97806 17.2078 9.58097 16.8886 9.58097 16.8886C10.0757 16.4737 10.5563 16.049 11.0439 15.634C11.52 15.2191 11.9749 14.7935 12.4359 14.3679C12.725 14.093 14.031 13.3696 14.1471 13.124C14.7545 11.8162 16.3398 11.0492 17.519 10.2202C17.7353 10.0722 17.9703 9.75209 18.1042 9.57299C18.2372 9.39123 18.379 9.11549 18.4562 9.0286C18.606 8.85925 18.6424 8.73246 18.8108 8.64734C18.8782 8.61365 19.1442 8.61365 19.2595 8.7431C19.6434 9.1474 20.1665 9.49851 20.1851 9.92321C20.2179 10.582 22.0692 11.1574 22.4912 11.6681C22.665 11.88 22.767 12.0822 22.8388 12.2834C22.5161 12.1566 22.1978 11.9979 21.9158 11.7958C21.7287 11.6575 21.2925 11.6894 21.07 11.6575C20.4298 11.5387 20.5779 11.8375 20.9317 12.1983C21.2943 12.5822 21.7154 12.9014 22.0462 13.3164C22.4274 13.7845 22.3928 14.1675 22.4957 14.7305C22.6092 15.3272 22.9674 15.8477 23.2608 16.3797C23.5588 16.9099 23.5384 17.4747 23.7042 18.0492C23.8824 18.622 24.3727 19.1025 24.7788 19.5281C25.1245 19.8881 25.9137 20.7729 26.3446 20.5805C26.8021 20.3899 27.3704 20.9414 27.5415 20.7827C27.7153 20.6329 27.0831 19.8987 27.3252 19.6762C27.5681 19.4519 28.6197 19.803 28.8369 20.4742C29.0816 21.2615 29.0559 21.3253 29.0178 21.8875C28.9912 22.2598 28.844 22.5586 28.5931 22.8228C28.281 23.1323 27.5575 23.6527 27.7002 24.1758C28.3634 23.8247 29.0851 23.7928 29.8264 23.8141C30.5445 23.8354 31.0739 23.5366 31.5544 23.0268C31.7672 22.8025 32.3781 22.0905 32.7248 22.4531C32.9358 22.6641 32.3196 23.5366 32.9961 23.3566C33.4465 23.2387 33.8481 22.8885 34.2569 22.665C34.3659 22.6012 34.467 22.5374 34.5539 22.4744C34.0201 24.7069 33.0342 26.7701 31.6927 28.5567L32.1857 28.961C34.569 25.9199 36 22.0905 36 17.9322C36 8.02847 27.9387 0 17.9996 0ZM11.5768 28.523C11.5484 28.7119 11.2842 30.3442 10.9951 32.1467C10.4649 32.0288 9.93739 31.8293 9.34601 31.503C8.75728 31.1758 8.31042 30.8407 7.93537 30.4515C9.31586 29.2501 10.5625 28.1657 10.7167 28.0398C11.0891 27.7233 11.2709 27.6497 11.4438 27.7446C11.614 27.8385 11.6504 28.0389 11.5768 28.523ZM12.5574 25.8986C12.5574 25.8986 12.5131 25.8675 12.4625 25.8436C12.4146 25.8223 12.3792 25.8019 12.3748 25.7904C12.3774 25.8019 12.3792 25.8019 12.3792 25.8019C11.5342 25.3347 10.6999 25.3568 9.73967 26.0573C8.41416 27.0113 2.03217 32.3905 2.03217 32.3905L3.8737 33.951C3.8737 33.951 4.89688 33.0599 6.15147 31.9773C6.76679 32.5182 7.45836 33.0076 8.23683 33.4421C9.0082 33.8668 9.79731 34.1939 10.5802 34.4174L10.0979 37.3991L12.396 38.1315C12.396 38.1315 13.6152 29.8875 13.7304 28.2632C13.8182 27.0858 13.3944 26.365 12.5574 25.8986ZM16.7423 38.4214H19.161V26.6442H16.7405V38.4214H16.7423ZM26.4527 31.5136C25.8587 31.8399 25.3311 32.0279 24.8036 32.1467C24.519 30.3442 24.2627 28.7119 24.2273 28.523C24.1572 28.0389 24.1918 27.8492 24.3656 27.7446C24.534 27.6497 24.7202 27.7233 25.0873 28.0389C25.2469 28.1755 26.4944 29.2607 27.8713 30.4612C27.4936 30.8407 27.0468 31.1865 26.4527 31.5136ZM23.3424 25.7931C23.338 25.8037 23.2999 25.825 23.2484 25.8463C23.2006 25.8693 23.1651 25.8906 23.1651 25.8906C22.3246 26.357 21.8937 27.0769 21.9779 28.2544C22.0967 29.8884 23.2999 38.1315 23.2999 38.1315L25.6016 37.3991L25.1272 34.4289C25.9101 34.1948 26.6983 33.8676 27.4768 33.443C28.2482 33.0183 28.9442 32.5182 29.5542 31.9782C30.8088 33.0715 31.8355 33.9732 31.8355 33.9732L33.6779 32.4127C33.6779 32.4127 27.303 27.0131 25.9802 26.0591C25.0244 25.3586 24.1856 25.3365 23.3424 25.7931ZM21.2225 21.523C21.0185 21.3431 20.5841 20.9503 20.3624 20.28C20.1514 19.6452 19.8313 19.1362 19.2958 18.7222C18.3427 17.9774 16.0862 16.8523 16.2414 15.3335C16.3123 14.6552 17.1333 14.516 17.4693 14.0177C17.6733 13.7322 17.7016 13.3394 17.9428 13.0725C18.2132 12.764 17.8329 12.764 17.5678 12.7436C17.0003 12.7223 16.5765 13.3394 16.1048 13.593C15.3317 13.9964 14.6366 14.5709 13.7659 14.7607C13.5105 14.8139 12.209 15.2173 13.0575 15.431C13.6391 15.5782 14.2899 15.5365 14.7713 15.9505C15.3902 16.4799 15.8929 17.1608 16.5144 17.691C16.8292 17.957 17.136 18.2106 17.3922 18.5395C17.6875 18.9225 17.6493 19.3579 17.8683 19.7507C18.0794 20.1319 18.4961 19.7923 18.755 20.006C19.6053 20.7056 18.4234 21.0451 18.1184 21.375C17.7194 21.8103 17.6422 22.0869 16.9125 22.3822C16.5898 22.5116 14.4956 22.7652 14.2402 22.9576C13.9822 23.1474 14.1179 23.2112 14.1844 23.2857C14.2526 23.361 14.6108 23.4772 14.7713 23.4869C15.6509 23.5721 18.3569 24.081 18.9119 23.3921C19.2905 22.9151 19.8526 22.8601 20.4768 23.0312C20.9157 23.1474 21.7846 23.0631 22.5391 22.7546C22.9753 22.5746 24.1829 22.564 23.8442 22.3822C23.4275 21.5754 21.9646 22.2031 21.2225 21.5222V21.523Z" fill="#72777A"/>
</svg>
