<svg width="157" height="40" viewBox="0 0 157 40" fill="none" xmlns="http://www.w3.org/2000/svg">
<g clip-path="url(#clip0_6043_1392)">
<path fill-rule="evenodd" clip-rule="evenodd" d="M0.97487 11.0747C2.15451 11.0747 2.97654 11.3252 3.487 11.837C4.0582 12.4096 4.31392 13.3556 4.31392 14.9037V34.2406C4.31392 36.9165 3.75447 38.11 0.452653 38.11H0V39.2966H14.8386V38.1159L14.3908 38.11C11.1204 38.0707 10.5688 36.8841 10.5688 34.2406V14.9028C10.5688 13.3595 10.8235 12.4175 11.3947 11.8458C11.9101 11.3262 12.7468 11.0737 13.9509 11.0737H14.8376V9.87036H0V11.0737H0.97487V11.0747Z" fill="#091C5A"/>
<path fill-rule="evenodd" clip-rule="evenodd" d="M48.4329 29.4322C48.4329 29.4322 48.1752 28.225 48.138 27.5491V18.7171C48.0802 13.5668 48.7807 11.003 44.2895 11.0226V9.86548H54.6211V11.0226C49.9957 11.004 50.5776 13.5678 50.5512 18.7171V39.3399L49.0806 39.3242L26.7702 15.9156C26.7702 15.9156 27.0211 17.1209 27.0583 17.7977V32.2603C26.9319 37.5363 27.5834 38.1739 30.9734 38.112V39.3173H20.2029V38.112C23.5977 38.1159 24.265 37.6631 24.2611 31.8301V32.1788V17.9254L24.2336 15.6631C24.36 12.7348 23.2813 11.0364 19.9883 11.0639V9.90575H29.9045L48.4329 29.4322Z" fill="#091C5A"/>
<path fill-rule="evenodd" clip-rule="evenodd" d="M85.8326 9.30359H84.6941L84.6412 9.69455C84.5638 10.278 84.3345 11.2555 83.6712 11.2555C83.4821 11.2555 83.0109 11.1661 82.4798 10.9224C80.1735 9.92048 77.1852 9.30359 74.6691 9.30359C69.7732 9.30359 65.3319 11.0619 62.1594 14.2564C59.2456 17.1916 57.6515 21.1867 57.6741 25.5039C57.6946 29.6395 59.3162 33.0413 62.6356 35.9086C65.9796 38.777 69.7262 40 75.1708 40C79.7061 40 82.3025 39.3467 86.2872 37.2023L86.9848 36.8232V29.1071C86.9848 25.8183 87.3865 25.3065 90.0554 25.1984L90.4895 25.1817V24.0354H77.4507V25.1817L77.8847 25.1984C80.8573 25.3144 81.4188 25.8487 81.4188 28.5678V35.7181C79.2133 37.1768 77.6104 37.7308 75.5891 37.7308C72.5979 37.7308 69.9359 36.5717 67.8921 34.5246C65.4985 32.1228 64.3306 28.6248 64.3306 24.6719C64.3306 20.4136 65.4613 16.781 67.7912 14.447C69.6459 12.5875 72.109 11.5551 74.919 11.5551C77.4291 11.5551 80.3449 12.6346 82.3446 14.225C83.9711 15.56 84.8146 16.8517 85.4515 18.9863L85.5485 19.3095H86.6615L85.8326 9.30359Z" fill="#091C5A"/>
<path fill-rule="evenodd" clip-rule="evenodd" d="M142.941 39.2171C143.666 39.1071 144.436 39.1238 145.014 38.5914C147.463 38.9686 149.946 38.3615 151.871 37.0089C152.885 36.1886 153.799 35.2368 154.539 34.1965C155.19 33.281 155.703 32.4273 156.035 31.4018C156.283 30.7692 156.479 30.111 156.627 29.4352C157.325 26.2486 156.958 22.6847 155.923 19.6543C155.734 19.0914 155.518 18.5462 155.283 18.0266C153.991 15.3508 152.234 12.4637 149.527 10.7712C148.003 9.81835 146.6 8.3439 145.739 6.81738C145.27 6.39498 144.822 5.83506 144.216 5.73388C144.382 6.00795 144.564 6.27612 144.609 6.59636L144.574 6.64154C143.931 6.66021 143.427 6.31934 142.987 5.90677L143.472 5.46571C143.289 5.37239 143.08 5.33703 142.877 5.28988C141.026 5.07868 139.503 5.93526 137.861 6.34783L137.836 6.43919C138.844 6.88909 139.055 8.00303 139.642 8.75647C139.787 8.58162 140.034 8.70932 140.237 8.6936C140.53 8.7103 140.806 8.92248 141.09 8.84782C141.099 8.60224 140.96 8.40676 140.916 8.18673C141.09 8.10421 141.3 8.1769 141.494 8.18673C142.025 8.49812 142.877 8.13172 143.208 8.84782C142.602 8.88613 142.034 9.01384 141.466 9.15234C141.503 9.3822 141.732 9.56491 141.714 9.79576C141.228 9.5934 140.713 9.4657 140.173 9.40185L140.145 9.48338C140.833 10.2918 141.777 10.7712 142.741 11.0551C144.126 11.3763 145.345 10.7152 146.682 10.9451C149.966 12.4529 152.771 15.9018 153.991 19.1749C154.051 19.3321 154.109 19.4912 154.163 19.6533C155.185 22.6425 155.379 26.3163 154.355 29.4342C153.81 30.7309 153.21 31.9548 152.249 33.0089C151.886 33.4578 151.484 33.8576 151.047 34.1955C149.67 35.2702 147.974 35.7446 146.224 35.2633C146.114 35.1876 145.893 35.169 145.931 34.9774C145.991 34.721 146.048 34.4617 146.098 34.1955C146.387 32.7014 146.522 31.1297 146.444 29.558C146.442 29.4912 146.44 29.4234 146.438 29.3566C146.341 27.0747 145.888 25.0236 145.052 23.0501C144.515 21.9175 143.878 20.6828 143.076 19.5747C142.117 18.2535 140.929 17.112 139.403 16.5423C138.467 16.2938 137.312 16.2466 136.606 17.0276C136.102 17.4706 135.892 18.0669 135.965 18.7211C135.176 19.2221 134.289 19.4922 133.324 19.5747C133.088 19.5953 132.846 19.6828 132.6 19.6798C132.367 19.6906 132.139 19.6808 131.916 19.6533C130.755 19.5099 129.58 18.8812 128.688 18.1641C128.669 17.6857 128.642 17.2358 128.623 16.7299C128.112 16.4637 127.687 15.9578 127.652 15.3596L127.697 15.3144C127.992 15.4058 128.247 15.5521 128.513 15.7083C128.394 14.9912 128.256 14.284 127.9 13.6582C127.569 13.5197 127.239 13.4097 126.928 13.2437C126.57 13.0069 126.34 12.5728 126.287 12.1789C126.608 12.4912 127.166 12.3812 127.414 12.7113C126.982 11.4333 126.975 9.97159 126.268 8.80362C125.91 7.94016 124.974 7.54429 124.333 6.9107C124.085 6.60618 123.985 6.18378 123.536 6.13663C123.169 6.04528 123.141 5.6327 123.078 5.36453C123.306 5.39204 123.498 5.54822 123.69 5.58457C123.159 4.17102 122.691 2.59735 121.252 1.69656L121.005 1.85373C120.446 1.93625 119.849 1.97358 119.291 1.99224C119.539 1.62486 119.978 1.46768 120.326 1.30069C119.923 0.998137 119.591 0.925446 119.086 0.842932C118.793 1.13566 118.263 1.28399 117.887 1.36651L117.84 1.32918C117.83 0.998138 117.756 0.594406 118.252 0.510909C117.775 0.281047 116.984 0.374367 116.498 0.510909C116.362 0.869454 115.968 1.19165 115.997 1.61601C115.714 1.90973 115.512 2.3056 115.217 2.5168C115.208 1.80855 115.509 1.15629 115.637 0.559042C115.225 0.715231 114.805 0.936252 114.401 1.12879C113.751 0.751576 113.065 0.375349 112.369 0.0894956C112.306 0.0619907 112.167 0.0354682 112.194 0.154328C112.791 0.585565 112.56 1.39598 112.623 2.00992L112.247 1.69853C112.064 1.22996 111.535 0.890083 111.444 0.375349C110.82 0.495192 110.421 0.660221 109.843 0.908747L109.764 0.954916C110.194 0.954916 110.56 1.29381 110.771 1.63566C110.12 1.67102 109.542 1.41464 108.9 1.34882C108.837 1.28596 108.781 1.21032 108.68 1.22014C108.36 1.33998 108.083 1.56886 107.801 1.78988C107.168 2.41562 106.525 3.10521 106.224 3.9333C106.435 3.96866 106.701 3.95982 106.857 4.0885C106.509 4.2997 106.206 4.65923 105.867 4.8606C105.747 5.33899 105.766 5.88319 105.738 6.40579C105.471 6.81148 105.115 7.16806 104.941 7.62091C104.372 9.4657 104.226 11.5178 104.308 13.613C104.124 13.7889 103.885 13.8999 103.712 14.0374L103.731 15.9117H103.776C103.858 15.5177 104.327 15.2977 104.611 15.0305H104.703C104.657 15.4529 104.602 15.8763 104.593 16.3085L104.062 16.7496C103.529 17.2191 103.979 17.9264 103.934 18.5158C103.971 18.67 103.997 18.9008 104.107 18.9382C104.172 18.7083 104.373 18.5433 104.502 18.3399C104.73 18.2859 104.932 18.1003 105.143 18.0747C105.023 18.5344 104.87 18.9843 104.684 19.4254C104.596 19.4834 104.493 19.561 104.405 19.6553C104.311 19.7564 104.236 19.8694 104.216 19.9951C104.631 22.1729 105.279 24.3242 106.021 26.3743C105.518 27.2299 105.232 28.2368 104.813 29.1199C104.752 29.2427 104.698 29.3694 104.648 29.4971C104.227 30.5658 104.099 31.7613 103.574 32.7878C103.362 32.6425 103.132 32.5295 102.896 32.4293C101.905 32.0983 100.758 32.3095 100.035 33.0737C99.3927 32.9539 98.7323 33.0639 98.2277 33.4047C97.8662 33.6749 97.587 34.0039 97.4263 34.3871C97.3166 34.6542 97.2666 34.945 97.2832 35.2623C96.8717 35.5462 96.6513 35.9863 96.5141 36.4293C96.3221 37.4214 96.6699 38.4548 97.2382 39.2191H142.941V39.2171Z" fill="white"/>
<path fill-rule="evenodd" clip-rule="evenodd" d="M136.871 18.5462C136.862 18.7849 136.688 19.0531 136.844 19.2545C137.064 19.0059 137.432 19.0148 137.725 18.9057C138.54 18.8321 139.32 19.0885 140.08 19.2741C139.889 18.9696 139.76 18.6317 139.549 18.3547C139.126 18.2446 138.485 18.5384 138.413 17.9136C138.155 17.6926 137.75 17.8507 137.487 17.8665C137.229 18.0521 137.018 18.28 136.871 18.5462Z" fill="white"/>
<path fill-rule="evenodd" clip-rule="evenodd" d="M108.848 10.6091C108.844 10.6051 108.838 10.6012 108.834 10.6002C108.834 10.6002 108.834 10.6051 108.836 10.6091H108.848Z" fill="white"/>
<path fill-rule="evenodd" clip-rule="evenodd" d="M112.181 18.7801L112.731 18.2477C112.778 18.2477 112.814 18.2575 112.841 18.2948L112.795 19.3144C113.061 19.563 113.391 19.6455 113.739 19.6642C113.767 19.3881 113.978 19.1956 114.097 18.9559C114.198 18.7634 114.134 18.4775 114.335 18.339L114.398 18.4038C114.464 18.7064 114.446 19.0473 114.602 19.3135C114.62 19.4598 114.647 19.6445 114.664 19.7732C115.068 19.7928 115.434 19.6809 115.746 19.5345C115.728 19.1858 115.848 18.8999 115.901 18.5777C115.985 18.4667 115.8 18.2653 116.03 18.2752C116.159 18.5502 116.388 18.8351 116.516 19.1288C117.047 18.5866 117.268 17.8793 117.396 17.1445C117.241 16.9314 117.002 16.9314 116.818 16.7948C115.26 16.2889 113.259 16.1868 111.756 16.9687C111.659 17.5954 111.787 18.285 112.181 18.7801Z" fill="white"/>
<path fill-rule="evenodd" clip-rule="evenodd" d="M97.6113 36.0314C97.5555 36.7406 97.6113 37.4047 97.6554 38.1031C97.8033 38.333 98.0697 38.6002 98.3332 38.6188L98.3812 38.1493C98.4899 37.4951 98.1422 36.8015 98.5095 36.2505C98.7661 36.333 99.0208 36.4617 99.2432 36.5815C99.3509 35.9744 99.1971 35.2672 98.6192 34.8998L97.6113 36.0314Z" fill="white"/>
<path fill-rule="evenodd" clip-rule="evenodd" d="M99.8741 35.0402C99.5166 36.1149 99.2502 37.443 99.6831 38.5736C99.929 38.4096 100.187 38.2524 100.405 38.0226C100.361 37.1571 100.241 36.2338 100.754 35.5167C101.202 35.6552 101.507 36.0874 101.679 36.5108C101.983 36.1228 102.084 35.5903 101.964 35.0746C101.983 34.6719 101.523 34.7642 101.303 34.5972C101.378 34.2573 101.367 33.8634 101.725 33.6709L100.625 33.7809C100.342 34.1837 100.031 34.5805 99.8741 35.0402Z" fill="white"/>
<path fill-rule="evenodd" clip-rule="evenodd" d="M102.139 38.2141C102.186 38.2986 102.139 38.444 102.231 38.4627C102.369 37.6916 102.992 37.1906 103.332 36.5108C103.496 36.2809 103.486 35.9587 103.752 35.7839C104.111 35.7839 104.368 36.0422 104.716 36.0697C104.826 36.1523 104.66 36.225 104.652 36.3163C104.579 36.943 104.34 37.4617 104.386 38.1041H104.449C104.935 37.5914 105.265 37.0334 105.623 36.445L105.685 35.9224C105.768 35.2967 105.09 34.8929 104.65 34.6356L105.044 34.1297L104.494 33.9362C103.851 34.001 103.273 34.2672 102.825 34.7741C102.267 35.8026 102.176 36.9646 102.139 38.2141Z" fill="white"/>
<path fill-rule="evenodd" clip-rule="evenodd" d="M104.605 32.7584C104.816 32.8232 105.008 32.6484 105.218 32.7407C106.062 33.0521 106.943 33.3743 107.575 34.0825L108.328 36.003L108.704 34.8183L108.456 34.1739C108.245 33.7142 107.667 33.7515 107.272 33.7328C107.109 33.5491 107.282 33.337 107.338 33.1631C107.529 32.5108 106.732 32.5462 106.411 32.282C106.431 31.8861 105.953 32.0236 105.686 31.9863L105.595 31.8763C105.541 31.7937 105.404 31.7937 105.33 31.8576C105.31 31.8311 105.275 31.8124 105.294 31.7653L105.09 31.8124C104.807 32.0609 104.614 32.3822 104.605 32.7584Z" fill="white"/>
<path fill-rule="evenodd" clip-rule="evenodd" d="M105.137 30.6453C105.164 30.7642 105.238 30.884 105.329 30.9567C105.742 30.8467 106.135 30.5628 106.612 30.7357C107.228 31.278 107.868 31.8477 108.613 32.1434L108.877 32.0962C109.043 32.1532 109.225 32.1611 109.336 32.3447C109.438 32.5933 109.182 32.7406 109.098 32.942C109.511 33.2455 109.346 33.7888 109.603 34.1552L110.264 33.273C110.109 32.886 110.273 32.2249 109.667 32.1886C109.466 32.0864 109.328 31.884 109.337 31.6542C108.944 31.2956 108.458 31.1404 108.062 30.773C107.742 30.5147 107.55 30.1188 107.136 30.0275C106.853 29.8723 106.543 29.7888 106.213 29.7161C105.595 29.6247 105.541 30.3585 105.137 30.6453Z" fill="white"/>
<path fill-rule="evenodd" clip-rule="evenodd" d="M106.018 28.8341L106.128 29.0089C106.586 28.9804 107 28.779 107.45 28.7879C107.752 28.9726 108.147 28.9637 108.457 29.1189C108.705 29.4588 108.972 29.8449 109.336 30.0757C110.081 30.1847 110.492 30.9853 110.749 31.5728V31.2879C110.859 30.894 110.739 30.4333 110.592 30.0757C110.409 29.891 110.143 29.7702 109.951 29.6052C109.914 29.4863 109.942 29.4303 109.979 29.3203C109.694 29.0168 109.272 28.8508 108.925 28.613C108.439 27.9048 107.503 28.0983 106.76 27.9048L106.018 28.8341Z" fill="white"/>
<path fill-rule="evenodd" clip-rule="evenodd" d="M106.002 22.0894C106.083 22.3753 106.183 22.7338 106.237 23.0364C106.494 22.4666 107 22.2112 107.449 21.7417C107.191 21.5658 106.872 21.4833 106.588 21.4283V21.4116C106.386 21.613 106.074 21.8154 106.002 22.0894Z" fill="white"/>
<path fill-rule="evenodd" clip-rule="evenodd" d="M107.668 25.114L108.08 24.6916C108.494 24.2692 108.833 23.781 108.896 23.2388C108.603 23.0639 108.218 23.1828 107.934 23.284C107.832 23.8832 107.678 24.4716 107.668 25.114Z" fill="white"/>
<path fill-rule="evenodd" clip-rule="evenodd" d="M107.969 26.4106C108.602 26.448 109.216 26.5747 109.73 26.2191L110.242 24.5629C110.079 24.5531 109.912 24.4804 109.757 24.5354C109.419 25.2898 108.739 26.0334 107.969 26.4106Z" fill="white"/>
<path fill-rule="evenodd" clip-rule="evenodd" d="M108.156 20.5452C108.569 21.1533 109.256 21.833 109.963 22.0246C109.88 21.2535 109.221 20.7191 108.881 20.058L108.862 19.837C108.596 19.5786 108.275 19.4057 108 19.2662C107.956 19.7093 108.075 20.1326 108.156 20.5452Z" fill="white"/>
<path fill-rule="evenodd" clip-rule="evenodd" d="M110.391 26.4843C110.876 26.5688 111.399 26.4843 111.847 26.3448C112.499 26.1906 112.857 25.4725 113.076 24.9126H112.26L111.38 25.7761C111.033 25.9607 110.701 26.2377 110.391 26.4843Z" fill="white"/>
<path fill-rule="evenodd" clip-rule="evenodd" d="M110.293 19.7092C110.431 20.4263 110.732 21.0786 111.146 21.6955L111.256 20.3251L110.293 19.7092Z" fill="white"/>
<path fill-rule="evenodd" clip-rule="evenodd" d="M113.298 23.2849C113.353 22.8252 113.162 22.2928 113.109 21.8242C112.833 21.6395 112.447 21.6582 112.164 21.4755C112.182 22.2014 112.749 22.8163 113.298 23.2849Z" fill="white"/>
<path fill-rule="evenodd" clip-rule="evenodd" d="M112.463 27.9569C113.041 27.7722 113.599 27.5698 114.13 27.2751C114.469 26.7899 114.983 26.3459 115.056 25.7771C114.634 25.896 114.267 25.7594 113.874 25.9529C113.636 26.3842 113.488 26.8724 113.031 27.1838C112.959 27.4952 112.619 27.7083 112.463 27.9569Z" fill="white"/>
<path fill-rule="evenodd" clip-rule="evenodd" d="M113.361 29.0874L114.049 29.9872C114.416 30.1071 114.875 30.0697 115.195 29.8586L114.947 29.0403C114.462 29.2259 113.885 29.169 113.361 29.0874Z" fill="white"/>
<path fill-rule="evenodd" clip-rule="evenodd" d="M114.508 22.5767L114.773 23.7908C115.414 23.2663 115.544 22.503 115.528 21.6946C115.161 22.117 114.947 22.3753 114.508 22.5767Z" fill="white"/>
<path fill-rule="evenodd" clip-rule="evenodd" d="M116.314 24.7201C116.324 24.894 116.37 25.06 116.471 25.1985C117.185 25.4549 117.259 26.3281 117.92 26.6592C118.35 26.8517 118.843 26.612 119.221 26.4382C118.937 26.1169 118.614 25.894 118.341 25.5551C118.148 25.4725 117.955 25.3527 117.965 25.114L116.314 24.7201Z" fill="white"/>
<path fill-rule="evenodd" clip-rule="evenodd" d="M116.882 29.059C117.195 29.4175 117.616 29.6012 118.056 29.7014C117.983 29.6003 118.103 29.7014 118.12 29.6376L117.569 28.4264C117.295 28.4333 117.011 28.4893 116.754 28.4716C116.772 28.672 116.819 28.8733 116.882 29.059Z" fill="white"/>
<path fill-rule="evenodd" clip-rule="evenodd" d="M117.856 23.3949C117.598 22.7977 117.49 22.0717 117.418 21.4106C117.143 21.7407 116.859 21.9529 116.602 22.2918C116.482 22.9725 117.451 23.1395 117.856 23.3949Z" fill="white"/>
<path fill-rule="evenodd" clip-rule="evenodd" d="M118.974 22.7712C119.304 23.2024 120.028 23.0551 120.433 22.9264C120.239 22.5954 119.618 22.4028 119.508 22.0443C119.444 21.4107 119.317 20.7948 119.114 20.2152C118.792 20.9962 118.406 21.9254 118.974 22.7712Z" fill="white"/>
<path fill-rule="evenodd" clip-rule="evenodd" d="M119.551 24.7201C120.469 25.392 121.366 26.172 122.65 25.8871C122.742 25.8223 122.898 25.8311 122.916 25.7122C122.539 25.4726 122.137 25.2889 121.751 25.0698L121.312 24.4254H121.111C120.615 24.5914 120.082 24.6543 119.551 24.7201Z" fill="white"/>
<path fill-rule="evenodd" clip-rule="evenodd" d="M119.57 32.1758H119.633C120.185 31.7348 120.835 31.5874 121.486 31.4028C121.661 31.4666 121.55 31.6601 121.706 31.7348C122.101 31.5688 122.578 31.6061 122.981 31.4676C123.468 31.4872 123.863 31.4961 124.256 31.7073C124.566 32.1198 125.154 32.0756 125.559 32.3497L125.494 31.7073C124.642 30.7043 123.311 30.6306 122.084 30.6503L122.056 30.5206C121.763 30.5206 121.434 30.5855 121.159 30.7151C120.765 30.7318 120.388 30.9263 120.011 31.0452C119.836 31.3949 119.699 31.8163 119.57 32.1758Z" fill="white"/>
<path fill-rule="evenodd" clip-rule="evenodd" d="M120.305 20.8773C120.663 21.3468 121.193 21.7044 121.799 21.5855C121.488 21.282 121.13 20.9588 121.111 20.5275C121.203 19.7093 120.305 19.6454 119.865 19.2211C120.01 19.7741 119.994 20.389 120.305 20.8773Z" fill="white"/>
<path fill-rule="evenodd" clip-rule="evenodd" d="M120.213 33.8035H120.32C120.807 33.498 121.513 33.7289 121.99 33.4067C122.256 33.2682 122.273 33.6365 122.459 33.7377C122.907 34.0137 122.962 34.8399 123.595 34.6483C124.355 35.0432 124.163 35.9735 124.191 36.6532L124.897 36.2122C124.832 35.8536 125.033 35.4194 124.804 35.108C124.631 34.7141 124.155 34.6768 123.925 34.3546C124.201 33.8851 123.577 33.666 123.448 33.3251L123.485 33.278L124.455 33.4067C124.787 33.609 124.905 33.9774 125.007 34.3173C125.768 34.446 125.951 35.3094 126.218 35.8615C126.374 35.4843 126.437 35.0796 126.594 34.7132C126.603 34.4086 126.199 34.4086 125.998 34.2721C125.942 33.8035 125.732 33.3605 125.32 33.0766C124.476 32.8654 123.734 32.3959 122.808 32.3959L122.037 32.6356C121.615 32.7367 121.166 32.6081 120.846 32.9008C120.367 32.9371 120.33 33.4627 120.213 33.8035Z" fill="white"/>
<path fill-rule="evenodd" clip-rule="evenodd" d="M120.697 30.0148L120.873 30.0973C121.247 29.9215 121.624 29.7201 122.019 29.5727C122.632 29.3979 123.109 30.0973 123.624 29.6562C123.816 29.5177 123.979 29.7201 124.127 29.8311C124.348 30.2358 124.861 30.2083 125.246 30.3183C125.054 29.7947 124.816 29.0767 124.146 28.9922C123.881 28.8733 123.568 28.8851 123.311 28.727C122.606 27.946 122.147 29.3694 121.376 29.0207C121.102 29.3262 120.763 29.6101 120.697 30.0148Z" fill="white"/>
<path fill-rule="evenodd" clip-rule="evenodd" d="M120.873 34.4921C121.166 34.7387 121.468 35.1631 121.925 35.1071C122.496 35.3743 122.257 36.1267 122.569 36.5226L122.898 36.2279L122.87 36.2102L122.917 36.164L122.937 36.1915C123.028 35.9145 122.899 35.4273 122.743 35.1061C122.532 34.9607 122.284 35.1159 122.084 34.9774C122.055 34.6837 121.872 34.5363 121.662 34.3526C121.515 34.2426 121.322 34.39 121.157 34.3801L120.873 34.4921Z" fill="white"/>
<path fill-rule="evenodd" clip-rule="evenodd" d="M122.018 23.2849C122.32 23.7918 122.906 24.1042 123.374 24.4529C123.758 24.6287 124.263 24.673 124.676 24.5816C124.282 24.2604 123.924 23.893 123.595 23.505C123.466 23.3213 123.438 23.0924 123.264 22.9264C122.832 23.0099 122.348 23.001 122.018 23.2849Z" fill="white"/>
<path fill-rule="evenodd" clip-rule="evenodd" d="M122.523 19.9952C122.947 20.5177 123.597 20.3075 124.192 20.3252V20.2623L123.276 19.4883C123.018 19.5718 122.745 19.8007 122.523 19.9952Z" fill="white"/>
<path fill-rule="evenodd" clip-rule="evenodd" d="M105.645 11.3252L106.175 12.9804C106.166 12.0423 106.597 11.2614 106.505 10.3056L106.9 9.71619L106.065 9.97355C105.845 10.3959 105.663 10.8203 105.645 11.3252Z" fill="white"/>
<path fill-rule="evenodd" clip-rule="evenodd" d="M106.002 8.4569L106.725 8.03352V6.95789C106.422 7.14256 106.256 7.45494 106.02 7.70346L106.002 8.4569Z" fill="white"/>
<path fill-rule="evenodd" clip-rule="evenodd" d="M120.873 10.1307C120.698 10.3606 120.434 10.4156 120.214 10.4618C120.598 9.75353 120.782 8.76827 120.479 7.96866C120.681 7.89597 120.902 7.86061 121.094 7.74862L121.074 7.73094L121.58 7.28792C122.249 6.82819 121.992 5.9559 122.24 5.30364C121.91 4.78792 121.81 4.16317 121.332 3.72997L121.36 3.71327C120.983 3.23488 120.305 3.28891 119.79 3.05021C119.112 2.82034 118.59 3.28891 118.104 3.60325C117.893 3.63861 118.021 3.91464 117.792 3.9058C117.664 4.24667 117.507 4.61405 117.416 4.99028C116.508 4.86062 115.528 4.96376 114.803 5.47751C114.417 5.19362 113.949 5.13763 113.5 5.00894C113.17 4.94509 112.794 5.06494 112.557 4.87928C112.209 4.48537 112.134 3.7673 111.537 3.6671C111.328 3.59343 111.282 3.36455 111.282 3.16121C110.888 3.09736 110.538 2.91465 110.153 2.83017C109.568 2.56298 109.101 2.98734 108.66 3.27123C108.468 3.35472 108.247 3.38125 108.065 3.49323C107.735 4.00698 107.422 4.53154 107.212 5.1003C107.276 5.56887 107.477 5.9834 107.717 6.37829C107.928 6.97652 108.587 7.44509 109.147 7.68477C108.881 8.5944 108.881 9.67986 109.147 10.5993C109.147 10.5993 109.131 10.6101 109.131 10.6081C109.131 10.6101 109.102 10.6337 109.102 10.6337C109.013 10.6337 108.92 10.6514 108.848 10.6081H108.836C108.964 11.4863 109.377 12.2545 110.043 12.9136C110.282 12.9981 110.227 13.282 110.329 13.4667C110.392 13.5482 110.401 13.7231 110.373 13.7967C108.945 13.7506 107.669 14.1091 106.523 14.7614C106.23 14.9087 106.359 15.3144 106.332 15.5983C107.138 15.0659 108.009 14.67 108.971 14.4962C109.384 14.4686 109.851 14.3675 110.246 14.4775L110.292 15.2683C109.201 15.838 108.009 16.169 107.073 17.1071C107.092 17.391 107.038 17.7231 107.12 17.9627L107.955 17.281C108.761 16.6671 109.604 16.1415 110.531 15.8016C110.779 16.0963 111.037 16.4087 111.367 16.5914C111.925 16.2329 112.531 15.9677 113.172 15.8016C113.512 15.5993 114.051 15.783 114.272 15.3793L114.429 14.5423C114.4 14.5237 114.383 14.4883 114.336 14.4981C113.906 14.2496 113.622 13.8184 113.658 13.3115C113.512 13.3842 113.348 13.4313 113.172 13.4402C113.025 13.4028 112.889 13.3675 112.825 13.2191C112.815 13.0345 112.723 12.7594 112.906 12.6219C113.502 12.2535 114.273 12.2349 115.025 12.2918C115.584 12.3645 116.392 12.336 116.583 13.0001C116.558 13.1926 116.574 13.4038 116.382 13.5325C116.18 13.6425 115.952 13.5227 115.767 13.4411C115.622 13.891 115.374 14.3979 114.868 14.5433L114.934 15.0777C114.997 15.3174 115.015 15.7113 115.393 15.6288C116.264 15.84 117.033 16.2908 117.794 16.7781C118.051 16.5197 118.253 16.225 118.435 15.9598C119.792 16.4185 120.967 17.4392 122.084 18.3861L122.131 17.614C121.067 16.6671 119.884 15.9961 118.655 15.4716C118.702 15.2231 118.757 14.9834 118.765 14.7182C120.224 14.7997 121.606 15.2506 122.809 15.9598L122.79 15.2977C121.525 14.618 120.141 14.1671 118.627 14.1484C118.572 14.0639 118.554 13.9461 118.564 13.8626C119.298 13.7427 119.819 12.9804 119.996 12.3174C120.37 11.8861 120.913 11.4166 120.784 10.7742C120.801 10.7221 120.82 10.6651 120.838 10.6101C120.887 10.448 120.928 10.2801 120.873 10.1307Z" fill="white"/>
<path fill-rule="evenodd" clip-rule="evenodd" d="M122.15 12.4931L122.902 12.2535L122.983 11.8311C123.196 11.2151 122.747 10.7554 122.525 10.2672L122.15 12.4931Z" fill="white"/>
<path fill-rule="evenodd" clip-rule="evenodd" d="M124.046 15.4077C124.404 15.8016 124.752 16.4372 125.386 16.2427C125.339 15.9775 125.192 15.7574 125.101 15.5177C124.935 15.3232 124.881 14.7722 124.551 14.9667C124.303 14.8006 124.24 14.5236 124.082 14.3036C124.011 14.6435 124.056 15.0668 124.046 15.4077Z" fill="white"/>
<path fill-rule="evenodd" clip-rule="evenodd" d="M124.176 18.0992C124.314 18.2937 124.351 18.5422 124.486 18.7161C124.734 18.8802 125.101 18.8546 125.403 18.8261C125.678 18.7623 125.853 19.0648 126.109 18.889C125.79 18.6876 125.598 18.3193 125.293 18.054C124.935 17.7692 124.552 18.0177 124.176 18.0992Z" fill="white"/>
<path fill-rule="evenodd" clip-rule="evenodd" d="M124.662 22.3752C125.293 22.7524 126.099 23.1208 126.942 22.9921C127.033 22.945 127.19 22.9548 127.207 22.8438C126.685 22.6591 126.137 22.1356 125.588 22.0255C125.285 21.557 124.891 22.1454 124.506 22.108C124.515 22.2191 124.624 22.3025 124.662 22.3752Z" fill="white"/>
<path fill-rule="evenodd" clip-rule="evenodd" d="M126.566 30.4922L126.705 30.7879C126.843 31.7446 127.446 32.6258 127.116 33.6739C127.391 33.8664 127.474 34.1877 127.648 34.445H127.694C127.904 33.6464 127.758 32.8183 127.648 32.0177C127.73 31.2918 126.996 30.8684 126.566 30.4922Z" fill="white"/>
<path fill-rule="evenodd" clip-rule="evenodd" d="M126.725 21.0786C127.202 21.447 127.963 21.4833 128.511 21.2997C128.163 21.1071 127.78 20.8959 127.494 20.6376L126.725 21.0786Z" fill="white"/>
<path fill-rule="evenodd" clip-rule="evenodd" d="M128.986 23.9018C128.939 24.2888 129.197 24.61 129.472 24.8026C129.573 24.5727 129.738 24.3802 129.755 24.1228C129.674 23.7269 129.454 23.3694 129.096 23.1031C129.031 23.3595 128.959 23.6061 128.986 23.9018Z" fill="white"/>
<path fill-rule="evenodd" clip-rule="evenodd" d="M129.016 28.0923C128.951 28.5236 129.427 28.5806 129.629 28.8193C129.794 29.0206 129.519 29.1591 129.519 29.3517C129.867 29.8016 130.069 30.3173 130.069 30.9155C130.207 30.3556 130.417 29.8202 130.493 29.2417C130.456 28.8379 129.815 28.9204 129.915 28.4705C130.097 28.0108 129.878 27.5599 129.758 27.1474C129.721 27.0815 129.639 26.9529 129.567 26.9902C129.399 27.3674 128.987 27.6326 129.016 28.0923Z" fill="white"/>
<path fill-rule="evenodd" clip-rule="evenodd" d="M130.271 25.9048L130.748 26.833C130.959 26.8075 131.094 26.6032 131.26 26.4578C131.389 26.0708 131.049 25.8222 130.949 25.5099C130.865 25.2888 130.949 24.9951 130.793 24.8016C130.674 24.7289 130.535 24.6091 130.398 24.6444L130.271 25.9048Z" fill="white"/>
<path fill-rule="evenodd" clip-rule="evenodd" d="M130.885 23.4607C131.261 23.6896 131.691 24.0206 131.892 24.4243C132.214 25.3625 132.728 26.2082 133.103 27.1179C133.241 27.7524 133.351 28.3182 133.525 28.944C133.59 29.107 133.553 29.4292 133.81 29.4027C133.883 28.7043 134.021 28.0334 134.03 27.3065C133.802 27.0039 133.497 26.8752 133.214 26.6896V26.6267C133.251 26.4695 133.379 26.2858 133.572 26.3153C133.654 26.221 133.901 26.1306 133.793 25.9656C133.316 25.4882 133.343 24.664 132.581 24.5157C132.316 24.4057 132.251 24.1306 132.225 23.8733C131.866 23.5717 131.333 23.4676 130.885 23.4607Z" fill="white"/>
<path fill-rule="evenodd" clip-rule="evenodd" d="M131.324 28.4431C131.792 28.8734 131.629 29.4991 131.591 30.0787C131.518 30.4284 131.958 30.226 132.096 30.4097C132.379 30.8331 132.214 31.449 132.113 31.9087C132.361 31.5305 132.645 31.1995 132.837 30.7869C132.828 30.6297 133.028 30.557 133.022 30.3645C133.103 30.0973 132.792 30.2172 132.664 30.1877C132.554 30.1602 132.435 30.0865 132.47 29.9402C132.709 29.4794 132.49 28.9284 132.398 28.4696C132.288 28.0914 132.445 27.5875 132.269 27.2565C131.976 27.6612 131.105 27.7535 131.324 28.4431Z" fill="white"/>
<path fill-rule="evenodd" clip-rule="evenodd" d="M132.176 21.9146C132.993 22.7427 133.588 23.5737 134.468 24.3743C134.487 24.0178 134.44 23.6847 134.422 23.335C134.292 23.0885 134.054 22.9038 133.853 22.7201C133.203 22.6553 132.863 21.7771 132.176 21.9146Z" fill="white"/>
<path fill-rule="evenodd" clip-rule="evenodd" d="M134.314 26.2967C134.333 26.3792 134.37 26.4519 134.406 26.5354C134.763 27.1248 135.102 27.7299 135.351 28.3644C135.277 27.6857 135.737 26.8379 135.13 26.3153C135.048 26.0943 134.773 26.168 134.598 26.1857L134.314 26.2967Z" fill="white"/>
<path fill-rule="evenodd" clip-rule="evenodd" d="M136.514 33.0127C136.771 33.1296 137.101 32.9184 137.348 32.7731C137.578 32.7171 137.771 32.8457 137.945 32.9656C138.018 33.112 137.945 33.2495 137.971 33.388C138.522 33.5442 139.062 33.7465 139.549 34.0677L139.703 33.9125C139.74 33.5167 139.429 33.2338 139.136 33.0127C138.943 32.8998 138.657 32.9656 138.522 32.7898C138.613 32.6444 138.613 32.4233 138.604 32.2573C138.3 32.2573 138.108 32.165 137.86 32.0177C137.706 31.9725 137.567 31.8438 137.439 32.0177C136.981 32.331 136.954 32.7898 136.514 33.0127Z" fill="white"/>
<path fill-rule="evenodd" clip-rule="evenodd" d="M137.156 21.4431C137.384 21.3802 137.624 21.3134 137.816 21.1494C138.428 20.5885 139.319 20.9647 140.033 20.9558C139.897 20.7073 139.703 20.4608 139.529 20.2476C139.273 20.1464 139.034 20.0266 138.741 20.0266C138.117 19.6602 137.697 20.2751 137.219 20.5777C137.091 20.8281 137.028 21.1945 137.156 21.4431Z" fill="white"/>
<path fill-rule="evenodd" clip-rule="evenodd" d="M137.175 23.335C137.175 23.3095 137.175 23.28 137.202 23.2722C137.285 23.3458 137.193 23.5197 137.331 23.5561C137.569 23.4382 137.789 23.2722 138.009 23.117C138.624 23.117 138.991 22.5197 139.594 22.5197C140.602 22.7024 141.604 22.9048 142.482 23.4008C142.42 22.8036 141.905 22.2614 141.384 21.9932C141.089 21.892 140.86 22.0502 140.649 22.2142C140.034 22.6022 140.356 21.6543 139.925 21.6346C139.366 21.8115 138.788 22.003 138.166 21.949C137.798 22.0855 137.54 22.4244 137.129 22.3891C137.11 22.6926 137.064 23.061 137.175 23.335Z" fill="white"/>
<path fill-rule="evenodd" clip-rule="evenodd" d="M137.596 25.3871C137.787 25.5885 138.108 25.5512 138.385 25.5885L139.181 25.2771C139.191 25.1297 138.943 25.0914 138.997 24.9284C139.218 24.6798 139.521 24.8537 139.795 24.7516C140.182 24.6975 140.576 24.3115 140.959 24.5964C140.95 24.6415 140.978 24.7074 140.942 24.7516C140.821 25.0374 141.024 25.2113 141.244 25.3213C141.694 25.4058 142.115 25.8193 142.565 25.6337C142.519 25.2574 142.419 24.9087 142.325 24.5492C141.95 24.4844 141.685 24.172 141.336 24.0423C141.179 24.1897 140.978 24.3007 140.785 24.282C140.079 24.117 139.235 23.6759 138.521 24.1268C138.263 24.4382 137.805 24.3468 137.457 24.4834C137.477 24.7987 137.512 25.1013 137.596 25.3871Z" fill="white"/>
<path fill-rule="evenodd" clip-rule="evenodd" d="M137.899 30.8507C137.843 31.0069 137.689 31.2652 137.972 31.3379C138.559 31.3576 139.311 31.054 139.77 31.5128C139.925 31.6336 139.851 31.8802 139.843 32.0373L140.611 32.6817C140.686 32.2947 140.822 31.945 140.832 31.5305C140.769 31.2367 140.621 30.9509 140.366 30.7584C139.86 30.7584 139.566 30.166 139.026 30.2417C138.743 30.1758 138.496 30.4283 138.21 30.4283C138.081 30.557 138.009 30.7142 137.899 30.8507Z" fill="white"/>
<path fill-rule="evenodd" clip-rule="evenodd" d="M138.119 26.5177C138.238 26.7643 138.377 27.17 138.605 27.1975C139.146 26.9588 139.934 26.8105 140.54 27.0688C140.742 27.1052 140.742 27.335 140.697 27.4834C141.007 27.6671 141.385 27.8124 141.714 28.0158L141.623 27.4647C141.603 26.8665 140.852 26.8105 140.806 26.2211C140.191 26.0197 139.503 25.9559 138.853 26.112C138.64 26.3056 138.34 26.2781 138.082 26.334C138.065 26.4067 138.109 26.4519 138.119 26.5177Z" fill="white"/>
<path fill-rule="evenodd" clip-rule="evenodd" d="M138.276 29.4961C138.634 29.3949 138.861 28.999 139.247 28.9637C139.833 28.9735 140.356 29.2102 140.722 29.7171C140.944 29.8635 140.897 30.2417 141.18 30.2417C141.098 29.7898 141.245 29.3763 141.227 28.9165C140.84 28.2741 139.89 28.7692 139.532 28.0157L138.854 28.0609C138.368 28.1808 138.497 28.7515 138.431 29.1376C138.376 29.2574 138.266 29.3487 138.276 29.4961Z" fill="white"/>
<path fill-rule="evenodd" clip-rule="evenodd" d="M141.639 33.5167C141.924 34.0865 142.549 34.5197 142.611 35.1729C142.758 34.9971 142.859 34.7957 142.96 34.6032C142.95 34.4185 142.739 34.4185 142.655 34.2721C142.573 34.0334 142.702 33.8222 142.739 33.6091C142.62 33.2682 142.335 32.947 142.015 32.7456L141.639 33.5167Z" fill="white"/>
<path fill-rule="evenodd" clip-rule="evenodd" d="M142.77 32.0648L143.429 32.9656C143.712 32.5147 143.712 31.8536 143.602 31.3094C143.539 31.2082 143.419 31.0432 143.254 31.1169C143.006 31.3752 142.97 31.7691 142.77 32.0648Z" fill="white"/>
<path fill-rule="evenodd" clip-rule="evenodd" d="M140.08 6.90082C140.319 7.02066 140.548 7.13068 140.831 7.14836C141.025 7.04817 141.273 6.97449 141.511 7.03834C141.85 7.25936 142.262 6.99217 142.655 7.01084C142.308 6.68078 141.913 6.47842 141.511 6.28589C140.997 6.39493 140.585 6.76133 140.08 6.90082Z" fill="white"/>
<path fill-rule="evenodd" clip-rule="evenodd" d="M143.668 7.76531C144.152 7.8105 144.501 8.24174 144.831 8.60323C145.244 8.6661 145.555 8.95981 145.802 9.26433L145.647 8.77612C145.537 8.28791 145.234 7.9107 144.924 7.52661C144.484 7.55412 144.051 7.59046 143.668 7.76531Z" fill="white"/>
<path fill-rule="evenodd" clip-rule="evenodd" d="M109.449 3.73096L109.714 3.75846C110.43 4.11701 111.585 4.3007 111.649 5.33901C110.927 5.62486 110.229 6.01189 109.652 6.59834C109.212 6.14745 108.322 6.39598 108.176 5.6062C108.314 4.8616 108.578 3.92546 109.449 3.73096Z" fill="#FF6600"/>
<path fill-rule="evenodd" clip-rule="evenodd" d="M110.137 8.39298C110.97 8.32029 111.777 8.43719 112.64 8.36548C112.851 8.45683 113.071 8.64151 113.172 8.85271C113.144 9.84485 112.841 10.7928 112.795 11.8124C112.42 11.9706 112.053 12.282 111.961 12.6955C111.622 12.7957 111.319 13 110.989 13.1543C110.842 12.8429 110.869 12.3733 111.128 12.1169C111.484 11.6101 112.411 11.7299 112.336 10.9303C112.575 10.5433 112.346 10.0472 112.355 9.64249C112.263 9.33994 112.172 9.74367 112.025 9.73384C111.732 9.79671 111.429 9.81636 111.174 9.67098C110.98 9.46665 110.742 9.30261 110.687 9.02658C110.43 8.89789 110.128 8.69554 110 8.42835L110.137 8.39298Z" fill="#FF6600"/>
<path fill-rule="evenodd" clip-rule="evenodd" d="M111.145 14.3871C111.537 14.4412 111.951 14.2673 112.29 14.4598C112.217 14.5885 112.025 14.6435 111.869 14.6808L111.255 14.9667C111.026 14.9097 111.154 14.5423 111.145 14.3871Z" fill="#FF6600"/>
<path fill-rule="evenodd" clip-rule="evenodd" d="M112.75 6.70935C113.143 6.58067 113.566 6.31544 113.987 6.44413C113.685 6.74766 113.447 7.14255 113.219 7.50896L111.963 7.48243C112.098 7.15238 112.446 6.87634 112.75 6.70935Z" fill="#FF6600"/>
<path fill-rule="evenodd" clip-rule="evenodd" d="M116.427 6.40673C116.948 6.31538 116.921 6.99514 117.398 7.02363C117.481 7.13365 117.601 7.23384 117.554 7.39887C117.278 7.50889 116.876 7.45486 116.562 7.52756C116.15 7.29769 116.417 6.5806 115.765 6.62677C115.73 6.57274 115.655 6.46174 115.747 6.42441C115.95 6.35271 116.214 6.37923 116.427 6.40673Z" fill="#FF6600"/>
<path fill-rule="evenodd" clip-rule="evenodd" d="M116.097 8.87145C116.325 8.54826 116.675 8.52272 117.004 8.45691L119.379 8.50308C119.48 8.59443 119.288 8.67695 119.288 8.78795C119.141 8.92547 118.93 8.9628 118.801 9.09247C118.491 9.10229 118.516 9.46771 118.297 9.62488C117.957 9.96476 117.463 9.80956 117.068 9.75357C116.93 9.65239 116.775 9.51388 116.71 9.35769L116.601 9.46771C116.739 9.98343 116.702 10.5542 116.801 11.0767L117.37 11.4549C117.38 12.3007 118.37 12.0708 118.801 12.5404C118.7 12.8429 118.498 13.1003 118.28 13.3587C117.931 13.0178 117.536 12.7958 117.115 12.6504C117.079 12.1534 116.538 11.8606 116.234 11.6111C116.152 10.7103 116.133 9.79089 115.988 8.91762L116.097 8.87145Z" fill="#FF6600"/>
<path fill-rule="evenodd" clip-rule="evenodd" d="M116.959 14.5423H118.06L117.921 15.1219L116.821 14.6524C116.795 14.561 116.894 14.5335 116.959 14.5423Z" fill="#FF6600"/>
<path fill-rule="evenodd" clip-rule="evenodd" d="M118.939 4.12773L119.755 3.86938C120.223 4.08942 120.663 4.36644 121.093 4.67783C121.433 5.30455 121.376 6.14836 121.222 6.84678C120.974 7.1238 120.433 6.84678 120.232 7.28784H120.195C119.891 6.42439 119.031 5.65327 118.232 5.25641C118.361 4.81634 118.499 4.3851 118.939 4.12773Z" fill="#FF6600"/>
<path fill-rule="evenodd" clip-rule="evenodd" d="M138.063 39.1523H142.955C143.679 39.0422 144.449 39.0599 145.026 38.5255C147.475 38.9037 149.959 38.2967 151.884 36.946C152.9 36.1228 153.813 35.1719 154.551 34.1336C155.202 33.2181 155.716 32.3625 156.048 31.3379C156.295 30.7043 156.491 30.0472 156.639 29.3704C157.338 26.1847 156.971 22.6218 155.939 19.5885C155.746 19.0256 155.532 18.4833 155.296 17.9627C154.004 15.2869 152.249 12.4009 149.541 10.7073C148.015 9.75351 146.613 8.27807 145.752 6.75352C145.284 6.32915 144.834 5.76923 144.229 5.66806C144.395 5.94409 144.577 6.21029 144.624 6.53151L144.587 6.57768C143.946 6.59634 143.441 6.25646 143.001 5.84094L143.488 5.40087C143.303 5.30951 143.093 5.2712 142.891 5.227C141.038 5.0158 139.517 5.86943 137.876 6.28397L137.849 6.37532C138.856 6.82522 139.067 7.93721 139.655 8.69261C139.802 8.51677 140.05 8.64546 140.25 8.62679C140.543 8.64546 140.819 8.85665 141.102 8.78298C141.112 8.53544 140.975 8.3429 140.928 8.12286C141.102 8.03838 141.314 8.11304 141.506 8.12286C142.038 8.43426 142.891 8.06589 143.221 8.78298C142.616 8.82129 142.047 8.94801 141.479 9.08652C141.515 9.31638 141.745 9.50105 141.727 9.73092C141.24 9.52659 140.728 9.40086 140.186 9.33504L140.16 9.41657C140.848 10.226 141.791 10.7044 142.754 10.9902C144.138 11.3115 145.357 10.6504 146.694 10.8802C149.98 12.3881 152.784 15.837 154.004 19.1101C154.064 19.2672 154.121 19.4264 154.176 19.5865C155.198 22.5757 155.391 26.2525 154.368 29.3684C153.823 30.667 153.224 31.889 152.262 32.945C151.899 33.392 151.496 33.7918 151.059 34.1316C149.683 35.2063 147.986 35.6788 146.238 35.1965C146.129 35.1248 145.907 35.1051 145.943 34.9126C146.005 34.6572 146.061 34.3959 146.111 34.1316C146.402 32.6356 146.535 31.0639 146.458 29.4941C146.454 29.4263 146.453 29.3586 146.45 29.2918C146.354 27.0108 145.901 24.9588 145.064 22.9863C144.529 21.8537 143.891 20.6189 143.089 19.5099C142.132 18.1877 140.942 17.0452 139.416 16.4755C138.48 16.227 137.324 16.1818 136.619 16.9637C136.114 17.4048 135.904 18.002 135.977 18.6543C135.188 19.1572 134.301 19.4283 133.336 19.5099C133.1 19.5305 132.857 19.616 132.613 19.615C132.379 19.6258 132.151 19.615 131.93 19.5865C130.766 19.4431 129.593 18.8173 128.7 18.0973C128.681 17.6219 128.653 17.169 128.635 16.6651C128.123 16.3979 127.702 15.891 127.664 15.2948L127.711 15.2486C128.004 15.3399 128.261 15.4873 128.526 15.6445C128.406 14.9274 128.27 14.2191 127.912 13.5944C127.582 13.4559 127.25 13.3468 126.939 13.1798C126.582 12.9411 126.352 12.5089 126.3 12.113C126.619 12.4274 127.178 12.3164 127.426 12.6474C126.996 11.3694 126.986 9.90773 126.28 8.73976C125.922 7.87532 124.987 7.48043 124.345 6.84487C124.097 6.54232 123.997 6.11992 123.547 6.07277C123.181 5.98141 123.153 5.56688 123.089 5.30165C123.318 5.32817 123.51 5.48535 123.704 5.52169C123.171 4.10519 122.704 2.53447 121.264 1.63368L121.017 1.78889C120.458 1.87337 119.861 1.90873 119.302 1.9274C119.55 1.55903 119.99 1.40382 120.339 1.23683C119.934 0.934276 119.603 0.860602 119.097 0.777105C118.804 1.07278 118.275 1.21817 117.899 1.30068L117.854 1.26532C117.844 0.935258 117.768 0.528579 118.263 0.447047C117.787 0.217185 116.999 0.308541 116.512 0.447047C116.373 0.805593 115.983 1.12681 116.008 1.54921C115.726 1.84488 115.524 2.23879 115.229 2.45097C115.221 1.74272 115.52 1.08948 115.649 0.493216C115.237 0.648422 114.818 0.868461 114.415 1.06296C113.763 0.68575 113.078 0.308541 112.382 0.0246514C112.317 -0.0038358 112.179 -0.0313405 112.207 0.0875197C112.802 0.519739 112.572 1.32818 112.636 1.94508L112.259 1.63368C112.076 1.16414 111.546 0.824257 111.456 0.308541C110.832 0.428383 110.433 0.594395 109.855 0.842921L109.775 0.888107C110.205 0.888107 110.571 1.22799 110.783 1.56787C110.132 1.6052 109.554 1.34685 108.914 1.28398C108.849 1.21915 108.795 1.14547 108.692 1.1553C108.371 1.27514 108.097 1.505 107.812 1.72602C107.18 2.34979 106.538 3.04134 106.236 3.86747C106.447 3.9048 106.713 3.89596 106.869 4.02464C106.522 4.23584 106.218 4.59439 105.878 4.79674C105.76 5.27513 105.777 5.81737 105.75 6.34192C105.484 6.74566 105.127 7.1042 104.952 7.5541C104.384 9.40184 104.237 11.4519 104.32 13.5482C104.136 13.7221 103.897 13.835 103.725 13.9716L103.743 15.8468H103.788C103.873 15.4509 104.34 15.2309 104.623 14.9647H104.715C104.67 15.3871 104.614 15.8095 104.605 16.2427L104.073 16.6837C103.543 17.1523 103.992 17.8586 103.945 18.447C103.983 18.6042 104.009 18.834 104.121 18.8714C104.184 18.6415 104.386 18.4755 104.513 18.2741C104.743 18.2171 104.943 18.0344 105.154 18.0069C105.038 18.4657 104.881 18.9166 104.696 19.3576C104.608 19.4156 104.505 19.4951 104.416 19.5875C104.323 19.6886 104.249 19.8046 104.231 19.9293C104.643 22.1081 105.291 24.2584 106.035 26.3085C105.529 27.1621 105.244 28.17 104.824 29.0531C104.764 29.1768 104.71 29.3016 104.659 29.4303C104.238 30.5 104.11 31.6935 103.586 32.722C103.375 32.5737 103.147 32.4637 102.909 32.3625C101.916 32.0324 100.771 32.2436 100.048 33.0059C99.4049 32.8861 98.7445 32.9961 98.2389 33.336C97.8784 33.6091 97.5982 33.9371 97.4385 34.3212C97.3307 34.5874 97.2788 34.8772 97.2964 35.1945C96.8829 35.4794 96.6625 35.9204 96.5263 36.3615C96.3333 37.3556 96.6811 38.388 97.2494 39.1513L138.063 39.1523Z" fill="white"/>
<path fill-rule="evenodd" clip-rule="evenodd" d="M155.938 19.5894C155.746 19.0266 155.532 18.4843 155.296 17.9637C154.004 15.2879 152.249 12.4018 149.541 10.7083C148.015 9.75448 146.613 8.27905 145.752 6.75449C145.284 6.33013 144.834 5.77021 144.229 5.66903C144.395 5.94506 144.577 6.21127 144.624 6.53249L144.587 6.57866C143.946 6.59732 143.441 6.25744 143.001 5.84192L143.488 5.40184C143.303 5.31049 143.093 5.27218 142.891 5.22797C141.038 5.01677 139.517 5.87041 137.876 6.28494L137.849 6.3763C138.856 6.8262 139.067 7.93818 139.655 8.69358C139.802 8.51775 140.05 8.64643 140.25 8.62777C140.543 8.64643 140.819 8.85763 141.102 8.78396C141.112 8.53641 140.975 8.34388 140.928 8.12384C141.102 8.03936 141.314 8.11402 141.506 8.12384C142.038 8.43523 142.891 8.06687 143.221 8.78396C142.616 8.82227 142.047 8.94899 141.479 9.08749C141.515 9.31735 141.745 9.50203 141.727 9.73189C141.24 9.52757 140.728 9.40183 140.186 9.33602L140.16 9.41755C140.848 10.227 141.791 10.7054 142.754 10.9912C144.138 11.3124 145.357 10.6513 146.694 10.8812C149.98 12.3891 152.784 15.838 154.004 19.111C154.064 19.2682 154.121 19.4273 154.176 19.5875C155.198 22.5767 155.391 26.2535 154.368 29.3694C153.823 30.668 153.224 31.89 152.262 32.946C151.899 33.3929 151.496 33.7927 151.059 34.1326C149.683 35.2073 147.986 35.6798 146.238 35.1975C146.129 35.1257 145.907 35.1061 145.943 34.9136C146.005 34.6582 146.061 34.3969 146.111 34.1326C146.402 32.6366 146.535 31.0648 146.458 29.4951C146.454 29.4273 146.453 29.3595 146.45 29.2927C146.354 27.0118 145.901 24.9598 145.064 22.9873C144.529 21.8547 143.891 20.6199 143.089 19.5108C142.132 18.1886 140.942 17.0462 139.416 16.4765C138.48 16.2279 137.324 16.1828 136.619 16.9647C136.114 17.4057 135.904 18.003 135.977 18.6552C135.188 19.1582 134.301 19.4293 133.336 19.5108C133.1 19.5315 132.857 19.6169 132.613 19.616C132.379 19.6268 132.151 19.616 131.93 19.5875C130.766 19.444 129.593 18.8183 128.7 18.0983C128.681 17.6228 128.653 17.17 128.635 16.6661C128.123 16.3989 127.702 15.892 127.664 15.2957L127.711 15.2496C128.004 15.3409 128.261 15.4883 128.526 15.6454C128.406 14.9283 128.27 14.2201 127.912 13.5953C127.582 13.4568 127.25 13.3478 126.939 13.1808C126.582 12.9421 126.352 12.5099 126.3 12.114C126.619 12.4283 127.178 12.3173 127.426 12.6484C126.996 11.3704 126.986 9.90871 126.28 8.74073C125.922 7.8763 124.987 7.48141 124.345 6.84585C124.097 6.54329 123.997 6.1209 123.547 6.07375C123.181 5.98239 123.153 5.56785 123.089 5.30263C123.318 5.32915 123.51 5.48632 123.704 5.52267C123.171 4.10617 122.704 2.53545 121.264 1.63466L121.017 1.78987C120.458 1.87435 119.861 1.90971 119.302 1.92837C119.55 1.56001 119.99 1.4048 120.339 1.23781C119.934 0.935252 119.603 0.861579 119.097 0.778082C118.804 1.07376 118.275 1.21914 117.899 1.30166L117.854 1.26629C117.844 0.936235 117.768 0.529556 118.263 0.448024C117.787 0.218162 116.999 0.309517 116.512 0.448024C116.373 0.806569 115.983 1.12779 116.008 1.55018C115.726 1.84586 115.524 2.23977 115.229 2.45195C115.221 1.7437 115.52 1.09046 115.649 0.494193C115.237 0.649399 114.818 0.869437 114.415 1.06394C113.763 0.686727 113.078 0.309517 112.382 0.025628C112.317 -0.00285914 112.179 -0.0303641 112.207 0.0884961C112.802 0.520715 112.572 1.32916 112.636 1.94606L112.259 1.63466C112.076 1.16511 111.546 0.825233 111.456 0.309517C110.832 0.42936 110.433 0.595371 109.855 0.843897L109.775 0.889084C110.205 0.889084 110.571 1.22896 110.783 1.56885C110.132 1.60617 109.554 1.34783 108.914 1.28496C108.849 1.22012 108.795 1.14645 108.692 1.15627C108.371 1.27612 108.097 1.50598 107.812 1.727C107.18 2.35077 106.538 3.04232 106.236 3.86845C106.447 3.90578 106.713 3.89693 106.869 4.02562C106.522 4.23682 106.218 4.59536 105.878 4.79772C105.76 5.27611 105.777 5.81834 105.75 6.3429C105.484 6.74663 105.127 7.10518 104.952 7.55508C104.384 9.40282 104.237 11.4529 104.32 13.5492C104.136 13.723 103.897 13.836 103.725 13.9725L103.743 15.8478H103.788C103.873 15.4519 104.34 15.2319 104.623 14.9657H104.715C104.67 15.3881 104.614 15.8105 104.605 16.2437L104.073 16.6847C103.543 17.1533 103.992 17.8596 103.945 18.448C103.983 18.6052 104.009 18.835 104.121 18.8723C104.184 18.6425 104.386 18.4765 104.513 18.2751C104.743 18.2181 104.943 18.0354 105.154 18.0079C105.038 18.4666 104.881 18.9175 104.696 19.3586C104.608 19.4165 104.505 19.4961 104.416 19.5884C104.323 19.6896 104.249 19.8055 104.231 19.9303C104.643 22.1091 105.291 24.2594 106.035 26.3095C105.529 27.1631 105.244 28.1709 104.824 29.054C104.764 29.1778 104.71 29.3026 104.659 29.4313C104.238 30.501 104.11 31.6945 103.586 32.723C103.375 32.5747 103.147 32.4646 102.909 32.3635C101.916 32.0334 100.771 32.2446 100.048 33.0069C99.4049 32.887 98.7445 32.9971 98.2389 33.3369C97.8784 33.61 97.5982 33.9381 97.4385 34.3222C97.3307 34.5884 97.2788 34.8782 97.2964 35.1955C96.8829 35.4804 96.6625 35.9214 96.5263 36.3625C96.3333 37.3566 96.6811 38.389 97.2494 39.1523H113.452C113.214 38.8684 112.993 38.4725 112.827 38.1326C112.48 37.6071 112.718 36.8635 112.681 36.2564C113.011 35.5884 113.346 34.9165 113.723 34.2633C113.8 34.1316 113.876 34.003 113.954 33.8753L114.698 33.5904C115.092 33.5904 115.423 33.3055 115.798 33.4057C116.303 33.9126 116.303 32.9008 116.79 32.8546C117.926 32.7073 119.054 32.8173 119.695 33.7829C119.695 33.9116 119.899 33.9116 119.852 34.0314C119.705 34.0756 119.567 33.9843 119.412 33.9843C118.715 33.8104 117.898 33.3674 117.211 33.7633C117.185 33.9283 117.149 34.0963 117.116 34.2613C117.082 34.4371 117.05 34.609 117.036 34.7741C117.485 34.9028 117.861 35.225 118.2 35.5737C118.429 35.1238 118.915 34.9214 119.346 34.7741C119.722 34.8566 120.135 34.8664 120.447 35.1051C121.025 35.6395 120.74 36.5491 120.686 37.2289C121.208 37.5226 121.786 37.6896 122.317 37.9735C122.069 38.1965 121.741 38.2868 121.438 38.3978L120.558 38.222C120.457 38.1493 120.282 38.1493 120.246 38.0206C119.953 38.332 119.595 38.7466 119.412 39.1503H131.972C131.807 38.7731 131.615 38.4794 131.385 38.1306C131.128 37.5786 131.231 36.8242 131.202 36.2358L132.376 34.443C133.017 34.4342 133.743 34.1945 134.438 34.3144C134.474 34.2986 134.507 34.281 134.539 34.2603C134.828 34.0599 134.917 33.5943 135.347 33.6523C136.116 33.4421 136.704 33.7918 137.282 34.1405C137.262 34.1866 137.244 34.2269 137.223 34.2603C136.981 34.6483 136.528 34.2151 136.198 34.332C136.06 34.4794 136.263 34.6532 136.289 34.8202C136.409 34.9843 136.17 34.9656 136.088 34.9941C135.896 35.0216 135.686 34.9754 135.538 34.8202C135.501 34.7731 135.529 34.7191 135.456 34.7102C135.29 34.9843 135.052 35.2338 134.988 35.5462C135.198 35.7495 135.482 35.9509 135.584 36.2092C135.794 36.5128 135.418 36.7417 135.346 37.0088C135.318 37.0629 135.234 37.0629 135.208 37.0088C135.014 36.8988 134.85 36.6218 134.638 36.6945C134.454 37.5137 134.702 38.332 134.592 39.1503C134.95 39.2348 135.371 39.1316 135.756 39.1503L135.913 37.4214C136.077 36.3006 136.739 35.3625 137.518 34.5059C138.359 33.9293 138.902 35.0688 139.524 35.4637C139.626 35.4823 139.59 35.5923 139.634 35.6562C139.625 35.8409 139.433 35.9136 139.305 35.9696C138.919 36.1061 138.635 35.6837 138.397 35.4352C138.168 35.6837 138.067 36.0138 137.801 36.2083L137.892 36.2348C138.197 36.5393 138.488 36.8605 138.554 37.2652C138.517 37.6316 138.334 37.9902 138.003 38.1758C137.757 37.7515 137.554 37.2829 137.39 36.8507C137.399 36.8703 137.38 36.8782 137.362 36.8978C136.857 37.0344 136.722 37.6041 136.638 38.0648C136.665 38.5157 136.326 38.6994 136.417 39.1493H142.956C143.68 39.0393 144.45 39.057 145.027 38.5226C147.476 38.9008 149.96 38.2937 151.885 36.943C152.901 36.1198 153.814 35.169 154.552 34.1307C155.203 33.2151 155.717 32.3595 156.049 31.335C156.296 30.7014 156.492 30.0442 156.64 29.3674C157.338 26.1847 156.971 22.6218 155.938 19.5894Z" fill="#FF6600"/>
<path fill-rule="evenodd" clip-rule="evenodd" d="M113.861 36.6523C114.219 36.4224 114.797 36.3664 114.878 35.834C114.733 35.723 114.604 35.5845 114.438 35.5482L114.062 35.6582C114.089 35.4372 114.209 35.1896 114.284 34.9509L115.493 34.556C115.327 35.1071 115.264 35.7967 115.208 36.4313C115.318 37.3694 115.456 38.3713 115.933 39.1523H114.63C114.484 38.2888 113.584 37.6621 113.861 36.6523Z" fill="#FF6600"/>
<path fill-rule="evenodd" clip-rule="evenodd" d="M116.678 35.5481H116.751L117.629 36.3487L117.758 36.3212C117.686 37.2593 117.639 38.1787 117.629 39.1522H116.677C116.483 38.2426 116.163 37.2858 116.2 36.3035C116.365 36.055 116.474 35.7416 116.678 35.5481Z" fill="#FF6600"/>
<path fill-rule="evenodd" clip-rule="evenodd" d="M118.638 36.4322C118.813 36.2033 118.886 35.8153 119.233 35.7711C119.481 35.778 119.71 35.8153 119.895 35.9912C120.216 36.3949 119.902 36.9116 119.786 37.3153C119.656 37.9312 119.435 38.5737 119.234 39.1532H118.309L118.638 36.4322Z" fill="#FF6600"/>
<path fill-rule="evenodd" clip-rule="evenodd" d="M132.548 36.1464C132.75 36.4048 132.814 36.7535 133.116 36.9834C133.383 36.616 133.447 36.0452 133.318 35.5767L133.053 35.3095C133.393 35.228 133.749 35.1995 134.089 35.1356C133.942 35.6228 133.665 36.0639 133.713 36.6336C133.722 37.4617 133.859 38.2898 133.932 39.1523H132.924C132.558 38.3429 132.191 37.5718 132.218 36.6336C132.328 36.4676 132.401 36.2741 132.548 36.1464Z" fill="#FF6600"/>
<path fill-rule="evenodd" clip-rule="evenodd" d="M136.885 18.4833C136.876 18.722 136.702 18.9872 136.857 19.1916C137.079 18.943 137.445 18.9519 137.739 18.8419C138.555 18.7672 139.334 19.0255 140.094 19.2102C139.902 18.9057 139.774 18.5658 139.562 18.2908C139.14 18.1798 138.498 18.4745 138.426 17.8477C138.169 17.6277 137.766 17.7849 137.5 17.8026C137.242 17.9863 137.032 18.2161 136.885 18.4833Z" fill="white"/>
<path fill-rule="evenodd" clip-rule="evenodd" d="M108.862 10.5442C108.858 10.5423 108.854 10.5384 108.848 10.5344C108.848 10.5384 108.85 10.5403 108.85 10.5442H108.862Z" fill="white"/>
<path fill-rule="evenodd" clip-rule="evenodd" d="M112.194 18.7171L112.745 18.1847C112.792 18.1847 112.828 18.1935 112.855 18.2289L112.81 19.2495C113.075 19.498 113.403 19.5796 113.752 19.5992C113.781 19.3242 113.991 19.1297 114.111 18.891C114.212 18.6984 114.148 18.4136 114.349 18.277L114.414 18.3399C114.476 18.6444 114.459 18.9843 114.615 19.2495C114.634 19.3969 114.66 19.5796 114.677 19.7092C115.082 19.7279 115.449 19.6179 115.76 19.4696C115.741 19.1208 115.862 18.836 115.915 18.5157C115.999 18.4047 115.814 18.2014 116.043 18.2112C116.172 18.4872 116.401 18.7711 116.53 19.0668C117.061 18.5246 117.283 17.8173 117.409 17.0806C117.254 16.8703 117.016 16.8703 116.831 16.7318C115.273 16.2269 113.275 16.1257 111.771 16.9067C111.67 17.5295 111.799 18.2191 112.194 18.7171Z" fill="white"/>
<path fill-rule="evenodd" clip-rule="evenodd" d="M97.623 35.9686C97.5672 36.6768 97.623 37.3409 97.6681 38.0403C97.815 38.2701 98.0824 38.5373 98.3478 38.554L98.3929 38.0845C98.5026 37.4322 98.1549 36.7397 98.5222 36.1876C98.7788 36.2691 99.0354 36.3988 99.2558 36.5177C99.3655 35.9116 99.2088 35.2024 98.6309 34.834L97.623 35.9686Z" fill="white"/>
<path fill-rule="evenodd" clip-rule="evenodd" d="M99.8876 34.9744C99.5301 36.0511 99.2647 37.3762 99.6956 38.5098C99.9434 38.3428 100.199 38.1866 100.418 37.9577C100.373 37.0923 100.254 36.1709 100.767 35.4519C101.216 35.5904 101.519 36.0226 101.692 36.444C101.996 36.0589 102.096 35.5245 101.978 35.0118C101.996 34.6061 101.538 34.6994 101.318 34.5334C101.39 34.1925 101.38 33.7996 101.739 33.6051L100.64 33.7151C100.356 34.1208 100.044 34.5137 99.8876 34.9744Z" fill="white"/>
<path fill-rule="evenodd" clip-rule="evenodd" d="M102.152 38.1513C102.198 38.2328 102.152 38.3811 102.245 38.3998C102.382 37.6267 103.005 37.1267 103.346 36.445C103.509 36.2181 103.501 35.8939 103.767 35.7201C104.124 35.7201 104.381 35.9774 104.73 36.0049C104.84 36.0884 104.673 36.1621 104.664 36.2534C104.592 36.8802 104.354 37.3969 104.399 38.0413H104.463C104.949 37.5255 105.279 36.9705 105.636 36.3821L105.699 35.8595C105.783 35.2338 105.105 34.8301 104.663 34.5717L105.057 34.0648L104.507 33.8723C103.865 33.9362 103.287 34.2034 102.838 34.7102C102.28 35.7377 102.189 36.9008 102.152 38.1513Z" fill="white"/>
<path fill-rule="evenodd" clip-rule="evenodd" d="M104.619 32.6955C104.829 32.7584 105.022 32.5855 105.231 32.6759C106.076 32.9892 106.956 33.3104 107.589 34.0177L108.341 35.9401L108.718 34.7525L108.47 34.111C108.258 33.6513 107.681 33.6886 107.286 33.67C107.121 33.4853 107.295 33.2741 107.351 33.1002C107.543 32.447 106.745 32.4833 106.425 32.2171C106.443 31.8232 105.966 31.9588 105.7 31.9234L105.609 31.8134C105.554 31.7289 105.417 31.7289 105.342 31.7937C105.326 31.7662 105.288 31.7476 105.307 31.7024L105.106 31.7476C104.82 31.9961 104.628 32.3173 104.619 32.6955Z" fill="white"/>
<path fill-rule="evenodd" clip-rule="evenodd" d="M105.15 30.5806C105.179 30.6985 105.251 30.8183 105.342 30.893C105.756 30.783 106.152 30.4961 106.627 30.672C107.242 31.2142 107.883 31.784 108.627 32.0777L108.893 32.0325C109.057 32.0865 109.24 32.0953 109.35 32.281C109.452 32.5295 109.195 32.6749 109.114 32.8773C109.525 33.1818 109.361 33.723 109.617 34.0904L110.277 33.2093C110.123 32.8223 110.286 32.1612 109.683 32.1238C109.479 32.0227 109.343 31.8213 109.351 31.5914C108.958 31.2329 108.472 31.0767 108.078 30.7083C107.755 30.4519 107.564 30.057 107.152 29.9647C106.867 29.8075 106.555 29.725 106.226 29.6533C105.61 29.559 105.555 30.2948 105.15 30.5806Z" fill="white"/>
<path fill-rule="evenodd" clip-rule="evenodd" d="M106.031 28.7691L106.141 28.9459C106.6 28.9174 107.011 28.7161 107.461 28.7239C107.763 28.9076 108.157 28.8978 108.469 29.055C108.717 29.3958 108.983 29.7799 109.348 30.0098C110.091 30.1198 110.503 30.9223 110.76 31.5088V31.2249C110.869 30.829 110.75 30.3683 110.606 30.0098C110.422 29.8261 110.154 29.7072 109.963 29.5432C109.926 29.4233 109.953 29.3664 109.99 29.2573C109.705 28.9538 109.284 28.7878 108.935 28.5481C108.449 27.8398 107.516 28.0353 106.772 27.8398L106.031 28.7691Z" fill="white"/>
<path fill-rule="evenodd" clip-rule="evenodd" d="M106.016 22.0256C106.097 22.3114 106.196 22.669 106.252 22.9735C106.507 22.4038 107.014 22.1454 107.462 21.6778C107.205 21.503 106.884 21.4195 106.601 21.3655V21.3468C106.399 21.5472 106.087 21.7505 106.016 22.0256Z" fill="white"/>
<path fill-rule="evenodd" clip-rule="evenodd" d="M107.682 25.0511L108.093 24.6287C108.506 24.2043 108.847 23.7161 108.909 23.1749C108.616 23.001 108.231 23.1208 107.948 23.222C107.847 23.8173 107.69 24.4057 107.682 25.0511Z" fill="white"/>
<path fill-rule="evenodd" clip-rule="evenodd" d="M107.982 26.3478C108.615 26.3831 109.23 26.5118 109.744 26.1533L110.258 24.4991C110.091 24.4892 109.926 24.4146 109.771 24.4715C109.432 25.224 108.754 25.9696 107.982 26.3478Z" fill="white"/>
<path fill-rule="evenodd" clip-rule="evenodd" d="M108.17 20.4823C108.582 21.0884 109.271 21.7672 109.975 21.9617C109.894 21.1886 109.234 20.6552 108.894 19.9951L108.875 19.7741C108.61 19.5167 108.289 19.3409 108.013 19.2043C107.969 19.6454 108.089 20.0668 108.17 20.4823Z" fill="white"/>
<path fill-rule="evenodd" clip-rule="evenodd" d="M110.404 26.4205C110.89 26.503 111.413 26.4205 111.862 26.282C112.512 26.1248 112.871 25.4087 113.09 24.8488H112.274L111.396 25.7122C111.048 25.8949 110.718 26.171 110.404 26.4205Z" fill="white"/>
<path fill-rule="evenodd" clip-rule="evenodd" d="M110.305 19.6454C110.443 20.3635 110.746 21.0157 111.159 21.6316L111.268 20.2613L110.305 19.6454Z" fill="white"/>
<path fill-rule="evenodd" clip-rule="evenodd" d="M113.31 23.221C113.366 22.7613 113.174 22.2269 113.12 21.7603C112.845 21.5757 112.461 21.5933 112.176 21.4116C112.194 22.1356 112.761 22.7525 113.31 23.221Z" fill="white"/>
<path fill-rule="evenodd" clip-rule="evenodd" d="M112.477 27.8909C113.053 27.7072 113.613 27.5049 114.146 27.2112C114.485 26.723 114.997 26.2829 115.071 25.7131C114.647 25.832 114.283 25.6935 113.888 25.888C113.65 26.3192 113.502 26.8084 113.045 27.1198C112.971 27.4302 112.632 27.6424 112.477 27.8909Z" fill="white"/>
<path fill-rule="evenodd" clip-rule="evenodd" d="M113.375 29.0216L114.063 29.9224C114.43 30.0413 114.888 30.0059 115.209 29.7947L114.963 28.9774C114.476 29.1591 113.898 29.1061 113.375 29.0216Z" fill="white"/>
<path fill-rule="evenodd" clip-rule="evenodd" d="M114.521 22.5138L114.787 23.726C115.428 23.2034 115.561 22.4402 115.542 21.6317C115.176 22.0541 114.963 22.3115 114.521 22.5138Z" fill="white"/>
<path fill-rule="evenodd" clip-rule="evenodd" d="M116.328 24.6543C116.337 24.8301 116.382 24.9952 116.482 25.1327C117.197 25.391 117.27 26.2623 117.932 26.5934C118.361 26.7879 118.857 26.5482 119.231 26.3724C118.948 26.0512 118.628 25.8301 118.353 25.4912C118.161 25.4087 117.966 25.2889 117.977 25.0502L116.328 24.6543Z" fill="white"/>
<path fill-rule="evenodd" clip-rule="evenodd" d="M116.898 28.9951C117.208 29.3516 117.63 29.5373 118.069 29.6365C117.997 29.5363 118.116 29.6365 118.134 29.5736L117.583 28.3595C117.308 28.3693 117.023 28.4253 116.768 28.4066C116.788 28.609 116.832 28.8104 116.898 28.9951Z" fill="white"/>
<path fill-rule="evenodd" clip-rule="evenodd" d="M117.868 23.3321C117.611 22.7348 117.505 22.0069 117.43 21.3468C117.156 21.6778 116.871 21.89 116.614 22.2279C116.494 22.9077 117.465 23.0737 117.868 23.3321Z" fill="white"/>
<path fill-rule="evenodd" clip-rule="evenodd" d="M118.985 22.7054C119.317 23.1396 120.04 22.9922 120.444 22.8626C120.251 22.5315 119.63 22.337 119.52 21.9814C119.457 21.3468 119.328 20.729 119.125 20.1523C118.805 20.9323 118.417 21.8616 118.985 22.7054Z" fill="white"/>
<path fill-rule="evenodd" clip-rule="evenodd" d="M119.564 24.6543C120.482 25.3252 121.381 26.1072 122.662 25.8213C122.755 25.7584 122.911 25.7653 122.929 25.6474C122.553 25.4087 122.15 25.2231 121.765 25.003L121.326 24.3606H121.124C120.628 24.5246 120.097 24.5914 119.564 24.6543Z" fill="white"/>
<path fill-rule="evenodd" clip-rule="evenodd" d="M119.582 32.11H119.648C120.197 31.669 120.848 31.5206 121.498 31.3379C121.674 31.4028 121.563 31.5963 121.72 31.669C122.114 31.5049 122.591 31.5403 122.994 31.4028C123.48 31.4204 123.874 31.4293 124.268 31.6405C124.582 32.055 125.167 32.0079 125.571 32.2849L125.506 31.6405C124.654 30.6385 123.325 30.5658 122.096 30.5845L122.069 30.4558C121.776 30.4558 121.446 30.5187 121.17 30.6483C120.777 30.667 120.4 30.8595 120.024 30.9784C119.849 31.3281 119.71 31.7534 119.582 32.11Z" fill="white"/>
<path fill-rule="evenodd" clip-rule="evenodd" d="M120.319 20.8124C120.675 21.282 121.207 21.6415 121.812 21.5217C121.502 21.2162 121.142 20.8949 121.125 20.4637C121.217 19.6454 120.319 19.5796 119.879 19.1572C120.026 19.7093 120.006 20.3252 120.319 20.8124Z" fill="white"/>
<path fill-rule="evenodd" clip-rule="evenodd" d="M120.225 33.7367H120.334C120.819 33.4342 121.526 33.665 122.003 33.3428C122.268 33.2043 122.287 33.5727 122.47 33.6739C122.92 33.9479 122.976 34.776 123.608 34.5835C124.367 34.9784 124.176 35.9067 124.203 36.5864L124.91 36.1464C124.845 35.7878 125.048 35.3556 124.818 35.0432C124.643 34.6483 124.166 34.612 123.937 34.2908C124.213 33.8212 123.589 33.5992 123.46 33.2593L123.498 33.2141L124.47 33.3428C124.8 33.5442 124.92 33.9126 125.021 34.2534C125.78 34.3821 125.963 35.2456 126.23 35.7967C126.386 35.4204 126.45 35.0147 126.606 34.6473C126.616 34.3438 126.212 34.3438 126.01 34.2063C125.956 33.7367 125.745 33.2967 125.332 33.0128C124.489 32.7986 123.747 32.332 122.821 32.332L122.051 32.5698C121.628 32.6719 121.179 32.5432 120.858 32.836C120.379 32.8733 120.344 33.3978 120.225 33.7367Z" fill="white"/>
<path fill-rule="evenodd" clip-rule="evenodd" d="M120.711 29.95L120.886 30.0334C121.263 29.8586 121.638 29.6562 122.033 29.5089C122.645 29.335 123.122 30.0334 123.638 29.5914C123.829 29.4549 123.995 29.6562 124.14 29.7672C124.364 30.171 124.875 30.1435 125.261 30.2525C125.068 29.7299 124.829 29.0128 124.16 28.9293C123.894 28.8105 123.582 28.8203 123.326 28.6631C122.62 27.8822 122.162 29.3075 121.389 28.9588C121.116 29.2604 120.776 29.5472 120.711 29.95Z" fill="white"/>
<path fill-rule="evenodd" clip-rule="evenodd" d="M120.887 34.4273C121.18 34.6758 121.482 35.0992 121.942 35.0432C122.509 35.3094 122.271 36.0638 122.581 36.4597L122.911 36.165L122.884 36.1454L122.93 36.1002L122.95 36.1257C123.041 35.8517 122.912 35.3644 122.756 35.0413C122.546 34.8949 122.299 35.0511 122.096 34.9126C122.069 34.6169 121.886 34.4715 121.675 34.2888C121.528 34.1768 121.335 34.3242 121.17 34.3143L120.887 34.4273Z" fill="white"/>
<path fill-rule="evenodd" clip-rule="evenodd" d="M122.031 23.2211C122.333 23.726 122.92 24.0394 123.388 24.3881C123.774 24.5629 124.276 24.6091 124.69 24.5158C124.295 24.1946 123.936 23.8262 123.608 23.4411C123.479 23.2565 123.452 23.0256 123.278 22.8616C122.847 22.9451 122.36 22.9352 122.031 23.2211Z" fill="white"/>
<path fill-rule="evenodd" clip-rule="evenodd" d="M122.537 19.9313C122.958 20.4549 123.61 20.2437 124.205 20.2623V20.1975L123.288 19.4254C123.032 19.5069 122.757 19.7368 122.537 19.9313Z" fill="white"/>
<path fill-rule="evenodd" clip-rule="evenodd" d="M105.658 11.2614L106.189 12.9166C106.179 11.9785 106.612 11.1956 106.52 10.2408L106.913 9.65137L106.078 9.90972C105.859 10.3321 105.676 10.7555 105.658 11.2614Z" fill="white"/>
<path fill-rule="evenodd" clip-rule="evenodd" d="M106.016 8.39306L106.739 7.97066V6.89404C106.435 7.07774 106.271 7.39208 106.033 7.63766L106.016 8.39306Z" fill="white"/>
<path fill-rule="evenodd" clip-rule="evenodd" d="M120.889 10.0659C120.714 10.2948 120.449 10.3518 120.228 10.396C120.614 9.68969 120.798 8.70541 120.495 7.90483C120.696 7.83213 120.916 7.79481 121.108 7.68479L121.09 7.66514L121.594 7.22408C122.263 6.76436 122.006 5.89206 122.253 5.23882C121.924 4.72507 121.823 4.09933 121.346 3.66711L121.374 3.64845C120.997 3.17006 120.319 3.22605 119.806 2.98735C119.126 2.75749 118.604 3.22605 118.117 3.53843C117.906 3.57576 118.036 3.85081 117.806 3.84098C117.678 4.18087 117.521 4.54923 117.429 4.92644C116.522 4.79776 115.541 4.89894 114.817 5.41367C114.43 5.12782 113.965 5.07379 113.515 4.94511C113.185 4.87929 112.81 4.99914 112.571 4.81544C112.224 4.42153 112.148 3.70346 111.551 3.60326C111.341 3.52861 111.297 3.29875 111.297 3.09639C110.902 3.03057 110.552 2.84786 110.169 2.76535C109.582 2.49816 109.115 2.92252 108.675 3.20641C108.481 3.28794 108.261 3.31643 108.078 3.42645C107.749 3.94216 107.438 4.46574 107.225 5.03548C107.29 5.50405 107.491 5.91662 107.73 6.31347C107.941 6.91072 108.601 7.38027 109.16 7.61995C108.894 8.52958 108.894 9.61307 109.16 10.5325C109.16 10.5325 109.145 10.5453 109.145 10.5423C109.145 10.5453 109.116 10.5698 109.116 10.5698C109.03 10.5698 108.934 10.5865 108.862 10.5423H108.85C108.982 11.4205 109.393 12.1907 110.059 12.8498C110.298 12.9323 110.243 13.2182 110.342 13.4009C110.407 13.4844 110.417 13.6582 110.389 13.7319C108.958 13.6867 107.683 14.0453 106.537 14.6975C106.244 14.8449 106.372 15.2486 106.345 15.5345C107.152 15.0001 108.022 14.6062 108.985 14.4303C109.398 14.4048 109.864 14.3017 110.26 14.4117L110.305 15.2044C109.216 15.7751 108.022 16.1052 107.089 17.0433C107.106 17.3272 107.051 17.6573 107.134 17.8969L107.969 17.2172C108.776 16.6003 109.619 16.0767 110.544 15.7368C110.793 16.0305 111.05 16.3449 111.38 16.5276C111.938 16.1681 112.545 15.9019 113.187 15.7368C113.526 15.5345 114.068 15.7182 114.287 15.3144L114.442 14.4775C114.416 14.4588 114.397 14.4215 114.351 14.4303C113.921 14.1818 113.635 13.7506 113.673 13.2457C113.526 13.3184 113.362 13.3655 113.187 13.3724C113.042 13.337 112.903 13.2997 112.839 13.1514C112.83 12.9687 112.737 12.6926 112.922 12.5561C113.517 12.1877 114.288 12.1691 115.039 12.2241C115.598 12.2987 116.405 12.2702 116.599 12.9323C116.572 13.1258 116.589 13.338 116.396 13.4657C116.195 13.5757 115.966 13.4559 115.782 13.3724C115.636 13.8243 115.388 14.3292 114.885 14.4765L114.947 15.0089C115.01 15.2486 115.03 15.6435 115.406 15.56C116.277 15.7732 117.048 16.2231 117.808 16.7093C118.066 16.4529 118.267 16.1582 118.449 15.8911C119.808 16.3527 120.98 17.3724 122.101 18.3203L122.145 17.5472C121.081 16.5993 119.899 15.9294 118.669 15.4058C118.717 15.1573 118.771 14.9176 118.781 14.6504C120.238 14.7339 121.623 15.1848 122.823 15.8911L122.804 15.23C121.539 14.5492 120.155 14.0993 118.643 14.0816C118.586 13.9991 118.569 13.8793 118.578 13.7968C119.312 13.6779 119.833 12.9156 120.009 12.2516C120.386 11.8203 120.927 11.3508 120.799 10.7084C120.814 10.6543 120.833 10.5983 120.852 10.5423C120.9 10.3842 120.942 10.2152 120.889 10.0659Z" fill="white"/>
<path fill-rule="evenodd" clip-rule="evenodd" d="M122.162 12.4293L122.913 12.1896L122.998 11.7682C123.208 11.1513 122.759 10.6916 122.538 10.2043L122.162 12.4293Z" fill="white"/>
<path fill-rule="evenodd" clip-rule="evenodd" d="M124.06 15.3419C124.417 15.7378 124.766 16.3714 125.399 16.1788C125.352 15.9117 125.205 15.6906 125.115 15.4519C124.95 15.2594 124.893 14.7073 124.564 14.9009C124.316 14.7358 124.254 14.4598 124.096 14.2388C124.025 14.5796 124.07 15.002 124.06 15.3419Z" fill="white"/>
<path fill-rule="evenodd" clip-rule="evenodd" d="M124.188 18.0354C124.326 18.228 124.364 18.4775 124.499 18.6523C124.747 18.8164 125.114 18.7889 125.418 18.7624C125.691 18.6975 125.866 19.0001 126.122 18.8262C125.802 18.6239 125.61 18.2565 125.308 17.9883C124.95 17.7054 124.565 17.9539 124.188 18.0354Z" fill="white"/>
<path fill-rule="evenodd" clip-rule="evenodd" d="M124.674 22.3114C125.307 22.6876 126.11 23.056 126.955 22.9273C127.046 22.8821 127.202 22.891 127.22 22.7809C126.697 22.5963 126.148 22.0727 125.6 21.9627C125.297 21.4941 124.903 22.0825 124.518 22.0452C124.526 22.1542 124.636 22.2367 124.674 22.3114Z" fill="white"/>
<path fill-rule="evenodd" clip-rule="evenodd" d="M126.578 30.4283L126.716 30.7221C126.855 31.6788 127.458 32.56 127.129 33.6081C127.404 33.8026 127.486 34.1238 127.661 34.3812H127.707C127.917 33.5826 127.771 32.7545 127.661 31.9539C127.744 31.2279 127.009 30.8056 126.578 30.4283Z" fill="white"/>
<path fill-rule="evenodd" clip-rule="evenodd" d="M126.736 21.0148C127.212 21.3832 127.973 21.4185 128.523 21.2358C128.175 21.0433 127.79 20.8301 127.505 20.5737L126.736 21.0148Z" fill="white"/>
<path fill-rule="evenodd" clip-rule="evenodd" d="M129 23.836C128.955 24.223 129.211 24.5442 129.486 24.7387C129.587 24.5099 129.751 24.3144 129.769 24.058C129.687 23.6631 129.467 23.3036 129.109 23.0364C129.046 23.2937 128.972 23.5423 129 23.836Z" fill="white"/>
<path fill-rule="evenodd" clip-rule="evenodd" d="M129.028 28.0295C128.962 28.4608 129.439 28.5167 129.64 28.7555C129.805 28.9578 129.53 29.0963 129.53 29.2889C129.879 29.7388 130.082 30.2515 130.082 30.8507C130.218 30.2908 130.428 29.7574 130.503 29.1788C130.466 28.7731 129.825 28.8576 129.925 28.4067C130.109 27.947 129.889 27.4971 129.769 27.0816C129.734 27.0187 129.65 26.8891 129.578 26.9274C129.412 27.3026 129 27.5698 129.028 28.0295Z" fill="white"/>
<path fill-rule="evenodd" clip-rule="evenodd" d="M130.283 25.841L130.759 26.7692C130.97 26.7417 131.107 26.5394 131.272 26.392C131.4 26.006 131.06 25.7575 130.961 25.4441C130.878 25.2231 130.961 24.9303 130.804 24.7378C130.685 24.6632 130.549 24.5433 130.412 24.5806L130.283 25.841Z" fill="white"/>
<path fill-rule="evenodd" clip-rule="evenodd" d="M130.896 23.3949C131.274 23.6248 131.704 23.9548 131.907 24.3605C132.227 25.2986 132.74 26.1424 133.116 27.053C133.254 27.6876 133.364 28.2544 133.537 28.8782C133.603 29.0442 133.565 29.3654 133.823 29.3379C133.895 28.6395 134.033 27.9676 134.043 27.2416C133.813 26.9381 133.511 26.8104 133.226 26.6267V26.5619C133.264 26.4067 133.393 26.221 133.584 26.2505C133.665 26.1582 133.914 26.0668 133.804 25.9008C133.327 25.4234 133.355 24.6012 132.595 24.4529C132.329 24.3428 132.265 24.0658 132.238 23.8104C131.879 23.5049 131.348 23.4047 130.896 23.3949Z" fill="white"/>
<path fill-rule="evenodd" clip-rule="evenodd" d="M131.339 28.3782C131.805 28.8094 131.641 29.4351 131.604 30.0147C131.532 30.3644 131.97 30.1601 132.108 30.3458C132.394 30.7681 132.228 31.385 132.128 31.8438C132.376 31.4656 132.659 31.1355 132.851 30.721C132.843 30.5658 133.044 30.4911 133.035 30.2976C133.116 30.0314 132.806 30.1513 132.677 30.1237C132.567 30.0962 132.448 30.0226 132.486 29.8752C132.722 29.4155 132.503 28.8644 132.411 28.4047C132.301 28.0275 132.458 27.5216 132.282 27.1906C131.988 27.5972 131.116 27.6886 131.339 28.3782Z" fill="white"/>
<path fill-rule="evenodd" clip-rule="evenodd" d="M132.191 21.8517C133.008 22.6798 133.604 23.5108 134.483 24.3114C134.502 23.9519 134.456 23.6218 134.438 23.2721C134.31 23.0236 134.071 22.8409 133.868 22.6552C133.218 22.5924 132.879 21.7132 132.191 21.8517Z" fill="white"/>
<path fill-rule="evenodd" clip-rule="evenodd" d="M134.326 26.2319C134.346 26.3164 134.383 26.3891 134.42 26.4706C134.777 27.06 135.117 27.6671 135.364 28.3007C135.29 27.6199 135.748 26.7751 135.142 26.2506C135.061 26.0286 134.788 26.1032 134.611 26.1209L134.326 26.2319Z" fill="white"/>
<path fill-rule="evenodd" clip-rule="evenodd" d="M136.527 32.9469C136.784 33.0668 137.114 32.8556 137.362 32.7082C137.591 32.6532 137.783 32.7829 137.959 32.9018C138.031 33.0481 137.959 33.1866 137.986 33.3251C138.536 33.4803 139.076 33.6837 139.562 34.0049L139.716 33.8487C139.754 33.4538 139.443 33.168 139.148 32.9469C138.957 32.8369 138.671 32.9018 138.535 32.7269C138.627 32.5796 138.627 32.3585 138.617 32.1935C138.314 32.1935 138.121 32.1002 137.875 31.9548C137.719 31.9086 137.581 31.779 137.452 31.9548C136.995 32.2662 136.967 32.7269 136.527 32.9469Z" fill="white"/>
<path fill-rule="evenodd" clip-rule="evenodd" d="M137.171 21.3792C137.399 21.3133 137.638 21.2495 137.83 21.0835C138.445 20.5226 139.333 20.8998 140.049 20.891C139.911 20.6424 139.717 20.3939 139.544 20.1827C139.286 20.0815 139.048 19.9627 138.756 19.9627C138.132 19.5943 137.711 20.2112 137.233 20.5137C137.104 20.7623 137.041 21.1297 137.171 21.3792Z" fill="white"/>
<path fill-rule="evenodd" clip-rule="evenodd" d="M137.187 23.2722C137.187 23.2437 137.187 23.2152 137.214 23.2083C137.299 23.281 137.205 23.4578 137.344 23.4932C137.582 23.3733 137.802 23.2083 138.022 23.0521C138.636 23.0521 139.003 22.4539 139.607 22.4539C140.617 22.6386 141.616 22.8419 142.495 23.336C142.433 22.7407 141.917 22.1965 141.396 21.9303C141.101 21.8291 140.872 21.9853 140.662 22.1513C140.049 22.5384 140.369 21.5904 139.939 21.5718C139.379 21.7456 138.801 21.9401 138.177 21.8832C137.811 22.0227 137.553 22.3616 137.141 22.3242C137.124 22.6297 137.079 22.9981 137.187 23.2722Z" fill="white"/>
<path fill-rule="evenodd" clip-rule="evenodd" d="M137.609 25.3213C137.801 25.5256 138.121 25.4883 138.398 25.5256L139.195 25.2113C139.204 25.0669 138.957 25.0276 139.012 24.8625C139.232 24.614 139.533 24.7898 139.809 24.6887C140.193 24.6327 140.588 24.2486 140.973 24.5315C140.962 24.5786 140.99 24.6415 140.954 24.6887C140.835 24.9735 141.036 25.1484 141.257 25.2584C141.706 25.3409 142.127 25.7555 142.576 25.5698C142.531 25.1926 142.431 24.8458 142.339 24.4853C141.963 24.4215 141.696 24.1091 141.349 23.9794C141.194 24.1268 140.99 24.2368 140.798 24.2181C140.092 24.0521 139.247 23.6111 138.533 24.062C138.276 24.3753 137.818 24.283 137.469 24.4205C137.489 24.7329 137.526 25.0374 137.609 25.3213Z" fill="white"/>
<path fill-rule="evenodd" clip-rule="evenodd" d="M137.912 30.7868C137.857 30.943 137.702 31.1994 137.987 31.2741C138.572 31.2917 139.325 30.9882 139.783 31.4479C139.939 31.5678 139.864 31.8163 139.855 31.9725L140.624 32.6159C140.698 32.2279 140.837 31.8792 140.847 31.4656C140.782 31.1709 140.635 30.887 140.379 30.6945C139.873 30.6945 139.581 30.1022 139.039 30.1749C138.756 30.112 138.508 30.3644 138.223 30.3644C138.096 30.4921 138.022 30.6493 137.912 30.7868Z" fill="white"/>
<path fill-rule="evenodd" clip-rule="evenodd" d="M138.132 26.4519C138.25 26.7005 138.389 27.1052 138.618 27.1317C139.158 26.895 139.948 26.7466 140.553 27.005C140.753 27.0403 140.753 27.2702 140.709 27.4175C141.02 27.6012 141.396 27.7486 141.726 27.95L141.634 27.3979C141.616 26.8006 140.865 26.7466 140.818 26.1572C140.204 25.9559 139.516 25.89 138.865 26.0472C138.655 26.2397 138.351 26.2142 138.096 26.2682C138.078 26.3419 138.122 26.3891 138.132 26.4519Z" fill="white"/>
<path fill-rule="evenodd" clip-rule="evenodd" d="M138.288 29.4313C138.645 29.3291 138.875 28.9352 139.26 28.8979C139.846 28.9077 140.369 29.1474 140.736 29.6543C140.956 29.7987 140.91 30.1759 141.195 30.1759C141.11 29.726 141.257 29.3134 141.239 28.8517C140.856 28.2093 139.902 28.7063 139.544 27.9509L138.866 27.9971C138.38 28.1179 138.509 28.6877 138.445 29.0747C138.389 29.1926 138.28 29.2849 138.288 29.4313Z" fill="white"/>
<path fill-rule="evenodd" clip-rule="evenodd" d="M141.654 33.4529C141.937 34.0226 142.562 34.4549 142.625 35.1071C142.771 34.9332 142.873 34.7309 142.973 34.5374C142.963 34.3537 142.752 34.3537 142.671 34.2063C142.587 33.9676 142.715 33.7564 142.752 33.5442C142.633 33.2044 142.348 32.8831 142.028 32.6798L141.654 33.4529Z" fill="white"/>
<path fill-rule="evenodd" clip-rule="evenodd" d="M142.781 32L143.44 32.9018C143.724 32.4519 143.724 31.7888 143.614 31.2466C143.551 31.1444 143.431 30.9794 143.267 31.0541C143.019 31.3105 142.982 31.7063 142.781 32Z" fill="white"/>
<path fill-rule="evenodd" clip-rule="evenodd" d="M140.094 6.83698C140.332 6.95682 140.561 7.06684 140.847 7.08551C141.038 6.98433 141.287 6.90967 141.525 6.97549C141.864 7.19651 142.276 6.92932 142.671 6.94798C142.322 6.61694 141.926 6.4136 141.525 6.22107C141.011 6.33011 140.599 6.69847 140.094 6.83698Z" fill="white"/>
<path fill-rule="evenodd" clip-rule="evenodd" d="M143.68 7.69952C144.166 7.74569 144.515 8.17791 144.843 8.53646C145.256 8.59933 145.567 8.895 145.814 9.19756L145.66 8.71131C145.55 8.2231 145.246 7.84589 144.935 7.45984C144.496 7.48833 144.064 7.52664 143.68 7.69952Z" fill="white"/>
<path fill-rule="evenodd" clip-rule="evenodd" d="M109.463 3.66809L109.73 3.69658C110.443 4.05512 111.598 4.23882 111.665 5.27712C110.939 5.56298 110.242 5.94805 109.664 6.53645C109.225 6.08655 108.335 6.3341 108.188 5.54431C108.327 4.79775 108.591 3.85964 109.463 3.66809Z" fill="#FF6600"/>
<path fill-rule="evenodd" clip-rule="evenodd" d="M110.152 8.33012C110.987 8.25547 111.793 8.37433 112.655 8.30164C112.865 8.39299 113.084 8.5757 113.186 8.78788C113.158 9.781 112.856 10.7289 112.811 11.7486C112.435 11.9038 112.067 12.2181 111.975 12.6307C111.636 12.7319 111.332 12.9333 111.002 13.0894C110.858 12.778 110.884 12.3085 111.141 12.0502C111.499 11.5452 112.426 11.6631 112.352 10.8635C112.59 10.4784 112.362 9.9814 112.369 9.57766C112.278 9.27315 112.186 9.67884 112.04 9.66902C111.747 9.73189 111.445 9.75055 111.187 9.6032C110.994 9.40085 110.758 9.23484 110.701 8.96077C110.444 8.83209 110.143 8.63071 110.014 8.36352L110.152 8.33012Z" fill="#FF6600"/>
<path fill-rule="evenodd" clip-rule="evenodd" d="M111.159 14.3213C111.551 14.3783 111.965 14.2015 112.304 14.396C112.232 14.5256 112.039 14.5797 111.883 14.617L111.268 14.9009C111.039 14.8468 111.168 14.4785 111.159 14.3213Z" fill="#FF6600"/>
<path fill-rule="evenodd" clip-rule="evenodd" d="M112.764 6.64645C113.157 6.51776 113.58 6.25254 114.001 6.37926C113.699 6.68378 113.461 7.07768 113.232 7.44605L111.977 7.41855C112.115 7.08652 112.462 6.81246 112.764 6.64645Z" fill="#FF6600"/>
<path fill-rule="evenodd" clip-rule="evenodd" d="M116.441 6.34391C116.963 6.25255 116.935 6.93231 117.412 6.95785C117.496 7.06787 117.615 7.16905 117.568 7.33506C117.292 7.44508 116.89 7.39204 116.578 7.46375C116.165 7.23389 116.432 6.51679 115.781 6.56296C115.745 6.50697 115.672 6.39695 115.762 6.36061C115.964 6.28792 116.231 6.31542 116.441 6.34391Z" fill="#FF6600"/>
<path fill-rule="evenodd" clip-rule="evenodd" d="M116.11 8.80552C116.339 8.48332 116.688 8.45679 117.018 8.39294L119.393 8.43715C119.494 8.53047 119.301 8.61298 119.301 8.723C119.155 8.86151 118.943 8.89884 118.815 9.02654C118.503 9.03538 118.531 9.40375 118.311 9.56092C117.971 9.9008 117.476 9.74363 117.082 9.6896C116.944 9.58744 116.789 9.44992 116.723 9.29373L116.613 9.40375C116.751 9.91946 116.715 10.4892 116.817 11.0128L117.385 11.39C117.394 12.2348 118.385 12.0049 118.815 12.4745C118.714 12.779 118.512 13.0354 118.293 13.2927C117.945 12.9529 117.549 12.7328 117.129 12.5845C117.091 12.0904 116.551 11.7947 116.25 11.5472C116.166 10.6454 116.148 9.72595 116.002 8.85267L116.11 8.80552Z" fill="#FF6600"/>
<path fill-rule="evenodd" clip-rule="evenodd" d="M116.973 14.4785H118.074L117.936 15.0571L116.834 14.5885C116.809 14.4972 116.909 14.4697 116.973 14.4785Z" fill="#FF6600"/>
<path fill-rule="evenodd" clip-rule="evenodd" d="M118.953 4.06389L119.769 3.80652C120.237 4.02656 120.676 4.30161 121.107 4.61496C121.446 5.23972 121.392 6.08549 121.235 6.78392C120.987 7.05897 120.447 6.78392 120.246 7.22498H120.208C119.906 6.36152 119.044 5.58746 118.246 5.19453C118.374 4.75249 118.513 4.32027 118.953 4.06389Z" fill="#FF6600"/>
</g>
<defs>
<clipPath id="clip0_6043_1392">
<rect width="157" height="40" fill="white"/>
</clipPath>
</defs>
</svg>
