<svg width="106" height="46" viewBox="0 0 106 46" fill="none" xmlns="http://www.w3.org/2000/svg">
<path d="M0 35.1352H1.76452V38.7835C2.32596 38.0697 3.12802 37.8318 3.76967 37.8318C5.61439 37.8318 6.41645 39.3386 6.41645 40.7662V44.9697H4.65193V41.0042C4.65193 40.1317 4.41131 39.418 3.36864 39.418C2.24576 39.418 1.76452 40.2904 1.76452 41.48V45.049H0V35.1352ZM12.9131 40.8455C12.8329 39.8145 12.1913 39.3386 11.309 39.3386C10.2663 39.3386 9.86529 39.9731 9.70488 40.8455H12.9131ZM7.86015 41.5593C7.86015 39.7352 8.90283 37.9111 11.309 37.9111C13.7954 37.9111 14.5974 39.8938 14.5974 41.4007C14.5974 41.7179 14.5974 41.9559 14.5172 42.0352H9.70488C9.86529 42.9869 10.3465 43.5421 11.4694 43.5421C12.1111 43.5421 12.6725 43.3835 13.1537 42.8283L14.3568 43.8593C13.5548 44.7317 12.6725 45.1283 11.4694 45.1283C8.98303 45.1283 7.86015 43.3835 7.86015 41.5593ZM20.292 42.0352H18.5275C17.7254 42.0352 17.4046 42.4317 17.4046 42.9076C17.4046 43.3835 17.8057 43.7007 18.4473 43.7007C19.4098 43.7007 20.2118 42.9076 20.292 42.0352ZM15.6401 42.8283C15.6401 41.3214 16.8432 40.8455 18.4473 40.8455H20.292C20.292 39.9731 19.8108 39.3386 18.9285 39.3386C18.1265 39.3386 17.565 39.8145 17.2442 40.2904L15.9609 39.3386C16.6026 38.3869 17.565 37.8318 18.9285 37.8318C20.8535 37.8318 21.9763 39.0214 21.9763 40.6869V44.8903H20.5326L20.4524 43.8593C19.8108 44.7317 19.0889 44.9697 18.2869 44.9697C16.6828 45.1283 15.6401 44.3352 15.6401 42.8283ZM23.6607 43.6214V35.1352H25.4252V43.1455C25.4252 43.4628 25.6658 43.6214 25.9866 43.6214C26.0668 43.6214 26.3075 43.6214 26.4679 43.5421V44.9697C26.147 45.049 25.5856 45.1283 25.1846 45.1283C24.3023 45.1283 23.6607 44.811 23.6607 43.6214ZM28.2324 43.0662V39.418H27.1095V37.9904H28.3126V36.2456L29.9969 35.0559V37.9904H31.7614V39.418H29.9969V42.749C29.9969 43.3835 30.3177 43.6214 30.799 43.6214C31.1198 43.6214 31.5208 43.4628 31.7614 43.3835V44.8903C31.5208 44.9697 30.9594 45.1283 30.4781 45.1283C29.0344 45.1283 28.2324 44.3352 28.2324 43.0662ZM33.2051 35.1352H34.9697V38.7835C35.5311 38.0697 36.3332 37.8318 36.9748 37.8318C38.8195 37.8318 39.6216 39.3386 39.6216 40.7662V44.9697H37.8571V41.0042C37.8571 40.1317 37.6164 39.418 36.5738 39.418C35.4509 39.418 34.9697 40.2904 34.9697 41.48V45.049H33.2051V35.1352ZM44.9152 44.9697H46.5995V37.9904H44.9152V44.9697ZM44.835 36.7214H46.5995V35.1352H44.835V36.7214Z" fill="#252525"/>
<path d="M48.2838 37.9895H49.9681V38.7826C50.5296 38.0688 51.3316 37.8308 52.0535 37.8308C53.8982 37.8308 54.62 39.3377 54.62 40.7653V44.9687H52.9357V41.0032C52.9357 40.0515 52.4545 39.417 51.5722 39.417C50.6098 39.417 49.9681 39.9722 49.9681 41.1619V44.9687H48.2838V37.9895ZM55.9033 43.1446L57.2668 42.5101C57.4272 42.986 57.8283 43.6205 58.7907 43.6205C59.5928 43.6205 59.9136 43.1446 59.9136 42.8274C59.9136 41.6377 56.3846 42.4308 56.3846 39.9722C56.3846 38.4653 57.6679 37.8308 59.0314 37.8308C60.2344 37.8308 61.1969 38.386 61.6781 39.3377L60.3146 40.0515C60.074 39.655 59.673 39.1791 58.9512 39.1791C58.3897 39.1791 58.0689 39.417 58.0689 39.8136C58.0689 40.8446 61.6781 40.2101 61.6781 42.8274C61.6781 44.4136 60.2344 45.1274 58.9512 45.1274C57.347 45.1274 56.2242 44.255 55.9033 43.1446ZM62.801 41.717V37.9895H64.5655V41.717C64.5655 42.8274 64.8062 43.5412 65.8488 43.5412C66.6509 43.5412 67.4529 43.1446 67.4529 41.0826V37.9102H69.2175V44.8894H67.4529V44.0963C66.9717 44.7308 66.1697 45.0481 65.3676 45.0481C63.6031 45.1274 62.801 43.7791 62.801 41.717ZM70.9018 37.9895H72.5861V39.1791C72.9069 38.3067 73.709 37.8308 74.511 37.8308C74.9923 37.8308 75.4735 37.9895 75.7943 38.3067L74.9923 39.7343C74.7517 39.5757 74.511 39.4964 74.1902 39.4964C73.3882 39.4964 72.5059 40.2101 72.5059 42.0343V44.9687H70.8216L70.9018 37.9895ZM81.0077 42.0343H79.2432C78.4411 42.0343 78.1203 42.4308 78.1203 42.9067C78.1203 43.3825 78.5213 43.6998 79.163 43.6998C80.1254 43.6998 80.9275 42.9067 81.0077 42.0343ZM76.3558 42.8274C76.3558 41.3205 77.5589 40.8446 79.163 40.8446H81.0077C81.0077 39.9722 80.5265 39.3377 79.6442 39.3377C78.8422 39.3377 78.2807 39.8136 77.9599 40.2895L76.6766 39.3377C77.3182 38.386 78.2807 37.8308 79.6442 37.8308C81.5691 37.8308 82.692 39.0205 82.692 40.686V44.8894H81.2483L81.1681 43.8584C80.5265 44.7308 79.8046 44.9687 79.0026 44.9687C77.4787 45.1274 76.3558 44.3343 76.3558 42.8274ZM84.1357 37.9895H85.82V38.7826C86.3815 38.0688 87.1835 37.8308 87.9054 37.8308C89.7501 37.8308 90.472 39.3377 90.472 40.7653V44.9687H88.7877V41.0032C88.7877 40.0515 88.3064 39.417 87.4242 39.417C86.4617 39.417 85.82 39.9722 85.82 41.1619V44.9687H84.1357V37.9895ZM91.9157 41.4791C91.9157 39.655 93.0386 37.8308 95.2843 37.8308C96.6478 37.8308 97.7707 38.4653 98.3321 39.8929L96.728 40.5274C96.5676 39.8929 96.0062 39.417 95.2843 39.417C94.0812 39.417 93.6 40.4481 93.6 41.5584C93.6 42.5894 94.0812 43.6205 95.2843 43.6205C96.0062 43.6205 96.4874 43.1446 96.728 42.5101L98.3321 43.0653C97.8509 44.3343 96.728 45.1274 95.3645 45.1274C93.0386 45.1274 91.9157 43.3825 91.9157 41.4791ZM104.187 40.8446C104.107 39.8136 103.465 39.3377 102.583 39.3377C101.54 39.3377 101.139 39.9722 100.979 40.8446H104.187ZM99.1342 41.5584C99.1342 39.7343 100.177 37.9102 102.583 37.9102C105.069 37.9102 105.871 39.8929 105.871 41.3998C105.871 41.717 105.871 41.955 105.791 42.0343H100.979C101.139 42.986 101.621 43.5412 102.743 43.5412C103.385 43.5412 103.947 43.3825 104.428 42.8274L105.631 43.8584C104.829 44.7308 103.947 45.1274 102.743 45.1274C100.337 45.1274 99.1342 43.3825 99.1342 41.5584ZM0.0802056 6.58273C0.0802056 2.29999 3.20823 0 6.97789 0C8.42159 0 9.78509 0.39655 10.9882 0.872409L9.22365 5.23446C8.74242 4.91722 8.10077 4.67929 7.45913 4.67929C6.33625 4.67929 5.45398 5.39308 5.45398 7.05859V9.43788H10.5871V13.8792H5.45398V31.3274H0L0.0802056 6.58273ZM44.1131 21.8102H38.6591C36.1727 21.8102 35.0499 23.0792 35.0499 24.4275C35.0499 25.855 36.253 26.8861 38.3383 26.8861C41.3861 26.8861 44.0329 24.5068 44.1131 21.8102ZM29.5157 24.2688C29.5157 19.5102 33.3655 17.924 38.3383 17.924H44.1131C44.1131 15.1482 42.5892 13.3241 39.782 13.3241C37.2154 13.3241 35.5311 14.831 34.5686 16.4172L30.3979 13.4827C32.5635 10.6275 35.3707 8.72409 39.7018 8.72409C45.7172 8.72409 49.2463 12.4517 49.2463 17.7654V31.2481H44.4339V27.9171C42.509 30.693 40.183 31.4861 37.5362 31.4861C33.0447 31.4067 29.5157 28.8688 29.5157 24.2688ZM52.9357 9.43788H58.3095V11.9758C60.074 9.83443 62.7208 8.96202 64.8864 8.96202C70.6612 8.96202 72.9069 13.562 72.9069 18.162V31.3274H67.5332V18.7965C67.5332 15.9413 66.0895 13.8792 63.2823 13.8792C60.2344 13.8792 58.3095 15.4654 58.3095 19.2723V31.2481H52.9357V9.43788Z" fill="#252525"/>
<path d="M76.6738 9.43933H82.1278V18.4807L90.4692 9.43933H97.4471L89.1859 17.8462L98.4095 31.2496H91.9931L85.4964 21.1772L82.1278 24.9048V31.2496H76.6738V9.43933ZM100.495 25.9358H105.869V31.2496H100.495V25.9358Z" fill="#252525"/>
<path d="M14.0332 9.51773H19.407V13.166C20.3695 10.5488 22.8558 9.04187 25.3422 9.04187C26.7859 9.04187 28.3098 9.51773 29.4327 10.6281L26.9463 14.9901C26.2245 14.5143 25.4224 14.2763 24.5401 14.2763C22.0538 14.2763 19.407 16.5763 19.407 22.128V31.4073H14.0332V9.51773Z" fill="#252525"/>
</svg>
