<svg width="34" height="34" viewBox="0 0 34 34" fill="none" xmlns="http://www.w3.org/2000/svg">
<g clip-path="url(#clip0_0_316)">
<mask id="mask0_0_316" style="mask-type:luminance" maskUnits="userSpaceOnUse" x="0" y="0" width="34" height="34">
<path d="M0 0H33.8611V33.8611H0V0Z" fill="white"/>
</mask>
<g mask="url(#mask0_0_316)">
<path d="M5.25867 6.2114H3.81092L4.00761 4.60791H5.53359C6.21432 4.60791 6.55798 4.90039 6.49802 5.37566V5.3932C6.42929 5.94525 5.93976 6.2114 5.25867 6.2114ZM6.52215 7.93443V7.91615C6.58796 7.40907 6.21725 7.10746 5.3815 7.10746H3.69978L3.49688 8.76213H5.25538C5.97852 8.76213 6.45342 8.47843 6.52215 7.9348V7.93443ZM15.6239 8.89301C16.3405 8.89301 16.9949 8.33183 17.1053 7.43576V7.41748C17.2157 6.54006 16.6903 5.96024 15.9855 5.96024C15.2806 5.96024 14.5853 6.54518 14.4803 7.41748V7.43576C14.3729 8.30441 14.9191 8.89264 15.6272 8.89264H15.6235L15.6239 8.89301ZM20.8921 8.89301C21.5904 8.89301 22.2835 8.30806 22.3874 7.43576V7.41748C22.4985 6.54006 21.9486 5.96024 21.2504 5.96024C20.5514 5.96024 19.8735 6.51228 19.7598 7.41748V7.43576C19.6491 8.31318 20.1803 8.89264 20.8884 8.89264H20.8914L20.8921 8.89301ZM12.6703 13.8384L12.557 14.7761H20.9601C22.716 14.7761 23.702 13.8354 24.212 13.1638L25.2455 15.0657C25.291 15.1485 25.3602 15.2158 25.4443 15.2588C25.5284 15.3018 25.6234 15.3186 25.7172 15.3069C25.8112 15.2943 25.8994 15.2537 25.9702 15.1905C26.041 15.1273 26.0913 15.0444 26.1146 14.9523L28.2288 5.69738L29.217 16.9108C29.2288 17.0479 29.2914 17.1756 29.3925 17.2689C29.4936 17.3622 29.6259 17.4145 29.7635 17.4153C29.9785 17.4153 30.1668 17.2899 30.2563 17.1108L31.8452 13.8139C32.1439 14.2771 32.61 14.7754 33.3149 14.7754H33.8611V33.8578H0V0H33.8611V13.8384H33.3145C32.8904 13.8384 32.565 13.211 32.3888 12.8732C32.2993 12.7006 32.2397 12.5869 32.1501 12.5003C32.0976 12.4499 32.0341 12.4124 31.9647 12.3906C31.8952 12.3689 31.8217 12.3635 31.7498 12.3749C31.6035 12.3987 31.4781 12.4882 31.4098 12.6198L30.0268 15.576L28.9607 3.78935C28.9463 3.64803 28.8825 3.51632 28.7805 3.41743C28.6785 3.31853 28.5449 3.2588 28.4032 3.24875C28.2615 3.2387 28.1208 3.27898 28.0059 3.36249C27.891 3.44601 27.8093 3.56739 27.7751 3.70527L25.4901 13.5514L24.6723 12.0404C24.6415 11.9829 24.5991 11.9325 24.5477 11.8923C24.4963 11.8521 24.4371 11.8231 24.3739 11.807C24.3107 11.791 24.2448 11.7883 24.1805 11.7992C24.1162 11.81 24.0548 11.8341 24.0003 11.87C23.8961 11.9384 23.8424 12.025 23.7554 12.1683C23.4721 12.6253 22.7222 13.8376 20.9634 13.8376H12.6714L12.6703 13.8384ZM20.5305 9.79785C21.2708 9.79785 21.7903 9.41873 22.1844 8.94383L22.092 9.70243H23.1339L23.6921 5.15082H22.6502L22.5632 5.8586C22.2883 5.42867 21.8613 5.05796 21.1118 5.05796C20.0245 5.05796 18.8963 5.91234 18.7106 7.42041V7.43869C18.5227 8.94639 19.4601 9.80041 20.5294 9.80041V9.79785H20.5305ZM13.0103 11.0818H14.053L14.3096 8.99793C14.5754 9.41836 15.0057 9.79785 15.761 9.79785C16.8395 9.79785 17.9765 8.94383 18.1618 7.43613V7.41785C18.3498 5.90065 17.4124 5.05613 16.343 5.05613C15.6023 5.05613 15.0799 5.43488 14.6887 5.90978L14.7812 5.15118H13.7393L13.0103 11.0818ZM2.34161 9.7028H5.13363C6.47791 9.7028 7.43686 9.12589 7.56774 8.04813V8.02985C7.66938 7.21166 7.2303 6.80585 6.55249 6.56383C7.03069 6.33095 7.4906 5.94232 7.57981 5.21991V5.20163C7.63099 4.79583 7.5352 4.47045 7.2994 4.20174C6.99778 3.85809 6.47828 3.66725 5.78841 3.66725H3.08303L2.34234 9.6995V9.70316L2.34161 9.7028ZM12.7427 5.15118H11.6916L11.3746 7.71946C11.288 8.42725 10.8164 8.83927 10.2132 8.83927C9.60993 8.83927 9.28712 8.44224 9.37376 7.73738L9.69036 5.15118H8.64843L8.29271 8.04813C8.1611 9.10834 8.67219 9.79785 9.6995 9.79785C10.4073 9.79785 10.8731 9.42751 11.2196 8.9972L11.133 9.70535H12.1848L12.7431 5.15374L12.7427 5.15118Z" fill="#72777A"/>
</g>
</g>
<defs>
<clipPath id="clip0_0_316">
<rect width="34" height="34" fill="white"/>
</clipPath>
</defs>
</svg>
