<svg width="77" height="33" viewBox="0 0 77 33" fill="none" xmlns="http://www.w3.org/2000/svg">
<path d="M0 25.5538H1.28333V28.2072C1.69167 27.688 2.275 27.515 2.74167 27.515C4.08333 27.515 4.66666 28.6109 4.66666 29.6492V32.7064H3.38333V29.8222C3.38333 29.1877 3.20833 28.6686 2.45 28.6686C1.63333 28.6686 1.28333 29.3031 1.28333 30.1683V32.764H0V25.5538ZM9.39166 29.7069C9.33333 28.957 8.86666 28.6109 8.225 28.6109C7.46666 28.6109 7.175 29.0724 7.05833 29.7069H9.39166ZM5.71666 30.226C5.71666 28.8993 6.475 27.5726 8.225 27.5726C10.0333 27.5726 10.6167 29.0147 10.6167 30.1107C10.6167 30.3414 10.6167 30.5144 10.5583 30.5721H7.05833C7.175 31.2643 7.525 31.6681 8.34166 31.6681C8.80833 31.6681 9.21666 31.5527 9.56666 31.1489L10.4417 31.8988C9.85833 32.5333 9.21666 32.8217 8.34166 32.8217C6.53333 32.8217 5.71666 31.5527 5.71666 30.226ZM14.7583 30.5721H13.475C12.8917 30.5721 12.6583 30.8605 12.6583 31.2066C12.6583 31.5527 12.95 31.7834 13.4167 31.7834C14.1167 31.7834 14.7 31.2066 14.7583 30.5721ZM11.375 31.1489C11.375 30.053 12.25 29.7069 13.4167 29.7069H14.7583C14.7583 29.0724 14.4083 28.6109 13.7667 28.6109C13.1833 28.6109 12.775 28.957 12.5417 29.3031L11.6083 28.6109C12.075 27.9187 12.775 27.515 13.7667 27.515C15.1667 27.515 15.9833 28.3802 15.9833 29.5915V32.6487H14.9333L14.875 31.8988C14.4083 32.5333 13.8833 32.7064 13.3 32.7064C12.1333 32.8217 11.375 32.2449 11.375 31.1489ZM17.2083 31.7258V25.5538H18.4917V31.3797C18.4917 31.6104 18.6667 31.7258 18.9 31.7258C18.9583 31.7258 19.1333 31.7258 19.25 31.6681V32.7064C19.0167 32.764 18.6083 32.8217 18.3167 32.8217C17.675 32.8217 17.2083 32.591 17.2083 31.7258ZM20.5333 31.322V28.6686H19.7167V27.6303H20.5917V26.3613L21.8167 25.4961V27.6303H23.1V28.6686H21.8167V31.0913C21.8167 31.5527 22.05 31.7258 22.4 31.7258C22.6333 31.7258 22.925 31.6104 23.1 31.5527V32.6487C22.925 32.7064 22.5167 32.8217 22.1667 32.8217C21.1167 32.8217 20.5333 32.2449 20.5333 31.322ZM24.15 25.5538H25.4333V28.2072C25.8417 27.688 26.425 27.515 26.8917 27.515C28.2333 27.515 28.8167 28.6109 28.8167 29.6492V32.7064H27.5333V29.8222C27.5333 29.1877 27.3583 28.6686 26.6 28.6686C25.7833 28.6686 25.4333 29.3031 25.4333 30.1683V32.764H24.15V25.5538ZM32.6666 32.7064H33.8916V27.6303H32.6666V32.7064ZM32.6083 26.7074H33.8916V25.5538H32.6083V26.7074Z" fill="#72777A"/>
<path d="M35.1166 27.6297H36.3417V28.2065C36.75 27.6874 37.3333 27.5143 37.8583 27.5143C39.2 27.5143 39.725 28.6103 39.725 29.6486V32.7057H38.5V29.8216C38.5 29.1294 38.15 28.668 37.5083 28.668C36.8083 28.668 36.3417 29.0718 36.3417 29.937V32.7057H35.1166V27.6297ZM40.6583 31.379L41.65 30.9176C41.7666 31.2637 42.0583 31.7251 42.7583 31.7251C43.3416 31.7251 43.575 31.379 43.575 31.1483C43.575 30.2831 41.0083 30.8599 41.0083 29.0718C41.0083 27.9758 41.9416 27.5143 42.9333 27.5143C43.8083 27.5143 44.5083 27.9181 44.8583 28.6103L43.8666 29.1294C43.6916 28.841 43.4 28.4949 42.875 28.4949C42.4666 28.4949 42.2333 28.668 42.2333 28.9564C42.2333 29.7063 44.8583 29.2448 44.8583 31.1483C44.8583 32.302 43.8083 32.8211 42.875 32.8211C41.7083 32.8211 40.8916 32.1866 40.6583 31.379ZM45.675 30.3408V27.6297H46.9583V30.3408C46.9583 31.1483 47.1333 31.6674 47.8916 31.6674C48.475 31.6674 49.0583 31.379 49.0583 29.8793V27.572H50.3416V32.648H49.0583V32.0712C48.7083 32.5327 48.125 32.7634 47.5416 32.7634C46.2583 32.8211 45.675 31.8405 45.675 30.3408ZM51.5666 27.6297H52.7916V28.4949C53.025 27.8604 53.6083 27.5143 54.1916 27.5143C54.5416 27.5143 54.8916 27.6297 55.125 27.8604L54.5416 28.8987C54.3666 28.7833 54.1916 28.7257 53.9583 28.7257C53.375 28.7257 52.7333 29.2448 52.7333 30.5715V32.7057H51.5083L51.5666 27.6297ZM58.9166 30.5715H57.6333C57.05 30.5715 56.8166 30.8599 56.8166 31.206C56.8166 31.5521 57.1083 31.7828 57.575 31.7828C58.275 31.7828 58.8583 31.206 58.9166 30.5715ZM55.5333 31.1483C55.5333 30.0524 56.4083 29.7063 57.575 29.7063H58.9166C58.9166 29.0718 58.5666 28.6103 57.925 28.6103C57.3416 28.6103 56.9333 28.9564 56.7 29.3025L55.7666 28.6103C56.2333 27.9181 56.9333 27.5143 57.925 27.5143C59.325 27.5143 60.1416 28.3796 60.1416 29.5909V32.648H59.0916L59.0333 31.8982C58.5666 32.5327 58.0416 32.7057 57.4583 32.7057C56.35 32.8211 55.5333 32.2443 55.5333 31.1483ZM61.1916 27.6297H62.4166V28.2065C62.825 27.6874 63.4083 27.5143 63.9333 27.5143C65.275 27.5143 65.8 28.6103 65.8 29.6486V32.7057H64.575V29.8216C64.575 29.1294 64.225 28.668 63.5833 28.668C62.8833 28.668 62.4166 29.0718 62.4166 29.937V32.7057H61.1916V27.6297ZM66.85 30.1677C66.85 28.841 67.6666 27.5143 69.3 27.5143C70.2916 27.5143 71.1083 27.9758 71.5166 29.0141L70.35 29.4755C70.2333 29.0141 69.825 28.668 69.3 28.668C68.425 28.668 68.075 29.4178 68.075 30.2254C68.075 30.9753 68.425 31.7251 69.3 31.7251C69.825 31.7251 70.175 31.379 70.35 30.9176L71.5166 31.3214C71.1666 32.2443 70.35 32.8211 69.3583 32.8211C67.6666 32.8211 66.85 31.5521 66.85 30.1677ZM75.775 29.7063C75.7166 28.9564 75.25 28.6103 74.6083 28.6103C73.85 28.6103 73.5583 29.0718 73.4416 29.7063H75.775ZM72.1 30.2254C72.1 28.8987 72.8583 27.572 74.6083 27.572C76.4166 27.572 77 29.0141 77 30.11C77 30.3408 77 30.5138 76.9416 30.5715H73.4416C73.5583 31.2637 73.9083 31.6674 74.725 31.6674C75.1916 31.6674 75.6 31.5521 75.95 31.1483L76.825 31.8982C76.2416 32.5327 75.6 32.8211 74.725 32.8211C72.975 32.8211 72.1 31.5521 72.1 30.2254ZM0.0583333 4.78761C0.0583333 1.67278 2.33333 0 5.075 0C6.125 0 7.11666 0.28841 7.99166 0.634503L6.70833 3.80702C6.35833 3.57629 5.89166 3.40324 5.425 3.40324C4.60833 3.40324 3.96667 3.92238 3.96667 5.1337V6.86416H7.7V10.0944H3.96667V22.7844H0L0.0583333 4.78761ZM32.0833 15.8626H28.1167C26.3083 15.8626 25.4917 16.7855 25.4917 17.7661C25.4917 18.8043 26.3667 19.5542 27.8833 19.5542C30.1 19.5542 32.025 17.8238 32.0833 15.8626ZM21.4667 17.6507C21.4667 14.1898 24.2667 13.0361 27.8833 13.0361H32.0833C32.0833 11.0173 30.975 9.69059 28.9333 9.69059C27.0667 9.69059 25.8417 10.7865 25.1417 11.9402L22.1083 9.80595C23.6833 7.7294 25.725 6.34503 28.875 6.34503C33.25 6.34503 35.8167 9.05608 35.8167 12.9208V22.7267H32.3167V20.3041C30.9167 22.323 29.225 22.8998 27.3 22.8998C24.0333 22.8421 21.4667 20.9963 21.4667 17.6507ZM38.5 6.86416H42.4083V8.70999C43.6916 7.15257 45.6166 6.51807 47.1916 6.51807C51.3916 6.51807 53.025 9.86363 53.025 13.2092V22.7844H49.1166V13.6706C49.1166 11.5941 48.0666 10.0944 46.025 10.0944C43.8083 10.0944 42.4083 11.248 42.4083 14.0167V22.7267H38.5V6.86416Z" fill="#72777A"/>
<path d="M55.7666 6.86523H59.7333V13.441L65.7999 6.86523H70.8749L64.8666 12.9795L71.5749 22.7278H66.9083L62.1833 15.4022L59.7333 18.1132V22.7278H55.7666V6.86523ZM73.0916 18.8631H76.9999V22.7278H73.0916V18.8631Z" fill="#72777A"/>
<path d="M10.208 6.92226H14.1163V9.57564C14.8163 7.67213 16.6247 6.57617 18.433 6.57617C19.483 6.57617 20.5913 6.92226 21.408 7.72981L19.5997 10.9023C19.0747 10.5562 18.4913 10.3832 17.8497 10.3832C16.0413 10.3832 14.1163 12.056 14.1163 16.0937V22.8425H10.208V6.92226Z" fill="#72777A"/>
</svg>
