<svg width="117" height="30" viewBox="0 0 117 30" fill="none" xmlns="http://www.w3.org/2000/svg">
<g clip-path="url(#clip0_0_399)">
<path fill-rule="evenodd" clip-rule="evenodd" d="M0.726495 8.30595C1.60559 8.30595 2.21818 8.49382 2.59859 8.87766C3.02427 9.30717 3.21483 10.0167 3.21483 11.1777V25.6804C3.21483 27.6873 2.79792 28.5824 0.337327 28.5824H0V29.4724H11.0581V28.5868L10.7244 28.5824C8.28716 28.553 7.87609 27.663 7.87609 25.6804V11.177C7.87609 10.0196 8.06592 9.31307 8.4916 8.88429C8.87566 8.49455 9.4992 8.30521 10.3966 8.30521H11.0573V7.40271H0V8.30521H0.726495V8.30595Z" fill="#72777A"/>
<path fill-rule="evenodd" clip-rule="evenodd" d="M36.0933 22.0741C36.0933 22.0741 35.9013 21.1687 35.8735 20.6618V14.0378C35.8305 10.1751 36.3525 8.25219 33.0055 8.26692V7.39905H40.7049V8.26692C37.2579 8.25293 37.6916 10.1758 37.6719 14.0378V29.5048L36.5759 29.4931L19.9498 11.9366C19.9498 11.9366 20.1367 12.8406 20.1644 13.3482V24.1952C20.0703 28.1522 20.5558 28.6303 23.0821 28.5839V29.4879H15.0556V28.5839C17.5856 28.5869 18.0828 28.2472 18.0799 23.8725V24.134V13.444L18.0594 11.7473C18.1536 9.55106 17.3497 8.27724 14.8957 8.29787V7.42925H22.2855L36.0933 22.0741Z" fill="#72777A"/>
<path fill-rule="evenodd" clip-rule="evenodd" d="M63.9644 6.97766H63.116L63.0766 7.27088C63.0189 7.7085 62.8481 8.44156 62.3537 8.44156C62.2128 8.44156 61.8616 8.37451 61.4659 8.1918C59.7471 7.44033 57.5202 6.97766 55.6452 6.97766C51.9966 6.97766 48.6869 8.29642 46.3227 10.6923C44.1512 12.8937 42.9633 15.89 42.98 19.1279C42.9954 22.2296 44.2038 24.7809 46.6775 26.9314C49.1695 29.0827 51.9616 30 56.019 30C59.3988 30 61.3337 29.51 64.3032 27.9017L64.8231 27.6173V21.8303C64.8231 19.3637 65.1225 18.9798 67.1114 18.8988L67.4348 18.8863V18.0265H57.718V18.8863L58.0415 18.8988C60.2568 18.9857 60.6751 19.3865 60.6751 21.4258V26.7885C59.0316 27.8826 57.8371 28.2981 56.3308 28.2981C54.1016 28.2981 52.1178 27.4287 50.5947 25.8934C48.811 24.0921 47.9407 21.4685 47.9407 18.5039C47.9407 15.3102 48.7832 12.5857 50.5195 10.8352C51.9017 9.44057 53.7373 8.66626 55.8313 8.66626C57.702 8.66626 59.8749 9.47594 61.3651 10.6687C62.5772 11.6699 63.2058 12.6387 63.6804 14.2397L63.7527 14.4821H64.5822L63.9644 6.97766Z" fill="#72777A"/>
<path fill-rule="evenodd" clip-rule="evenodd" d="M106.524 29.4129C107.064 29.3303 107.637 29.3429 108.068 28.9436C109.894 29.2265 111.744 28.7712 113.178 27.7567C113.934 27.1415 114.615 26.4276 115.167 25.6474C115.652 24.9608 116.034 24.3205 116.282 23.5514C116.466 23.0769 116.612 22.5833 116.723 22.0764C117.243 19.6865 116.969 17.0136 116.198 14.7407C116.057 14.3186 115.896 13.9097 115.721 13.52C114.759 11.5131 113.449 9.34783 111.432 8.07843C110.296 7.36379 109.25 6.25795 108.609 5.11306C108.259 4.79627 107.925 4.37633 107.474 4.30044C107.597 4.50599 107.733 4.70712 107.767 4.9473L107.74 4.98119C107.261 4.99519 106.886 4.73954 106.558 4.43011L106.92 4.09931C106.783 4.02932 106.627 4.0028 106.476 3.96744C105.097 3.80904 103.962 4.45147 102.738 4.7609L102.719 4.82942C103.47 5.16684 103.627 6.0023 104.065 6.56738C104.173 6.43624 104.358 6.53202 104.509 6.52023C104.727 6.53275 104.932 6.69189 105.144 6.6359C105.151 6.45171 105.048 6.3051 105.015 6.14007C105.144 6.07819 105.301 6.13271 105.446 6.14007C105.841 6.37362 106.476 6.09882 106.723 6.6359C106.271 6.66463 105.848 6.76041 105.424 6.86429C105.452 7.03668 105.623 7.17372 105.609 7.34685C105.247 7.19508 104.864 7.09931 104.461 7.05142L104.44 7.11257C104.953 7.7189 105.657 8.07843 106.374 8.29135C107.407 8.53226 108.315 8.03643 109.312 8.20883C111.759 9.33972 113.849 11.9264 114.759 14.3812C114.803 14.4991 114.846 14.6184 114.886 14.74C115.648 16.9819 115.792 19.7373 115.029 22.0757C114.623 23.0482 114.177 23.9662 113.46 24.7567C113.189 25.0934 112.89 25.3932 112.564 25.6467C111.539 26.4526 110.274 26.8085 108.97 26.4475C108.888 26.3908 108.724 26.3768 108.752 26.2331C108.797 26.0408 108.839 25.8463 108.876 25.6467C109.092 24.5261 109.193 23.3473 109.134 22.1685C109.133 22.1184 109.131 22.0676 109.13 22.0175C109.058 20.306 108.719 18.7677 108.097 17.2876C107.697 16.4382 107.222 15.5121 106.624 14.6811C105.91 13.6902 105.024 12.8341 103.887 12.4068C103.189 12.2204 102.329 12.185 101.803 12.7707C101.427 13.103 101.271 13.5502 101.325 14.0408C100.737 14.4166 100.076 14.6192 99.3568 14.6811C99.1809 14.6965 99.0005 14.7621 98.8172 14.7599C98.6435 14.768 98.4741 14.7606 98.3076 14.74C97.4424 14.6324 96.5669 14.1609 95.9018 13.6231C95.8879 13.2643 95.8675 12.9269 95.8536 12.5475C95.4725 12.3478 95.1563 11.9684 95.13 11.5197L95.1636 11.4858C95.3834 11.5544 95.5732 11.6641 95.7718 11.7813C95.6827 11.2435 95.5798 10.713 95.3147 10.2437C95.0679 10.1398 94.8219 10.0573 94.5904 9.9328C94.3239 9.75524 94.1523 9.4296 94.1129 9.13417C94.3517 9.36845 94.7679 9.28594 94.9526 9.53348C94.6306 8.57499 94.6255 7.47872 94.0983 6.60274C93.8318 5.95515 93.1345 5.65825 92.6563 5.18305C92.4716 4.95466 92.3971 4.63787 92.0627 4.6025C91.7889 4.53399 91.7684 4.22456 91.721 4.02343C91.8911 4.04406 92.0342 4.1612 92.1773 4.18846C91.7816 3.12829 91.4326 1.94804 90.3607 1.27245L90.1767 1.39033C89.7598 1.45222 89.3151 1.48021 88.8989 1.49421C89.0837 1.21867 89.4108 1.10079 89.6707 0.975549C89.3699 0.748634 89.1224 0.694115 88.7463 0.632229C88.528 0.851777 88.133 0.963024 87.8526 1.02491L87.8176 0.996914C87.8103 0.748634 87.7548 0.445835 88.125 0.383212C87.7694 0.210816 87.1802 0.280806 86.818 0.383212C86.7165 0.652121 86.423 0.893771 86.4442 1.21204C86.2332 1.43233 86.0828 1.72923 85.863 1.88763C85.8564 1.35644 86.0806 0.867248 86.1762 0.419312C85.8688 0.536454 85.5563 0.702219 85.2548 0.84662C84.7707 0.563713 84.2596 0.281543 83.7405 0.0671522C83.6937 0.0465236 83.5901 0.0266317 83.6105 0.115777C84.0552 0.439204 83.8828 1.04701 83.9303 1.50747L83.6499 1.27393C83.5134 0.922503 83.1191 0.667593 83.0512 0.281543C82.5861 0.371424 82.2889 0.495196 81.8582 0.681591L81.799 0.716217C82.1195 0.716217 82.3926 0.970391 82.5496 1.22678C82.0648 1.2533 81.634 1.06101 81.1557 1.01165C81.1083 0.964498 81.0667 0.907769 80.9915 0.915136C80.7527 1.00502 80.5468 1.17668 80.3365 1.34244C79.8649 1.81174 79.3859 2.32893 79.161 2.95C79.3187 2.97653 79.5166 2.9699 79.6327 3.06641C79.3735 3.22481 79.1478 3.49445 78.8952 3.64548C78.8061 4.00427 78.82 4.41243 78.7988 4.80437C78.6002 5.10864 78.3345 5.37608 78.2052 5.71571C77.781 7.09931 77.6722 8.63835 77.7336 10.2098C77.5963 10.3417 77.4181 10.4249 77.2896 10.5281L77.3035 11.9338H77.3371C77.3984 11.6383 77.7474 11.4733 77.9592 11.2729H78.0278C77.9935 11.5897 77.9526 11.9072 77.946 12.2314L77.5503 12.5622C77.1531 12.9144 77.4882 13.4448 77.4546 13.8869C77.4824 14.0025 77.5014 14.1757 77.5839 14.2037C77.6321 14.0313 77.7817 13.9075 77.8781 13.755C78.0482 13.7145 78.1987 13.5752 78.3556 13.5561C78.2666 13.9009 78.1519 14.2383 78.0139 14.5691C77.9482 14.6125 77.8716 14.6707 77.8058 14.7415C77.7357 14.8174 77.6795 14.9021 77.6649 14.9964C77.9738 16.6297 78.4571 18.2432 79.0099 19.7808C78.6353 20.4225 78.4221 21.1776 78.1096 21.8399C78.0643 21.932 78.0242 22.0271 77.9869 22.1228C77.673 22.9244 77.5773 23.821 77.1867 24.5909C77.0282 24.4819 76.8574 24.3971 76.6814 24.322C75.9425 24.0737 75.0882 24.2321 74.5494 24.8053C74.0704 24.7154 73.5783 24.7979 73.2023 25.0536C72.9328 25.2562 72.7248 25.503 72.605 25.7903C72.5232 25.9907 72.486 26.2088 72.4984 26.4468C72.1917 26.6597 72.0275 26.9897 71.9252 27.322C71.7821 28.0661 72.0413 28.8411 72.4648 29.4143H106.524V29.4129Z" fill="white"/>
<path fill-rule="evenodd" clip-rule="evenodd" d="M102.001 13.9097C101.993 14.0887 101.864 14.2899 101.98 14.4409C102.145 14.2545 102.418 14.2611 102.637 14.1793C103.244 14.1241 103.825 14.3164 104.392 14.4556C104.25 14.2272 104.153 13.9738 103.996 13.766C103.681 13.6835 103.203 13.9038 103.149 13.4352C102.957 13.2695 102.656 13.3881 102.459 13.3999C102.267 13.5391 102.11 13.71 102.001 13.9097Z" fill="white"/>
<path fill-rule="evenodd" clip-rule="evenodd" d="M81.1178 7.95727C81.1147 7.95412 81.11 7.95098 81.1068 7.9502C81.1068 7.9502 81.1068 7.95412 81.1084 7.95727H81.1178Z" fill="white"/>
<path fill-rule="evenodd" clip-rule="evenodd" d="M83.601 14.0851L84.0114 13.6857C84.0464 13.6857 84.0727 13.6931 84.0931 13.7211L84.0588 14.4858C84.2567 14.6722 84.5027 14.7341 84.7619 14.7481C84.7831 14.5411 84.9401 14.3967 85.0292 14.2169C85.1044 14.0725 85.0569 13.8581 85.2066 13.7543L85.2533 13.8029C85.3023 14.0298 85.2891 14.2854 85.4052 14.4851C85.4191 14.5949 85.4388 14.7334 85.4519 14.8299C85.7528 14.8446 86.0251 14.7606 86.258 14.6509C86.2441 14.3893 86.334 14.1749 86.3734 13.9333C86.4362 13.85 86.2982 13.699 86.4698 13.7064C86.5654 13.9127 86.7363 14.1263 86.8319 14.3466C87.2277 13.9399 87.3919 13.4095 87.4876 12.8584C87.3722 12.6985 87.1941 12.6985 87.0568 12.5961C85.8959 12.2167 84.4049 12.1401 83.2841 12.7265C83.2118 13.1965 83.3075 13.7137 83.601 14.0851Z" fill="white"/>
<path fill-rule="evenodd" clip-rule="evenodd" d="M72.7423 27.0235C72.7007 27.5554 72.7423 28.0535 72.7751 28.5773C72.8853 28.7497 73.0839 28.9501 73.2802 28.9641L73.316 28.6119C73.397 28.1213 73.1379 27.6011 73.4116 27.1878C73.6029 27.2497 73.7926 27.3462 73.9583 27.4361C74.0386 26.9808 73.924 26.4503 73.4934 26.1748L72.7423 27.0235Z" fill="white"/>
<path fill-rule="evenodd" clip-rule="evenodd" d="M74.4288 26.2802C74.1624 27.0862 73.9639 28.0822 74.2865 28.9302C74.4697 28.8072 74.6617 28.6893 74.8245 28.5169C74.7916 27.8679 74.7026 27.1753 75.0843 26.6375C75.4186 26.7414 75.6456 27.0655 75.7741 27.3831C76.0004 27.0921 76.0756 26.6928 75.9865 26.306C76.0004 26.0039 75.6573 26.0732 75.4938 25.9479C75.5493 25.693 75.5413 25.3976 75.8084 25.2532L74.9887 25.3357C74.7777 25.6378 74.5456 25.9354 74.4288 26.2802Z" fill="white"/>
<path fill-rule="evenodd" clip-rule="evenodd" d="M76.117 28.6606C76.1521 28.724 76.117 28.833 76.1856 28.847C76.2886 28.2687 76.753 27.893 77.0063 27.3831C77.1283 27.2107 77.121 26.9691 77.3196 26.838C77.5868 26.838 77.7781 27.0317 78.038 27.0523C78.1198 27.1142 77.9957 27.1687 77.9898 27.2373C77.9358 27.7073 77.7576 28.0963 77.792 28.5781H77.8387C78.2008 28.1935 78.4469 27.7751 78.7134 27.3338L78.7601 26.9418C78.8215 26.4725 78.3162 26.1697 77.9884 25.9767L78.2819 25.5973L77.8723 25.4521C77.3933 25.5008 76.9625 25.7004 76.6281 26.0806C76.2127 26.8519 76.1447 27.7235 76.117 28.6606Z" fill="white"/>
<path fill-rule="evenodd" clip-rule="evenodd" d="M77.9555 24.5688C78.1125 24.6174 78.2556 24.4863 78.4119 24.5556C79.0412 24.7891 79.6976 25.0308 80.1686 25.5619L80.7293 27.0023L81.0097 26.1138L80.825 25.6305C80.668 25.2857 80.2372 25.3137 79.943 25.2997C79.821 25.1619 79.9503 25.0028 79.9919 24.8724C80.1343 24.3832 79.5399 24.4097 79.3012 24.2115C79.3158 23.9146 78.9595 24.0177 78.7609 23.9897L78.693 23.9072C78.6528 23.8453 78.5506 23.8453 78.4951 23.8932C78.4805 23.8733 78.4542 23.8593 78.4688 23.824L78.3169 23.8593C78.1059 24.0457 77.9621 24.2866 77.9555 24.5688Z" fill="white"/>
<path fill-rule="evenodd" clip-rule="evenodd" d="M78.3513 22.9841C78.3717 23.0732 78.4265 23.1631 78.4944 23.2176C78.8025 23.1351 79.0953 22.9222 79.4509 23.0518C79.9094 23.4585 80.3869 23.8858 80.9418 24.1076L81.139 24.0722C81.2624 24.115 81.3982 24.1209 81.4807 24.2586C81.5566 24.445 81.366 24.5555 81.3032 24.7066C81.6114 24.9342 81.488 25.3416 81.68 25.6164L82.1721 24.9548C82.0568 24.6646 82.1787 24.1687 81.7275 24.1415C81.5778 24.0649 81.4748 23.9131 81.4814 23.7407C81.1886 23.4718 80.8265 23.3554 80.5315 23.0798C80.2927 22.8861 80.1496 22.5892 79.8415 22.5207C79.6305 22.4043 79.399 22.3416 79.153 22.2871C78.693 22.2186 78.6528 22.7689 78.3513 22.9841Z" fill="white"/>
<path fill-rule="evenodd" clip-rule="evenodd" d="M79.0069 21.6255L79.0894 21.7567C79.4304 21.7353 79.7393 21.5843 80.0744 21.5909C80.2993 21.7294 80.5935 21.7228 80.825 21.8392C81.0097 22.0941 81.2083 22.3836 81.4799 22.5568C82.0348 22.6386 82.3415 23.239 82.5328 23.6796V23.4659C82.6146 23.1705 82.5255 22.8249 82.416 22.5568C82.2794 22.4183 82.0816 22.3277 81.9385 22.2039C81.9107 22.1147 81.9312 22.0727 81.9589 21.9902C81.7464 21.7626 81.4325 21.6381 81.1733 21.4598C80.8111 20.9286 80.1138 21.0737 79.5604 20.9286L79.0069 21.6255Z" fill="white"/>
<path fill-rule="evenodd" clip-rule="evenodd" d="M78.996 16.5671C79.0566 16.7815 79.131 17.0504 79.1712 17.2773C79.3624 16.85 79.7398 16.6584 80.0741 16.3063C79.8821 16.1744 79.6442 16.1125 79.4325 16.0712V16.0587C79.2821 16.2097 79.05 16.3615 78.996 16.5671Z" fill="white"/>
<path fill-rule="evenodd" clip-rule="evenodd" d="M80.2372 18.8355L80.5445 18.5187C80.8526 18.2019 81.1051 17.8358 81.1526 17.4291C80.9343 17.298 80.6474 17.3871 80.4358 17.463C80.3591 17.9124 80.2445 18.3537 80.2372 18.8355Z" fill="white"/>
<path fill-rule="evenodd" clip-rule="evenodd" d="M80.4621 19.8079C80.9344 19.8359 81.3913 19.931 81.7745 19.6643L82.1563 18.4221C82.0344 18.4148 81.9103 18.3603 81.795 18.4015C81.5431 18.9673 81.0358 19.525 80.4621 19.8079Z" fill="white"/>
<path fill-rule="evenodd" clip-rule="evenodd" d="M80.6008 15.4089C80.9081 15.865 81.4205 16.3748 81.9468 16.5185C81.8855 15.9401 81.3942 15.5393 81.141 15.0435L81.1264 14.8778C80.9285 14.684 80.6891 14.5543 80.484 14.4497C80.4512 14.782 80.5402 15.0995 80.6008 15.4089Z" fill="white"/>
<path fill-rule="evenodd" clip-rule="evenodd" d="M82.267 19.8632C82.6291 19.9266 83.0181 19.8632 83.3524 19.7586C83.8386 19.6429 84.105 19.1044 84.2685 18.6844H83.6605L83.0043 19.332C82.7459 19.4705 82.4984 19.6783 82.267 19.8632Z" fill="white"/>
<path fill-rule="evenodd" clip-rule="evenodd" d="M82.1933 14.782C82.2962 15.3198 82.5203 15.809 82.8291 16.2717L82.9108 15.2439L82.1933 14.782Z" fill="white"/>
<path fill-rule="evenodd" clip-rule="evenodd" d="M84.4331 17.4636C84.474 17.1188 84.3317 16.7195 84.2923 16.3681C84.0864 16.2296 83.7988 16.2436 83.5879 16.1066C83.601 16.651 84.0236 17.1122 84.4331 17.4636Z" fill="white"/>
<path fill-rule="evenodd" clip-rule="evenodd" d="M83.8113 20.9676C84.2419 20.8291 84.658 20.6773 85.0536 20.4563C85.3062 20.0923 85.6894 19.7593 85.7434 19.3328C85.4296 19.4219 85.1558 19.3195 84.8631 19.4646C84.6857 19.7881 84.5755 20.1542 84.2346 20.3878C84.1806 20.6213 83.9273 20.7812 83.8113 20.9676Z" fill="white"/>
<path fill-rule="evenodd" clip-rule="evenodd" d="M84.4801 21.8156L84.9925 22.4905C85.2662 22.5804 85.6079 22.5524 85.8465 22.394L85.6619 21.7803C85.3006 21.9195 84.8706 21.8768 84.4801 21.8156Z" fill="white"/>
<path fill-rule="evenodd" clip-rule="evenodd" d="M85.3351 16.9325L85.5329 17.8431C86.0103 17.4497 86.1074 16.8772 86.0957 16.2709C85.822 16.5877 85.6621 16.7814 85.3351 16.9325Z" fill="white"/>
<path fill-rule="evenodd" clip-rule="evenodd" d="M86.6808 18.54C86.6881 18.6704 86.7224 18.7949 86.7975 18.8988C87.3297 19.0911 87.3844 19.7461 87.8771 19.9944C88.1976 20.1388 88.5654 19.959 88.8465 19.8286C88.6348 19.5877 88.3946 19.4204 88.191 19.1663C88.0472 19.1044 87.9034 19.0145 87.9107 18.8355L86.6808 18.54Z" fill="white"/>
<path fill-rule="evenodd" clip-rule="evenodd" d="M87.1042 21.7942C87.3371 22.0631 87.6509 22.2008 87.9787 22.276C87.9247 22.2001 88.0137 22.276 88.0268 22.2281L87.6159 21.3197C87.4115 21.3249 87.1998 21.3669 87.0086 21.3536C87.0217 21.5039 87.0568 21.6549 87.1042 21.7942Z" fill="white"/>
<path fill-rule="evenodd" clip-rule="evenodd" d="M87.829 17.5462C87.637 17.0983 87.5567 16.5538 87.5027 16.058C87.2976 16.3055 87.0859 16.4647 86.8947 16.7188C86.8056 17.2294 87.5275 17.3546 87.829 17.5462Z" fill="white"/>
<path fill-rule="evenodd" clip-rule="evenodd" d="M88.6623 17.0784C88.9083 17.4018 89.4477 17.2913 89.7499 17.1948C89.6054 16.9465 89.1426 16.8021 89.0608 16.5332C89.0127 16.058 88.9185 15.5961 88.7667 15.1614C88.5273 15.7471 88.2389 16.444 88.6623 17.0784Z" fill="white"/>
<path fill-rule="evenodd" clip-rule="evenodd" d="M89.0924 18.5401C89.7766 19.044 90.4454 19.629 91.4019 19.4154C91.4705 19.3667 91.5866 19.3734 91.6005 19.2842C91.3194 19.1045 91.02 18.9667 90.7323 18.8024L90.4052 18.3191H90.2548C89.8854 18.4436 89.4882 18.4908 89.0924 18.5401Z" fill="white"/>
<path fill-rule="evenodd" clip-rule="evenodd" d="M89.107 24.1319H89.1538C89.5648 23.8011 90.0496 23.6906 90.5345 23.5521C90.6652 23.6 90.5827 23.7451 90.6988 23.8011C90.993 23.6766 91.3486 23.7046 91.6487 23.6007C92.0116 23.6155 92.3058 23.6221 92.5986 23.7805C92.83 24.0899 93.2681 24.0568 93.5697 24.2623L93.5215 23.7805C92.8863 23.0283 91.8947 22.973 90.9806 22.9878L90.9594 22.8905C90.7411 22.8905 90.4958 22.9391 90.2906 23.0364C89.9971 23.0489 89.7167 23.1948 89.4356 23.2839C89.3049 23.5462 89.2027 23.8623 89.107 24.1319Z" fill="white"/>
<path fill-rule="evenodd" clip-rule="evenodd" d="M89.6553 15.6579C89.9217 16.0101 90.3173 16.2782 90.7684 16.1891C90.537 15.9614 90.2699 15.7191 90.256 15.3956C90.3246 14.7819 89.6553 14.734 89.3275 14.4158C89.4356 14.8306 89.4232 15.2918 89.6553 15.6579Z" fill="white"/>
<path fill-rule="evenodd" clip-rule="evenodd" d="M89.586 25.3526H89.6656C90.0285 25.1235 90.5549 25.2966 90.9105 25.055C91.1084 24.9511 91.1215 25.2274 91.2595 25.3033C91.5939 25.5103 91.6348 26.1299 92.1065 25.9862C92.6731 26.2824 92.53 26.9801 92.5504 27.4899L93.0768 27.1591C93.0286 26.8902 93.1783 26.5646 93.0075 26.331C92.8782 26.0356 92.5234 26.0076 92.3525 25.7659C92.5577 25.4138 92.0933 25.2495 91.997 24.9938L92.0247 24.9585L92.7475 25.055C92.9951 25.2067 93.0827 25.483 93.1586 25.7379C93.7259 25.8344 93.8625 26.482 94.0611 26.8961C94.1772 26.6132 94.2246 26.3096 94.3414 26.0348C94.348 25.8064 94.0472 25.8064 93.8975 25.704C93.8552 25.3526 93.6989 25.0204 93.3923 24.8074C92.7629 24.649 92.2102 24.2969 91.5202 24.2969L90.9455 24.4766C90.6308 24.5525 90.2964 24.456 90.0577 24.6756C89.7006 24.7028 89.6736 25.097 89.586 25.3526Z" fill="white"/>
<path fill-rule="evenodd" clip-rule="evenodd" d="M89.9467 22.5111L90.0774 22.573C90.3563 22.4411 90.6374 22.2901 90.9317 22.1795C91.3887 22.0484 91.7443 22.573 92.1277 22.2422C92.2708 22.1383 92.3927 22.2901 92.5029 22.3733C92.6672 22.6768 93.0498 22.6562 93.3368 22.7387C93.1937 22.3461 93.0162 21.8075 92.5168 21.7441C92.3189 21.655 92.086 21.6638 91.8947 21.5452C91.369 20.9595 91.0273 22.027 90.4527 21.7655C90.2483 21.9946 89.9956 22.2075 89.9467 22.5111Z" fill="white"/>
<path fill-rule="evenodd" clip-rule="evenodd" d="M90.0774 25.8691C90.2956 26.0541 90.5205 26.3723 90.8613 26.3303C91.2869 26.5307 91.1088 27.0951 91.3409 27.392L91.5862 27.1709L91.5657 27.1577L91.6008 27.1231L91.6154 27.1437C91.6833 26.9359 91.5869 26.5705 91.4708 26.3296C91.3139 26.2206 91.1292 26.337 90.9796 26.2331C90.9584 26.0128 90.8219 25.9023 90.665 25.7645C90.5555 25.682 90.4117 25.7925 90.2891 25.7851L90.0774 25.8691Z" fill="white"/>
<path fill-rule="evenodd" clip-rule="evenodd" d="M90.9317 17.4637C91.1572 17.8439 91.5937 18.0782 91.9426 18.3397C92.2288 18.4716 92.6047 18.5047 92.9127 18.4362C92.6193 18.1953 92.3521 17.9198 92.1069 17.6288C92.0112 17.491 91.9901 17.3193 91.8609 17.1948C91.5382 17.2574 91.1777 17.2508 90.9317 17.4637Z" fill="white"/>
<path fill-rule="evenodd" clip-rule="evenodd" d="M91.3084 14.9964C91.6237 15.3883 92.1084 15.2307 92.5522 15.2439V15.1968L91.869 14.6162C91.677 14.6788 91.4734 14.8505 91.3084 14.9964Z" fill="white"/>
<path fill-rule="evenodd" clip-rule="evenodd" d="M78.7295 8.49388L79.1251 9.73529C79.1178 9.0317 79.439 8.446 79.3711 7.72915L79.6652 7.28711L79.0426 7.48013C78.8791 7.79693 78.7433 8.1152 78.7295 8.49388Z" fill="white"/>
<path fill-rule="evenodd" clip-rule="evenodd" d="M78.996 6.34264L79.5347 6.02511V5.21838C79.3091 5.35689 79.185 5.59117 79.0091 5.77757L78.996 6.34264Z" fill="white"/>
<path fill-rule="evenodd" clip-rule="evenodd" d="M90.0789 7.59799C89.9482 7.77039 89.751 7.81165 89.5875 7.84627C89.8737 7.31509 90.011 6.57614 89.7846 5.97644C89.9357 5.92192 90.1 5.8954 90.2431 5.81141L90.2285 5.79815L90.6053 5.46588C91.104 5.12108 90.9127 4.46686 91.0974 3.97767C90.8513 3.59088 90.7769 3.12232 90.4206 2.79742L90.4417 2.78489C90.1606 2.4261 89.6554 2.46662 89.2713 2.28759C88.7661 2.1152 88.3769 2.46662 88.0147 2.70238C87.8577 2.7289 87.9534 2.93592 87.7825 2.92929C87.6869 3.18494 87.5701 3.46048 87.5022 3.74265C86.8253 3.6454 86.0952 3.72276 85.5549 4.10807C85.2672 3.89515 84.9189 3.85316 84.5838 3.75665C84.3384 3.70876 84.0581 3.79864 83.8814 3.6594C83.6222 3.36397 83.566 2.82541 83.1213 2.75026C82.965 2.69501 82.9315 2.52335 82.9315 2.37085C82.6372 2.32296 82.3765 2.18592 82.0896 2.12256C81.6537 1.92217 81.3054 2.24044 80.9769 2.45336C80.8337 2.51598 80.6695 2.53587 80.5337 2.61986C80.2876 3.00518 80.0547 3.39859 79.8977 3.82516C79.9459 4.17659 80.0956 4.48749 80.2745 4.78366C80.4314 5.23233 80.9228 5.58376 81.3397 5.76352C81.1419 6.44574 81.1419 7.25983 81.3397 7.94942C81.3397 7.94942 81.3281 7.95752 81.3281 7.95605C81.3281 7.95752 81.3061 7.9752 81.3061 7.9752C81.2404 7.9752 81.1711 7.98846 81.117 7.95605H81.1083C81.2039 8.61469 81.5113 9.19082 82.0078 9.68517C82.186 9.74853 82.1451 9.96145 82.221 10.1C82.2677 10.1611 82.2743 10.2922 82.2539 10.3475C81.1893 10.3129 80.2387 10.5818 79.3844 11.071C79.1661 11.1815 79.2625 11.4858 79.242 11.6987C79.8429 11.2994 80.492 11.0025 81.209 10.8721C81.5164 10.8514 81.8647 10.7755 82.159 10.8581L82.1933 11.4511C81.3806 11.8784 80.492 12.1267 79.7947 12.8303C79.8086 13.0432 79.7685 13.2922 79.8298 13.472L80.4519 12.9607C81.0521 12.5002 81.6807 12.1061 82.3714 11.8512C82.5562 12.0722 82.7482 12.3065 82.9942 12.4435C83.4104 12.1746 83.8617 11.9757 84.3399 11.8512C84.5933 11.6994 84.9948 11.8372 85.1591 11.5344L85.276 10.9067C85.2548 10.8927 85.2424 10.8662 85.2073 10.8735C84.8868 10.6871 84.675 10.3637 84.7021 9.98355C84.5933 10.0381 84.4706 10.0734 84.3399 10.0801C84.2304 10.0521 84.1289 10.0255 84.0807 9.91429C84.0734 9.77579 84.0048 9.5695 84.1413 9.46636C84.5852 9.19008 85.1599 9.17608 85.7206 9.21882C86.1368 9.27333 86.7392 9.25197 86.8815 9.75C86.8626 9.8944 86.875 10.0528 86.7319 10.1493C86.5815 10.2318 86.4113 10.1419 86.2733 10.0808C86.1653 10.4182 85.9805 10.7984 85.6038 10.9074L85.6527 11.3082C85.6994 11.488 85.7133 11.7834 85.9944 11.7215C86.6435 11.8799 87.2167 12.2181 87.784 12.5835C87.9753 12.3897 88.1257 12.1687 88.2615 11.9698C89.2728 12.3138 90.1482 13.0793 90.9813 13.7895L91.0164 13.2105C90.2234 12.5002 89.3414 11.9971 88.4258 11.6036C88.4608 11.4172 88.5017 11.2375 88.5076 11.0386C89.5948 11.0997 90.625 11.4379 91.5216 11.9698L91.507 11.4732C90.5644 10.9634 89.5327 10.6252 88.4046 10.6112C88.3637 10.5479 88.3506 10.4595 88.3579 10.3969C88.9048 10.307 89.2932 9.73527 89.4246 9.23797C89.7036 8.91454 90.1081 8.56238 90.0124 8.08056C90.0248 8.04151 90.0387 7.99878 90.0526 7.95752C90.0891 7.83596 90.1197 7.70998 90.0789 7.59799Z" fill="white"/>
<path fill-rule="evenodd" clip-rule="evenodd" d="M91.0295 9.36989L91.5894 9.19012L91.65 8.87332C91.8083 8.41139 91.474 8.0666 91.3083 7.70044L91.0295 9.36989Z" fill="white"/>
<path fill-rule="evenodd" clip-rule="evenodd" d="M92.4423 11.5558C92.7088 11.8512 92.9686 12.3279 93.4409 12.182C93.4058 11.9831 93.2964 11.818 93.2285 11.6383C93.1044 11.4924 93.0642 11.0791 92.8182 11.225C92.6336 11.1005 92.5869 10.8927 92.4693 10.7277C92.416 10.9826 92.4496 11.3001 92.4423 11.5558Z" fill="white"/>
<path fill-rule="evenodd" clip-rule="evenodd" d="M92.5387 13.5744C92.6416 13.7203 92.6694 13.9067 92.7701 14.0371C92.9548 14.1601 93.2285 14.141 93.4533 14.1196C93.6584 14.0717 93.7884 14.2986 93.9796 14.1668C93.7416 14.0157 93.5986 13.7394 93.3716 13.5405C93.1044 13.3269 92.819 13.5133 92.5387 13.5744Z" fill="white"/>
<path fill-rule="evenodd" clip-rule="evenodd" d="M92.9008 16.7815C93.3716 17.0644 93.9717 17.3407 94.6001 17.2442C94.668 17.2088 94.7848 17.2162 94.7979 17.1329C94.4089 16.9944 94.0001 16.6017 93.5914 16.5192C93.3651 16.1678 93.0716 16.6091 92.7848 16.5811C92.7913 16.6643 92.8731 16.727 92.9008 16.7815Z" fill="white"/>
<path fill-rule="evenodd" clip-rule="evenodd" d="M94.321 22.8691L94.4239 23.0909C94.5268 23.8085 94.9765 24.4693 94.7305 25.2554C94.9356 25.3998 94.9977 25.6407 95.1269 25.8338H95.1612C95.3181 25.2348 95.2093 24.6137 95.1269 24.0133C95.1882 23.4688 94.6414 23.1513 94.321 22.8691Z" fill="white"/>
<path fill-rule="evenodd" clip-rule="evenodd" d="M94.4386 15.8089C94.794 16.0852 95.3612 16.1125 95.77 15.9747C95.5108 15.8303 95.2247 15.6719 95.0116 15.4781L94.4386 15.8089Z" fill="white"/>
<path fill-rule="evenodd" clip-rule="evenodd" d="M96.1245 17.9264C96.0894 18.2166 96.2814 18.4575 96.4865 18.6019C96.5617 18.4296 96.6843 18.2852 96.6975 18.0921C96.6369 17.7952 96.4726 17.527 96.2062 17.3274C96.158 17.5197 96.104 17.7046 96.1245 17.9264Z" fill="white"/>
<path fill-rule="evenodd" clip-rule="evenodd" d="M96.1456 21.0693C96.0975 21.3927 96.4522 21.4354 96.6026 21.6145C96.7259 21.7655 96.5208 21.8694 96.5208 22.0138C96.78 22.3512 96.9303 22.738 96.9303 23.1867C97.0332 22.7667 97.1902 22.3652 97.2464 21.9313C97.2186 21.6285 96.7413 21.6904 96.8157 21.3529C96.9515 21.0081 96.788 20.67 96.6989 20.3605C96.6712 20.3112 96.6099 20.2147 96.5566 20.2427C96.431 20.5256 96.1245 20.7245 96.1456 21.0693Z" fill="white"/>
<path fill-rule="evenodd" clip-rule="evenodd" d="M97.0817 19.4285L97.4364 20.1248C97.5941 20.1056 97.6948 19.9524 97.8182 19.8433C97.9145 19.553 97.6613 19.3666 97.5868 19.1324C97.524 18.9666 97.5868 18.7463 97.47 18.6012C97.3817 18.5467 97.278 18.4568 97.1759 18.4833L97.0817 19.4285Z" fill="white"/>
<path fill-rule="evenodd" clip-rule="evenodd" d="M97.5388 17.5956C97.8191 17.7672 98.1397 18.0155 98.2894 18.3183C98.5296 19.0219 98.9122 19.6562 99.1918 20.3385C99.2948 20.8144 99.3765 21.2387 99.5065 21.708C99.5547 21.8303 99.5269 22.072 99.719 22.0521C99.773 21.5283 99.876 21.0251 99.8825 20.4799C99.7124 20.253 99.4853 20.1565 99.2743 20.0172V19.9701C99.3021 19.8522 99.3977 19.7144 99.5415 19.7365C99.6022 19.6658 99.7869 19.598 99.7058 19.4743C99.3503 19.1162 99.3707 18.4981 98.8026 18.3868C98.6055 18.3043 98.5566 18.098 98.5376 17.905C98.2704 17.6788 97.8732 17.6007 97.5388 17.5956Z" fill="white"/>
<path fill-rule="evenodd" clip-rule="evenodd" d="M97.8659 21.3322C98.2148 21.6549 98.0929 22.1242 98.0644 22.5589C98.0104 22.8212 98.3381 22.6694 98.4411 22.8072C98.652 23.1247 98.5294 23.5867 98.4535 23.9314C98.6389 23.6478 98.8505 23.3995 98.9936 23.0901C98.9863 22.9722 99.136 22.9177 99.1308 22.7733C99.1914 22.5729 98.96 22.6628 98.8644 22.6407C98.7827 22.6201 98.6936 22.5648 98.7199 22.455C98.898 22.1095 98.7345 21.6962 98.6659 21.3521C98.5841 21.0685 98.7009 20.6905 98.5703 20.4423C98.352 20.7458 97.7024 20.815 97.8659 21.3322Z" fill="white"/>
<path fill-rule="evenodd" clip-rule="evenodd" d="M98.5018 16.436C99.1106 17.0571 99.5544 17.6803 100.21 18.2808C100.224 18.0133 100.189 17.7636 100.176 17.5013C100.079 17.3164 99.9018 17.1779 99.7515 17.0401C99.2675 16.9915 99.0142 16.3328 98.5018 16.436Z" fill="white"/>
<path fill-rule="evenodd" clip-rule="evenodd" d="M100.094 19.7225C100.108 19.7844 100.136 19.8389 100.162 19.9015C100.429 20.3436 100.681 20.7974 100.867 21.2733C100.812 20.7642 101.154 20.1284 100.702 19.7365C100.641 19.5707 100.436 19.626 100.306 19.6392L100.094 19.7225Z" fill="white"/>
<path fill-rule="evenodd" clip-rule="evenodd" d="M101.734 24.7596C101.926 24.8473 102.172 24.6889 102.356 24.5798C102.527 24.5378 102.671 24.6343 102.801 24.7242C102.855 24.834 102.801 24.9371 102.82 25.041C103.231 25.1582 103.633 25.3099 103.996 25.5508L104.111 25.4344C104.139 25.1375 103.907 24.9253 103.688 24.7596C103.545 24.6749 103.332 24.7242 103.231 24.5923C103.299 24.4833 103.299 24.3175 103.292 24.193C103.065 24.193 102.922 24.1238 102.737 24.0133C102.623 23.9794 102.519 23.8829 102.423 24.0133C102.082 24.2483 102.062 24.5923 101.734 24.7596Z" fill="white"/>
<path fill-rule="evenodd" clip-rule="evenodd" d="M102.213 16.0823C102.383 16.0351 102.562 15.985 102.705 15.862C103.161 15.4413 103.825 15.7235 104.357 15.7169C104.256 15.5305 104.111 15.3455 103.982 15.1857C103.791 15.1098 103.612 15.0199 103.394 15.0199C102.929 14.7451 102.616 15.2063 102.26 15.4332C102.165 15.6211 102.118 15.8959 102.213 16.0823Z" fill="white"/>
<path fill-rule="evenodd" clip-rule="evenodd" d="M102.226 17.5012C102.226 17.4821 102.226 17.46 102.247 17.4541C102.308 17.5093 102.239 17.6398 102.342 17.667C102.52 17.5786 102.684 17.4541 102.848 17.3377C103.306 17.3377 103.579 16.8898 104.029 16.8898C104.78 17.0268 105.527 17.1786 106.181 17.5506C106.135 17.1027 105.751 16.696 105.363 16.4949C105.143 16.419 104.972 16.5376 104.815 16.6606C104.357 16.9516 104.597 16.2407 104.276 16.226C103.859 16.3586 103.428 16.5022 102.964 16.4617C102.691 16.5641 102.499 16.8183 102.192 16.7918C102.178 17.0194 102.144 17.2957 102.226 17.5012Z" fill="white"/>
<path fill-rule="evenodd" clip-rule="evenodd" d="M102.541 19.0403C102.683 19.1914 102.922 19.1634 103.129 19.1914L103.722 18.9578C103.73 18.8473 103.545 18.8186 103.585 18.6963C103.749 18.5099 103.976 18.6403 104.179 18.5637C104.468 18.5231 104.761 18.2336 105.047 18.4473C105.04 18.4812 105.061 18.5305 105.034 18.5637C104.944 18.7781 105.096 18.9085 105.259 18.991C105.594 19.0543 105.908 19.3645 106.244 19.2253C106.21 18.9431 106.135 18.6815 106.065 18.4119C105.786 18.3633 105.588 18.129 105.328 18.0317C105.211 18.1423 105.061 18.2255 104.918 18.2115C104.391 18.0877 103.763 17.7569 103.23 18.0951C103.038 18.3286 102.697 18.2601 102.437 18.3625C102.452 18.599 102.478 18.8259 102.541 19.0403Z" fill="white"/>
<path fill-rule="evenodd" clip-rule="evenodd" d="M102.766 23.1381C102.724 23.2552 102.609 23.449 102.82 23.5035C103.258 23.5182 103.818 23.2906 104.16 23.6346C104.275 23.7253 104.221 23.9102 104.214 24.0281L104.787 24.5114C104.843 24.2211 104.944 23.9588 104.951 23.6479C104.905 23.4276 104.794 23.2132 104.604 23.0688C104.227 23.0688 104.008 22.6246 103.605 22.6813C103.394 22.6319 103.21 22.8213 102.997 22.8213C102.902 22.9178 102.848 23.0357 102.766 23.1381Z" fill="white"/>
<path fill-rule="evenodd" clip-rule="evenodd" d="M102.93 19.8883C103.019 20.0732 103.122 20.3775 103.292 20.3981C103.695 20.2191 104.282 20.1078 104.734 20.3016C104.885 20.3288 104.885 20.5012 104.851 20.6125C105.083 20.7503 105.364 20.8593 105.609 21.0118L105.541 20.5985C105.527 20.1498 104.967 20.1078 104.932 19.6658C104.474 19.5147 103.962 19.4669 103.477 19.584C103.319 19.7291 103.094 19.7085 102.902 19.7505C102.89 19.805 102.923 19.8389 102.93 19.8883Z" fill="white"/>
<path fill-rule="evenodd" clip-rule="evenodd" d="M103.047 22.1221C103.313 22.0462 103.483 21.7493 103.77 21.7228C104.208 21.7302 104.597 21.9077 104.87 22.2879C105.035 22.3976 105 22.6813 105.211 22.6813C105.15 22.3424 105.259 22.0322 105.246 21.6874C104.958 21.2056 104.25 21.5769 103.983 21.0118L103.478 21.0457C103.116 21.1356 103.212 21.5637 103.162 21.8532C103.121 21.9431 103.04 22.0116 103.047 22.1221Z" fill="white"/>
<path fill-rule="evenodd" clip-rule="evenodd" d="M105.553 25.1375C105.765 25.5648 106.231 25.8897 106.278 26.3797C106.387 26.2478 106.462 26.0968 106.538 25.9524C106.53 25.8139 106.373 25.8139 106.311 25.7041C106.249 25.5251 106.346 25.3667 106.373 25.2068C106.284 24.9511 106.072 24.7102 105.833 24.5592L105.553 25.1375Z" fill="white"/>
<path fill-rule="evenodd" clip-rule="evenodd" d="M106.395 24.0486L106.887 24.7242C107.098 24.386 107.098 23.8902 107.016 23.482C106.969 23.4061 106.879 23.2824 106.757 23.3376C106.571 23.5314 106.545 23.8268 106.395 24.0486Z" fill="white"/>
<path fill-rule="evenodd" clip-rule="evenodd" d="M104.392 5.17568C104.57 5.26556 104.741 5.34807 104.952 5.36133C105.096 5.28619 105.281 5.23093 105.458 5.27882C105.711 5.44458 106.018 5.24419 106.311 5.25819C106.053 5.01065 105.758 4.85888 105.458 4.71448C105.075 4.79626 104.769 5.07106 104.392 5.17568Z" fill="white"/>
<path fill-rule="evenodd" clip-rule="evenodd" d="M107.065 5.82392C107.426 5.85781 107.685 6.18124 107.931 6.45236C108.239 6.49951 108.472 6.7198 108.656 6.94818L108.539 6.58203C108.458 6.21587 108.232 5.93296 108.001 5.6449C107.673 5.66553 107.35 5.69278 107.065 5.82392Z" fill="white"/>
<path fill-rule="evenodd" clip-rule="evenodd" d="M81.5639 2.79822L81.7618 2.81885C82.2955 3.08776 83.1563 3.22553 83.2038 4.00426C82.6657 4.21865 82.1458 4.50892 81.7158 4.94875C81.3879 4.61059 80.7242 4.79698 80.6154 4.20465C80.7184 3.6462 80.9155 2.94409 81.5639 2.79822Z" fill="#72777A"/>
<path fill-rule="evenodd" clip-rule="evenodd" d="M82.0779 6.2948C82.6985 6.24028 83.3002 6.32795 83.9434 6.27417C84.1004 6.34269 84.264 6.48119 84.3392 6.63959C84.3187 7.3837 84.0931 8.09465 84.0588 8.85938C83.7792 8.97799 83.5053 9.21154 83.4374 9.52171C83.1841 9.59685 82.9585 9.75009 82.7124 9.86576C82.6029 9.63222 82.6233 9.28006 82.8161 9.08777C83.0819 8.70761 83.7726 8.79749 83.7164 8.19779C83.8945 7.90752 83.7237 7.53546 83.731 7.23193C83.6623 7.00501 83.5944 7.30781 83.4849 7.30044C83.2666 7.3476 83.041 7.36233 82.8504 7.25329C82.7058 7.10005 82.5284 6.97702 82.4875 6.76999C82.2962 6.67348 82.0713 6.52171 81.9757 6.32132L82.0779 6.2948Z" fill="#72777A"/>
<path fill-rule="evenodd" clip-rule="evenodd" d="M82.8292 10.7903C83.1212 10.8308 83.43 10.7004 83.6825 10.8448C83.6278 10.9413 83.4847 10.9826 83.3687 11.0106L82.911 11.225C82.7402 11.1822 82.8358 10.9067 82.8292 10.7903Z" fill="#72777A"/>
<path fill-rule="evenodd" clip-rule="evenodd" d="M84.0251 5.03204C84.3178 4.93553 84.6331 4.73661 84.947 4.83313C84.7214 5.06078 84.544 5.35695 84.374 5.63175L83.4382 5.61186C83.5389 5.36431 83.798 5.15729 84.0251 5.03204Z" fill="#72777A"/>
<path fill-rule="evenodd" clip-rule="evenodd" d="M86.7653 4.80502C87.1536 4.7365 87.1332 5.24633 87.4887 5.26769C87.5507 5.35021 87.6398 5.42535 87.6047 5.54912C87.3996 5.63164 87.0996 5.59112 86.866 5.64564C86.5587 5.47324 86.758 4.93542 86.2719 4.97005C86.2456 4.92953 86.1901 4.84628 86.2587 4.81828C86.4098 4.7645 86.6062 4.78439 86.7653 4.80502Z" fill="#72777A"/>
<path fill-rule="evenodd" clip-rule="evenodd" d="M86.5194 6.65355C86.6895 6.41117 86.9502 6.39201 87.1955 6.34265L88.9654 6.37728C89.0406 6.44579 88.8975 6.50768 88.8975 6.59093C88.7879 6.69407 88.6302 6.72207 88.5346 6.81932C88.3031 6.82669 88.3221 7.10075 88.1586 7.21863C87.9052 7.47354 87.5372 7.35714 87.243 7.31514C87.14 7.23926 87.0246 7.13538 86.9765 7.01824L86.8947 7.10075C86.9976 7.48754 86.9699 7.91558 87.0444 8.30753L87.4678 8.59117C87.4751 9.2255 88.2133 9.05311 88.5346 9.40527C88.4594 9.63218 88.309 9.82521 88.1462 10.019C87.8862 9.76332 87.592 9.59682 87.278 9.48778C87.251 9.11499 86.848 8.89545 86.6216 8.70831C86.5603 8.03273 86.5464 7.34314 86.4383 6.68818L86.5194 6.65355Z" fill="#72777A"/>
<path fill-rule="evenodd" clip-rule="evenodd" d="M87.1612 10.9067H87.9816L87.8787 11.3414L87.0582 10.9892C87.0393 10.9207 87.113 10.9001 87.1612 10.9067Z" fill="#72777A"/>
<path fill-rule="evenodd" clip-rule="evenodd" d="M88.6368 3.09586L89.245 2.9021C89.594 3.06713 89.9219 3.27489 90.2424 3.50843C90.4958 3.97847 90.4534 4.61133 90.3381 5.13515C90.1533 5.34291 89.7503 5.13515 89.6006 5.46594H89.5729C89.3465 4.81835 88.7055 4.24001 88.1104 3.94237C88.206 3.61231 88.309 3.28889 88.6368 3.09586Z" fill="#72777A"/>
<path fill-rule="evenodd" clip-rule="evenodd" d="M102.889 29.3642H106.534C107.074 29.2817 107.648 29.2949 108.078 28.8942C109.903 29.1778 111.754 28.7225 113.189 27.7095C113.946 27.0921 114.626 26.3789 115.176 25.6002C115.661 24.9136 116.044 24.2719 116.292 23.5035C116.476 23.0283 116.622 22.5354 116.732 22.0278C117.253 19.6385 116.98 16.9664 116.21 14.6913C116.067 14.2692 115.907 13.8625 115.731 13.472C114.769 11.4652 113.46 9.30064 111.442 8.0305C110.305 7.31513 109.261 6.20855 108.619 5.06514C108.27 4.74687 107.935 4.32693 107.484 4.25104C107.607 4.45807 107.743 4.65772 107.778 4.89863L107.751 4.93326C107.273 4.94726 106.896 4.69235 106.568 4.38071L106.931 4.05065C106.794 3.98213 106.637 3.9534 106.487 3.92025C105.106 3.76185 103.972 4.40207 102.75 4.71298L102.729 4.78149C103.48 5.11892 103.637 5.9529 104.075 6.51945C104.185 6.38758 104.369 6.48409 104.519 6.47009C104.737 6.48409 104.942 6.64249 105.153 6.58723C105.161 6.40158 105.059 6.25718 105.024 6.09215C105.153 6.02879 105.312 6.08478 105.455 6.09215C105.851 6.32569 106.487 6.04942 106.733 6.58723C106.282 6.61597 105.858 6.71101 105.435 6.81489C105.462 6.98728 105.632 7.12579 105.619 7.29819C105.256 7.14494 104.875 7.05064 104.471 7.00128L104.452 7.06243C104.964 7.6695 105.667 8.02829 106.384 8.24268C107.416 8.4836 108.324 7.98777 109.321 8.16017C111.769 9.29106 113.859 11.8777 114.769 14.3325C114.813 14.4504 114.856 14.5698 114.897 14.6899C115.658 16.9318 115.802 19.6894 115.04 22.0263C114.634 23.0003 114.187 23.9168 113.471 24.7088C113.2 25.044 112.9 25.3438 112.574 25.5987C111.548 26.4047 110.283 26.7591 108.981 26.3974C108.9 26.3436 108.734 26.3288 108.761 26.1844C108.807 25.9929 108.849 25.7969 108.887 25.5987C109.104 24.4767 109.202 23.2979 109.145 22.1206C109.142 22.0698 109.142 22.0189 109.139 21.9688C109.068 20.2581 108.73 18.7191 108.106 17.2397C107.707 16.3903 107.232 15.4642 106.634 14.6324C105.921 13.6408 105.034 12.7839 103.897 12.3566C103.2 12.1702 102.338 12.1363 101.813 12.7228C101.436 13.0536 101.28 13.5015 101.334 13.9907C100.746 14.3679 100.086 14.5713 99.3663 14.6324C99.1904 14.6479 99.0093 14.712 98.8275 14.7112C98.653 14.7193 98.4828 14.7112 98.3185 14.6899C97.4511 14.5823 96.5764 14.113 95.9113 13.573C95.8974 13.2164 95.8762 12.8768 95.8631 12.4988C95.4812 12.2984 95.1672 11.9183 95.1395 11.4711L95.1745 11.4364C95.3929 11.505 95.5842 11.6155 95.7813 11.7333C95.6922 11.1955 95.5907 10.6643 95.3242 10.1958C95.0782 10.0919 94.8306 10.0101 94.5992 9.88487C94.3327 9.70584 94.1618 9.38168 94.1224 9.08477C94.3604 9.32053 94.7773 9.23728 94.9621 9.48556C94.6415 8.52706 94.6342 7.4308 94.1078 6.55482C93.8413 5.90649 93.144 5.61032 92.6658 5.13365C92.481 4.90674 92.4066 4.58994 92.0714 4.55458C91.7983 4.48606 91.7772 4.17516 91.7297 3.97624C91.9006 3.99613 92.0437 4.11401 92.1882 4.14127C91.791 3.07889 91.4428 1.90085 90.3702 1.22526L90.1855 1.34167C89.7693 1.40503 89.3246 1.43155 88.9077 1.44555C89.0924 1.16927 89.4203 1.05287 89.6802 0.927622C89.3786 0.700707 89.1319 0.645452 88.7551 0.582829C88.5368 0.804587 88.1425 0.913624 87.8621 0.97551L87.8285 0.948987C87.8212 0.701444 87.7643 0.396435 88.1337 0.335285C87.7789 0.162889 87.1911 0.231406 86.8282 0.335285C86.7253 0.604194 86.434 0.845107 86.4529 1.1619C86.2427 1.38366 86.0923 1.67909 85.8725 1.83823C85.8666 1.30704 86.0893 0.817111 86.1857 0.369912C85.8783 0.486316 85.5658 0.651346 85.2657 0.79722C84.7802 0.514313 84.2691 0.231405 83.7507 0.0184885C83.7025 -0.00287685 83.5995 -0.0235054 83.62 0.0656398C84.0639 0.389804 83.8923 0.996138 83.9398 1.45881L83.6594 1.22526C83.5229 0.873103 83.1279 0.618192 83.0607 0.231405C82.5956 0.321287 82.2984 0.445796 81.8676 0.632191L81.8078 0.66608C82.1283 0.66608 82.4014 0.920991 82.5591 1.1759C82.0743 1.2039 81.6435 1.01014 81.166 0.962985C81.1178 0.914361 81.0776 0.859105 81.0009 0.866473C80.7615 0.956355 80.5577 1.12875 80.3453 1.29452C79.8743 1.76234 79.3954 2.28101 79.1705 2.9006C79.3282 2.9286 79.5261 2.92197 79.6421 3.01848C79.3837 3.17688 79.1573 3.44579 78.904 3.59756C78.8156 3.95635 78.8288 4.36303 78.8083 4.75644C78.6104 5.05924 78.3439 5.32815 78.214 5.66558C77.7905 7.05138 77.681 8.58895 77.743 10.1611C77.6058 10.2915 77.4276 10.3763 77.2991 10.4787L77.313 11.8851H77.3466C77.4094 11.5882 77.7576 11.4232 77.9686 11.2235H78.0373C78.0037 11.5403 77.9621 11.8571 77.9555 12.182L77.559 12.5128C77.164 12.8642 77.4984 13.3939 77.4634 13.8353C77.4919 13.9531 77.5108 14.1255 77.5948 14.1535C77.6415 13.9811 77.792 13.8566 77.8869 13.7056C78.0577 13.6629 78.2074 13.5258 78.3644 13.5052C78.2775 13.8492 78.1607 14.1874 78.0227 14.5182C77.9577 14.5617 77.8803 14.6213 77.8146 14.6906C77.7452 14.7665 77.6897 14.8534 77.6766 14.947C77.9833 16.5811 78.4666 18.1938 79.0208 19.7314C78.644 20.3716 78.4316 21.1275 78.1183 21.7898C78.0738 21.8826 78.0336 21.9762 77.9957 22.0727C77.6817 22.875 77.5861 23.7701 77.1954 24.5415C77.0384 24.4303 76.8683 24.3478 76.6909 24.2719C75.9513 24.0243 75.0977 24.1827 74.5589 24.7544C74.0799 24.6645 73.5878 24.7471 73.211 25.002C72.9423 25.2068 72.7335 25.4529 72.6145 25.7409C72.5342 25.9406 72.4955 26.1579 72.5086 26.3959C72.2005 26.6095 72.0362 26.9403 71.9347 27.2711C71.7909 28.0167 72.0501 28.791 72.4736 29.3635L102.889 29.3642Z" fill="white"/>
<path fill-rule="evenodd" clip-rule="evenodd" d="M116.21 14.6921C116.067 14.2699 115.907 13.8632 115.731 13.4728C114.769 11.4659 113.46 9.30137 111.442 8.03123C110.305 7.31586 109.261 6.20928 108.619 5.06587C108.27 4.7476 107.935 4.32766 107.484 4.25177C107.607 4.4588 107.743 4.65845 107.778 4.89937L107.751 4.93399C107.273 4.94799 106.896 4.69308 106.568 4.38144L106.931 4.05138C106.794 3.98287 106.637 3.95413 106.487 3.92098C105.106 3.76258 103.972 4.40281 102.75 4.71371L102.729 4.78223C103.48 5.11965 103.637 5.95364 104.075 6.52019C104.185 6.38831 104.369 6.48482 104.519 6.47083C104.737 6.48482 104.942 6.64322 105.153 6.58797C105.161 6.40231 105.059 6.25791 105.024 6.09288C105.153 6.02952 105.312 6.08551 105.455 6.09288C105.851 6.32643 106.487 6.05015 106.733 6.58797C106.282 6.6167 105.858 6.71174 105.435 6.81562C105.462 6.98802 105.632 7.12652 105.619 7.29892C105.256 7.14568 104.875 7.05137 104.471 7.00201L104.452 7.06316C104.964 7.67023 105.667 8.02902 106.384 8.24341C107.416 8.48433 108.324 7.9885 109.321 8.1609C111.769 9.29179 113.859 11.8785 114.769 14.3333C114.813 14.4512 114.856 14.5705 114.897 14.6906C115.658 16.9325 115.802 19.6901 115.04 22.027C114.634 23.001 114.187 23.9175 113.471 24.7095C113.2 25.0447 112.9 25.3446 112.574 25.5995C111.548 26.4055 110.283 26.7598 108.981 26.3981C108.9 26.3443 108.734 26.3296 108.761 26.1852C108.807 25.9936 108.849 25.7976 108.887 25.5995C109.104 24.4774 109.202 23.2986 109.145 22.1213C109.142 22.0705 109.142 22.0197 109.139 21.9696C109.068 20.2589 108.73 18.7198 108.106 17.2404C107.707 16.391 107.232 15.4649 106.634 14.6331C105.921 13.6415 105.034 12.7847 103.897 12.3574C103.2 12.171 102.338 12.1371 101.813 12.7235C101.436 13.0543 101.28 13.5022 101.334 13.9914C100.746 14.3686 100.086 14.572 99.3663 14.6331C99.1904 14.6486 99.0093 14.7127 98.8275 14.712C98.653 14.7201 98.4828 14.712 98.3185 14.6906C97.4511 14.583 96.5764 14.1137 95.9113 13.5737C95.8974 13.2171 95.8762 12.8775 95.8631 12.4995C95.4812 12.2992 95.1672 11.919 95.1395 11.4718L95.1745 11.4372C95.3929 11.5057 95.5842 11.6162 95.7813 11.7341C95.6922 11.1963 95.5907 10.6651 95.3242 10.1965C95.0782 10.0926 94.8306 10.0108 94.5992 9.8856C94.3327 9.70657 94.1618 9.38241 94.1224 9.0855C94.3604 9.32126 94.7773 9.23801 94.9621 9.48629C94.6415 8.5278 94.6342 7.43153 94.1078 6.55555C93.8413 5.90722 93.144 5.61105 92.6658 5.13439C92.481 4.90747 92.4066 4.59067 92.0714 4.55531C91.7983 4.48679 91.7772 4.17589 91.7297 3.97697C91.9006 3.99686 92.0437 4.11474 92.1882 4.142C91.791 3.07963 91.4428 1.90158 90.3702 1.226L90.1855 1.3424C89.7693 1.40576 89.3246 1.43228 88.9077 1.44628C89.0924 1.17 89.4203 1.0536 89.6802 0.928354C89.3786 0.701439 89.1319 0.646184 88.7551 0.583561C88.5368 0.805319 88.1425 0.914356 87.8621 0.976242L87.8285 0.94972C87.8212 0.702176 87.7643 0.397167 88.1337 0.336018C87.7789 0.163621 87.1911 0.232138 86.8282 0.336018C86.7253 0.604927 86.434 0.84584 86.4529 1.16264C86.2427 1.38439 86.0923 1.67983 85.8725 1.83896C85.8666 1.30777 86.0893 0.817844 86.1857 0.370645C85.8783 0.487049 85.5658 0.652078 85.2657 0.797952C84.7802 0.515045 84.2691 0.232138 83.7507 0.019221C83.7025 -0.00214436 83.5995 -0.0227731 83.62 0.0663721C84.0639 0.390536 83.8923 0.996871 83.9398 1.45954L83.6594 1.226C83.5229 0.873836 83.1279 0.618925 83.0607 0.232138C82.5956 0.32202 82.2984 0.446528 81.8676 0.632923L81.8078 0.666813C82.1283 0.666813 82.4014 0.921724 82.5591 1.17663C82.0743 1.20463 81.6435 1.01087 81.166 0.963718C81.1178 0.915093 81.0776 0.859838 81.0009 0.867205C80.7615 0.957087 80.5577 1.12948 80.3453 1.29525C79.8743 1.76308 79.3954 2.28174 79.1705 2.90134C79.3282 2.92933 79.5261 2.9227 79.6421 3.01921C79.3837 3.17761 79.1573 3.44652 78.904 3.59829C78.8156 3.95708 78.8288 4.36376 78.8083 4.75718C78.6104 5.05997 78.3439 5.32888 78.214 5.66631C77.7905 7.05211 77.681 8.58968 77.743 10.1619C77.6058 10.2923 77.4276 10.377 77.2991 10.4794L77.313 11.8858H77.3466C77.4094 11.5889 77.7576 11.4239 77.9686 11.2243H78.0373C78.0037 11.541 77.9621 11.8578 77.9555 12.1827L77.559 12.5135C77.164 12.865 77.4984 13.3947 77.4634 13.836C77.4919 13.9539 77.5108 14.1263 77.5948 14.1543C77.6415 13.9819 77.792 13.8574 77.8869 13.7063C78.0577 13.6636 78.2074 13.5266 78.3644 13.5059C78.2775 13.85 78.1607 14.1881 78.0227 14.5189C77.9577 14.5624 77.8803 14.6221 77.8146 14.6913C77.7452 14.7672 77.6897 14.8542 77.6766 14.9477C77.9833 16.5818 78.4666 18.1945 79.0208 19.7321C78.644 20.3723 78.4316 21.1282 78.1183 21.7905C78.0738 21.8834 78.0336 21.9769 77.9957 22.0734C77.6817 22.8757 77.5861 23.7709 77.1954 24.5422C77.0384 24.431 76.8683 24.3485 76.6909 24.2726C75.9513 24.0251 75.0977 24.1835 74.5589 24.7552C74.0799 24.6653 73.5878 24.7478 73.211 25.0027C72.9423 25.2075 72.7335 25.4536 72.6145 25.7417C72.5342 25.9413 72.4955 26.1586 72.5086 26.3966C72.2005 26.6103 72.0362 26.9411 71.9347 27.2719C71.7909 28.0174 72.0501 28.7917 72.4736 29.3642H84.548C84.3706 29.1513 84.2063 28.8544 84.0822 28.5995C83.8237 28.2053 84.0011 27.6476 83.9734 27.1923C84.2194 26.6913 84.4691 26.1874 84.7502 25.6975C84.8072 25.5987 84.8642 25.5022 84.9226 25.4064L85.4767 25.1928C85.7703 25.1928 86.017 24.9791 86.2967 25.0543C86.6727 25.4344 86.6727 24.6756 87.0356 24.641C87.8826 24.5305 88.723 24.613 89.2005 25.3372C89.2005 25.4337 89.3524 25.4337 89.3173 25.5236C89.2078 25.5567 89.1048 25.4882 88.9895 25.4882C88.4703 25.3578 87.8614 25.0255 87.3496 25.3225C87.3299 25.4462 87.3036 25.5722 87.2787 25.696C87.2532 25.8279 87.2298 25.9568 87.2189 26.0806C87.5533 26.1771 87.8337 26.4187 88.0863 26.6803C88.2571 26.3428 88.6193 26.1911 88.9406 26.0806C89.2209 26.1424 89.5283 26.1498 89.7612 26.3288C90.192 26.7296 89.9796 27.4118 89.9394 27.9217C90.3278 28.1419 90.7586 28.2672 91.1544 28.4801C90.9696 28.6473 90.725 28.7151 90.4994 28.7984L89.8437 28.6665C89.7685 28.612 89.6378 28.612 89.6108 28.5155C89.3925 28.749 89.126 29.0599 88.9895 29.3627H98.3499C98.2265 29.0798 98.0834 28.8595 97.9126 28.598C97.7206 28.1839 97.7972 27.6181 97.7761 27.1768L98.6508 25.8323C99.1283 25.8256 99.6693 25.6459 100.188 25.7358C100.214 25.724 100.239 25.7107 100.263 25.6952C100.478 25.5449 100.544 25.1957 100.865 25.2392C101.438 25.0815 101.876 25.3438 102.307 25.6054C102.292 25.64 102.278 25.6702 102.263 25.6952C102.082 25.9863 101.745 25.6614 101.499 25.749C101.396 25.8595 101.547 25.9899 101.567 26.1152C101.656 26.2382 101.478 26.2242 101.417 26.2456C101.274 26.2662 101.117 26.2316 101.007 26.1152C100.98 26.0798 101 26.0393 100.946 26.0327C100.822 26.2382 100.645 26.4253 100.597 26.6596C100.754 26.8121 100.965 26.9632 101.041 27.1569C101.198 27.3846 100.918 27.5562 100.864 27.7566C100.843 27.7972 100.781 27.7972 100.761 27.7566C100.616 27.6741 100.494 27.4664 100.337 27.5209C100.199 28.1353 100.384 28.749 100.302 29.3627C100.569 29.4261 100.883 29.3487 101.17 29.3627L101.287 28.0661C101.409 27.2254 101.902 26.5219 102.483 25.8794C103.11 25.447 103.514 26.3016 103.978 26.5977C104.054 26.6117 104.027 26.6943 104.06 26.7421C104.053 26.8806 103.91 26.9352 103.814 26.9772C103.527 27.0796 103.315 26.7628 103.138 26.5764C102.967 26.7628 102.891 27.0103 102.694 27.1562L102.761 27.1761C102.989 27.4045 103.205 27.6454 103.255 27.9489C103.227 28.2237 103.091 28.4926 102.844 28.6319C102.661 28.3136 102.51 27.9622 102.388 27.638C102.394 27.6527 102.38 27.6586 102.366 27.6734C101.99 27.7758 101.89 28.2031 101.827 28.5486C101.847 28.8868 101.595 29.0246 101.662 29.362H106.535C107.074 29.2795 107.648 29.2927 108.078 28.8919C109.904 29.1756 111.755 28.7203 113.189 27.7073C113.947 27.0899 114.627 26.3767 115.177 25.598C115.662 24.9114 116.045 24.2697 116.293 23.5012C116.477 23.026 116.623 22.5332 116.733 22.0256C117.253 19.6385 116.98 16.9664 116.21 14.6921Z" fill="#72777A"/>
<path fill-rule="evenodd" clip-rule="evenodd" d="M84.8532 27.4892C85.1196 27.3168 85.5503 27.2748 85.6109 26.8755C85.5028 26.7922 85.4065 26.6884 85.2831 26.6611L85.0028 26.7436C85.0233 26.5778 85.1123 26.3922 85.1685 26.2132L86.0693 25.917C85.9452 26.3303 85.8985 26.8475 85.8569 27.3234C85.9386 28.027 86.0415 28.7785 86.397 29.3642H85.4262C85.3174 28.7166 84.6466 28.2466 84.8532 27.4892Z" fill="#72777A"/>
<path fill-rule="evenodd" clip-rule="evenodd" d="M86.9515 26.6611H87.0056L87.6603 27.2616L87.7559 27.2409C87.7026 27.9445 87.6676 28.6341 87.6603 29.3642H86.9508C86.8063 28.682 86.5676 27.9644 86.5953 27.2277C86.718 27.0413 86.7997 26.8063 86.9515 26.6611Z" fill="#72777A"/>
<path fill-rule="evenodd" clip-rule="evenodd" d="M88.4126 27.3242C88.5432 27.1525 88.5973 26.8615 88.8564 26.8284C89.0411 26.8335 89.2119 26.8615 89.3498 26.9934C89.5885 27.2962 89.3549 27.6837 89.2681 27.9865C89.1717 28.4485 89.0068 28.9303 88.8571 29.365H88.1673L88.4126 27.3242Z" fill="#72777A"/>
<path fill-rule="evenodd" clip-rule="evenodd" d="M98.7785 27.1098C98.9288 27.3035 98.9763 27.5651 99.2018 27.7375C99.4004 27.4619 99.4478 27.0339 99.3522 26.6825L99.1544 26.4821C99.4077 26.4209 99.6734 26.3996 99.9267 26.3517C99.8172 26.7171 99.6106 27.0479 99.6464 27.4752C99.6529 28.0963 99.7551 28.7173 99.8099 29.3642H99.0588C98.7858 28.7571 98.512 28.1788 98.5325 27.4752C98.6142 27.3507 98.669 27.2056 98.7785 27.1098Z" fill="#72777A"/>
<path fill-rule="evenodd" clip-rule="evenodd" d="M102.011 13.8625C102.004 14.0416 101.874 14.2405 101.99 14.3937C102.155 14.2073 102.428 14.214 102.647 14.1315C103.255 14.0755 103.836 14.2692 104.402 14.4077C104.259 14.1793 104.163 13.9244 104.006 13.7181C103.691 13.6349 103.213 13.8559 103.159 13.3859C102.967 13.2208 102.667 13.3387 102.469 13.352C102.277 13.4898 102.12 13.6621 102.011 13.8625Z" fill="white"/>
<path fill-rule="evenodd" clip-rule="evenodd" d="M81.1273 7.90874C81.1242 7.90717 81.121 7.90402 81.1163 7.90088C81.1163 7.90402 81.1179 7.90559 81.1179 7.90874H81.1273Z" fill="white"/>
<path fill-rule="evenodd" clip-rule="evenodd" d="M83.6112 14.0379L84.0216 13.6386C84.0566 13.6386 84.0836 13.6452 84.1034 13.6717L84.0698 14.4372C84.2676 14.6236 84.5122 14.6847 84.7722 14.6995C84.7933 14.4932 84.9503 14.3473 85.0394 14.1683C85.1146 14.0239 85.0671 13.8102 85.2168 13.7078L85.265 13.755C85.3117 13.9834 85.2986 14.2383 85.4154 14.4372C85.4293 14.5477 85.4483 14.6847 85.4614 14.782C85.763 14.796 86.0368 14.7135 86.2682 14.6022C86.2544 14.3407 86.3442 14.127 86.3836 13.8869C86.4464 13.8036 86.3084 13.6511 86.4792 13.6585C86.5756 13.8655 86.7457 14.0784 86.8421 14.3002C87.2379 13.8935 87.4036 13.363 87.4971 12.8105C87.3817 12.6528 87.2043 12.6528 87.0663 12.5489C85.9053 12.1703 84.4166 12.0944 83.2958 12.6801C83.2206 13.1472 83.3162 13.6644 83.6112 14.0379Z" fill="white"/>
<path fill-rule="evenodd" clip-rule="evenodd" d="M72.751 26.9764C72.7094 27.5076 72.751 28.0056 72.7846 28.5302C72.8941 28.7026 73.0934 28.903 73.2912 28.9155L73.3248 28.5633C73.4065 28.0742 73.1474 27.5548 73.4211 27.1407C73.6124 27.2019 73.8036 27.2991 73.9678 27.3883C74.0496 26.9337 73.9328 26.4018 73.5021 26.1255L72.751 26.9764Z" fill="white"/>
<path fill-rule="evenodd" clip-rule="evenodd" d="M74.439 26.2309C74.1726 27.0383 73.9748 28.0322 74.296 28.8824C74.4806 28.7571 74.6712 28.64 74.8347 28.4683C74.8011 27.8193 74.712 27.1282 75.0945 26.5889C75.4288 26.6928 75.6551 27.017 75.7836 27.333C76.0106 27.0442 76.085 26.6434 75.9967 26.2589C76.0106 25.9546 75.669 26.0246 75.5047 25.9001C75.5588 25.6444 75.5515 25.3497 75.8186 25.2039L74.9996 25.2864C74.7879 25.5906 74.5558 25.8853 74.439 26.2309Z" fill="white"/>
<path fill-rule="evenodd" clip-rule="evenodd" d="M76.1272 28.6134C76.1615 28.6745 76.1272 28.7858 76.1966 28.7998C76.2981 28.22 76.7624 27.845 77.0165 27.3337C77.1385 27.1635 77.1326 26.9204 77.3305 26.79C77.5963 26.79 77.7883 26.983 78.0482 27.0036C78.13 27.0663 78.0059 27.1215 77.9993 27.19C77.9453 27.6601 77.7679 28.0476 77.8015 28.5309H77.8489C78.2111 28.1441 78.4571 27.7278 78.7236 27.2865L78.7704 26.8946C78.8331 26.4253 78.3279 26.1225 77.9979 25.9287L78.2921 25.5486L77.8818 25.4042C77.4035 25.4521 76.9727 25.6525 76.6383 26.0326C76.2221 26.8032 76.1542 27.6755 76.1272 28.6134Z" fill="white"/>
<path fill-rule="evenodd" clip-rule="evenodd" d="M77.9657 24.5216C78.122 24.5687 78.2658 24.4391 78.4221 24.5068C79.0515 24.7419 79.7071 24.9828 80.1788 25.5132L80.7396 26.955L81.0199 26.0643L80.8352 25.5832C80.6775 25.2384 80.2474 25.2664 79.9532 25.2524C79.8305 25.1139 79.9598 24.9555 80.0014 24.8251C80.1445 24.3352 79.5501 24.3624 79.3114 24.1628C79.3253 23.8674 78.9697 23.969 78.7711 23.9425L78.7032 23.86C78.6623 23.7966 78.5601 23.7966 78.5046 23.8452C78.4922 23.8246 78.4644 23.8106 78.4783 23.7767L78.3286 23.8106C78.1154 23.997 77.9723 24.2379 77.9657 24.5216Z" fill="white"/>
<path fill-rule="evenodd" clip-rule="evenodd" d="M78.3607 22.9355C78.3819 23.0239 78.4359 23.1138 78.5038 23.1697C78.812 23.0872 79.1069 22.8721 79.4611 23.004C79.9196 23.4107 80.3971 23.838 80.9513 24.0582L81.1499 24.0244C81.2718 24.0649 81.4084 24.0715 81.4901 24.2108C81.5661 24.3971 81.3748 24.5062 81.3142 24.658C81.6208 24.8863 81.4989 25.2923 81.6895 25.5678L82.1809 24.907C82.0662 24.6167 82.1882 24.1209 81.7384 24.0929C81.5865 24.017 81.485 23.866 81.4909 23.6936C81.1981 23.4247 80.8359 23.3075 80.5424 23.0312C80.3015 22.8389 80.1591 22.5428 79.8524 22.4735C79.64 22.3556 79.4078 22.2938 79.1624 22.24C78.7032 22.1693 78.6623 22.7211 78.3607 22.9355Z" fill="white"/>
<path fill-rule="evenodd" clip-rule="evenodd" d="M79.0179 21.5768L79.0997 21.7094C79.4414 21.6881 79.748 21.5371 80.0832 21.5429C80.308 21.6807 80.6023 21.6733 80.8345 21.7912C81.0192 22.0469 81.2178 22.3349 81.4894 22.5073C82.0436 22.5899 82.3503 23.1918 82.5416 23.6316V23.4187C82.6233 23.1218 82.5343 22.7762 82.4269 22.5073C82.2897 22.3696 82.0903 22.2804 81.9479 22.1574C81.9202 22.0675 81.9406 22.0248 81.9684 21.943C81.7559 21.7153 81.442 21.5908 81.182 21.4111C80.8199 20.8799 80.124 21.0265 79.5699 20.8799L79.0179 21.5768Z" fill="white"/>
<path fill-rule="evenodd" clip-rule="evenodd" d="M79.0062 16.5192C79.0668 16.7336 79.1405 17.0018 79.1821 17.2302C79.3726 16.8029 79.75 16.6091 80.0843 16.2584C79.8923 16.1273 79.6536 16.0647 79.4427 16.0241V16.0101C79.2916 16.1604 79.0595 16.3129 79.0062 16.5192Z" fill="white"/>
<path fill-rule="evenodd" clip-rule="evenodd" d="M80.2474 18.7884L80.554 18.4716C80.8621 18.1533 81.1161 17.7872 81.1621 17.3812C80.9438 17.2508 80.6569 17.3407 80.446 17.4166C80.3708 17.863 80.254 18.3043 80.2474 18.7884Z" fill="white"/>
<path fill-rule="evenodd" clip-rule="evenodd" d="M80.4723 19.7609C80.9439 19.7874 81.4023 19.8839 81.7847 19.615L82.168 18.3743C82.0439 18.367 81.9205 18.311 81.8052 18.3537C81.5526 18.918 81.0475 19.4772 80.4723 19.7609Z" fill="white"/>
<path fill-rule="evenodd" clip-rule="evenodd" d="M80.611 15.3618C80.9183 15.8164 81.4315 16.3255 81.9563 16.4713C81.8957 15.8915 81.4037 15.4915 81.1505 14.9964L81.1366 14.8306C80.9388 14.6376 80.6993 14.5057 80.4942 14.4033C80.4614 14.7341 80.5504 15.0502 80.611 15.3618Z" fill="white"/>
<path fill-rule="evenodd" clip-rule="evenodd" d="M82.2765 19.8154C82.6386 19.8773 83.0284 19.8154 83.3627 19.7115C83.8473 19.5936 84.1145 19.0565 84.278 18.6366H83.67L83.0152 19.2842C82.7561 19.4212 82.5101 19.6282 82.2765 19.8154Z" fill="white"/>
<path fill-rule="evenodd" clip-rule="evenodd" d="M82.2028 14.7341C82.3057 15.2727 82.532 15.7619 82.8393 16.2238L82.9203 15.1961L82.2028 14.7341Z" fill="white"/>
<path fill-rule="evenodd" clip-rule="evenodd" d="M84.4426 17.4158C84.4842 17.071 84.3412 16.6702 84.301 16.3203C84.0959 16.1818 83.8098 16.195 83.5974 16.0587C83.6112 16.6017 84.0331 17.0644 84.4426 17.4158Z" fill="white"/>
<path fill-rule="evenodd" clip-rule="evenodd" d="M83.8215 20.9183C84.2514 20.7805 84.6682 20.6287 85.0653 20.4084C85.3179 20.0423 85.6996 19.7122 85.7551 19.2849C85.439 19.3741 85.1675 19.2702 84.8733 19.4161C84.696 19.7395 84.5858 20.1064 84.2449 20.3399C84.1901 20.5727 83.9376 20.7319 83.8215 20.9183Z" fill="white"/>
<path fill-rule="evenodd" clip-rule="evenodd" d="M84.4903 21.7662L85.0027 22.4418C85.2765 22.5309 85.6181 22.5044 85.8568 22.346L85.6735 21.733C85.3108 21.8693 84.8801 21.8295 84.4903 21.7662Z" fill="white"/>
<path fill-rule="evenodd" clip-rule="evenodd" d="M85.3446 16.8853L85.5424 17.7945C86.0205 17.4025 86.119 16.8301 86.1052 16.2238C85.8322 16.5406 85.6738 16.7336 85.3446 16.8853Z" fill="white"/>
<path fill-rule="evenodd" clip-rule="evenodd" d="M86.6917 18.4907C86.6983 18.6226 86.7319 18.7464 86.8063 18.8495C87.3392 19.0433 87.3939 19.6968 87.8866 19.945C88.2063 20.0909 88.5764 19.9112 88.8552 19.7793C88.6443 19.5384 88.4056 19.3726 88.2005 19.1184C88.0574 19.0565 87.9122 18.9667 87.9202 18.7876L86.6917 18.4907Z" fill="white"/>
<path fill-rule="evenodd" clip-rule="evenodd" d="M87.1152 21.7463C87.3466 22.0138 87.6604 22.153 87.9882 22.2274C87.9342 22.1523 88.0232 22.2274 88.0363 22.1803L87.6261 21.2697C87.421 21.277 87.2086 21.319 87.0181 21.305C87.0334 21.4568 87.0663 21.6078 87.1152 21.7463Z" fill="white"/>
<path fill-rule="evenodd" clip-rule="evenodd" d="M87.8392 17.4991C87.6473 17.0511 87.5684 16.5052 87.5122 16.0101C87.3086 16.2584 87.0961 16.4175 86.9042 16.671C86.8151 17.1808 87.5385 17.3053 87.8392 17.4991Z" fill="white"/>
<path fill-rule="evenodd" clip-rule="evenodd" d="M88.6718 17.029C88.9192 17.3547 89.4579 17.2442 89.7587 17.1469C89.6149 16.8986 89.1521 16.7528 89.0703 16.4861C89.0236 16.0101 88.9273 15.5467 88.7762 15.1143C88.5375 15.6992 88.2484 16.3962 88.6718 17.029Z" fill="white"/>
<path fill-rule="evenodd" clip-rule="evenodd" d="M89.1027 18.4907C89.7861 18.9939 90.4563 19.5803 91.4114 19.3659C91.48 19.3188 91.5968 19.3239 91.61 19.2355C91.3296 19.0565 91.0295 18.9172 90.7426 18.7522L90.4155 18.2704H90.265C89.8956 18.3934 89.4999 18.4435 89.1027 18.4907Z" fill="white"/>
<path fill-rule="evenodd" clip-rule="evenodd" d="M89.1165 24.0826H89.1654C89.575 23.7518 90.0599 23.6405 90.5447 23.5035C90.6754 23.5521 90.5929 23.6973 90.7097 23.7518C91.0032 23.6288 91.3588 23.6553 91.6589 23.5521C92.021 23.5654 92.3153 23.572 92.6088 23.7304C92.8425 24.0413 93.2783 24.006 93.5799 24.2137L93.531 23.7304C92.8965 22.979 91.9057 22.9244 90.9901 22.9384L90.9696 22.8419C90.7513 22.8419 90.5053 22.8891 90.3001 22.9863C90.0073 23.0003 89.7262 23.1447 89.4458 23.2339C89.3151 23.4961 89.2122 23.8151 89.1165 24.0826Z" fill="white"/>
<path fill-rule="evenodd" clip-rule="evenodd" d="M89.6655 15.6093C89.9312 15.9615 90.3275 16.2311 90.7786 16.1412C90.5473 15.9121 90.2794 15.6712 90.2662 15.3478C90.3348 14.7341 89.6655 14.6847 89.3377 14.3679C89.4472 14.782 89.4326 15.2439 89.6655 15.6093Z" fill="white"/>
<path fill-rule="evenodd" clip-rule="evenodd" d="M89.5955 25.3026H89.6773C90.0387 25.0756 90.5651 25.2488 90.9207 25.0071C91.1186 24.9032 91.1325 25.1795 91.269 25.2554C91.6041 25.461 91.6458 26.082 92.1167 25.9376C92.6826 26.2338 92.5402 26.93 92.5606 27.4398L93.0871 27.1098C93.0389 26.8409 93.19 26.5167 93.0184 26.2824C92.8885 25.9862 92.5329 25.959 92.362 25.7181C92.5679 25.3659 92.1028 25.1994 92.0065 24.9445L92.0349 24.9106L92.7592 25.0071C93.0053 25.1582 93.0944 25.4344 93.1696 25.6901C93.7354 25.7866 93.872 26.4342 94.0706 26.8475C94.1874 26.5653 94.2349 26.2611 94.351 25.9855C94.3583 25.7579 94.0574 25.7579 93.907 25.6547C93.8669 25.3026 93.7092 24.9725 93.4018 24.7596C92.7731 24.599 92.2204 24.249 91.5304 24.249L90.9565 24.4273C90.6411 24.5039 90.3067 24.4074 90.0672 24.627C89.7109 24.655 89.6846 25.0484 89.5955 25.3026Z" fill="white"/>
<path fill-rule="evenodd" clip-rule="evenodd" d="M89.9569 22.4624L90.0876 22.5251C90.368 22.3939 90.6476 22.2421 90.9419 22.1316C91.3982 22.0012 91.7538 22.5251 92.1379 22.1935C92.2802 22.0911 92.4044 22.2421 92.5124 22.3254C92.6789 22.6282 93.06 22.6076 93.3477 22.6893C93.2039 22.2974 93.0257 21.7596 92.527 21.697C92.3292 21.6078 92.0962 21.6152 91.9057 21.4973C91.3792 20.9116 91.0383 21.9806 90.4622 21.7191C90.2585 21.9452 90.0051 22.1604 89.9569 22.4624Z" fill="white"/>
<path fill-rule="evenodd" clip-rule="evenodd" d="M90.0876 25.8205C90.3059 26.0069 90.5314 26.3244 90.8738 26.2824C91.2964 26.4821 91.119 27.0479 91.3504 27.3448L91.5964 27.1238L91.576 27.109L91.6103 27.0751L91.6249 27.0943C91.6928 26.8887 91.5971 26.5233 91.4803 26.2809C91.3241 26.1712 91.1402 26.2883 90.9891 26.1844C90.9687 25.9627 90.8322 25.8536 90.6752 25.7166C90.5657 25.6326 90.4219 25.7431 90.2986 25.7358L90.0876 25.8205Z" fill="white"/>
<path fill-rule="evenodd" clip-rule="evenodd" d="M90.9419 17.4158C91.1667 17.7944 91.604 18.0295 91.9529 18.291C92.2405 18.4221 92.6149 18.4568 92.9229 18.3868C92.6288 18.1459 92.3616 17.8696 92.1171 17.5808C92.0207 17.4423 92.0003 17.2692 91.8711 17.1461C91.5499 17.2087 91.1871 17.2014 90.9419 17.4158Z" fill="white"/>
<path fill-rule="evenodd" clip-rule="evenodd" d="M91.3186 14.9485C91.6325 15.3412 92.1179 15.1828 92.5617 15.1968V15.1482L91.8785 14.5691C91.6873 14.6302 91.4829 14.8026 91.3186 14.9485Z" fill="white"/>
<path fill-rule="evenodd" clip-rule="evenodd" d="M78.7397 8.44604L79.1353 9.68744C79.128 8.98386 79.4506 8.39668 79.382 7.68057L79.6747 7.23853L79.0528 7.43229C78.8893 7.74908 78.7528 8.06662 78.7397 8.44604Z" fill="white"/>
<path fill-rule="evenodd" clip-rule="evenodd" d="M79.0062 6.29479L79.5456 5.978V5.17053C79.3186 5.3083 79.1967 5.54406 79.0193 5.72824L79.0062 6.29479Z" fill="white"/>
<path fill-rule="evenodd" clip-rule="evenodd" d="M90.0891 7.54941C89.9591 7.72107 89.7613 7.7638 89.597 7.79695C89.8846 7.26724 90.0212 6.52903 89.7956 5.92859C89.9453 5.87407 90.1095 5.84607 90.2526 5.76356L90.2388 5.74883L90.6148 5.41803C91.1135 5.07324 90.9215 4.41901 91.1062 3.92908C90.8609 3.54377 90.7856 3.07447 90.4301 2.75031L90.4505 2.73631C90.1701 2.37752 89.6649 2.41951 89.2823 2.24048C88.7756 2.06809 88.3864 2.41951 88.0235 2.65379C87.8665 2.68179 87.9629 2.88808 87.792 2.88071C87.6964 3.13562 87.5796 3.4119 87.5109 3.6948C86.8348 3.59829 86.1039 3.67417 85.5644 4.06022C85.276 3.84583 84.9291 3.80531 84.594 3.7088C84.3479 3.65944 84.0683 3.74932 83.8909 3.61155C83.6317 3.31612 83.5755 2.77756 83.1308 2.70242C82.9738 2.64643 82.941 2.47403 82.941 2.32226C82.6467 2.2729 82.386 2.13587 82.1006 2.07398C81.6632 1.87359 81.3149 2.19186 80.9871 2.40478C80.8425 2.46593 80.679 2.48729 80.5424 2.56981C80.2971 2.95659 80.0656 3.34927 79.9065 3.77658C79.9554 4.128 80.1051 4.43743 80.2832 4.73507C80.4402 5.18301 80.9323 5.53517 81.3485 5.71493C81.1506 6.39715 81.1506 7.20977 81.3485 7.89936C81.3485 7.89936 81.3376 7.90894 81.3376 7.90673C81.3376 7.90894 81.3156 7.92736 81.3156 7.92736C81.2514 7.92736 81.1798 7.93988 81.1265 7.90673H81.1178C81.2156 8.56537 81.5223 9.14297 82.0188 9.63732C82.1969 9.69921 82.1553 9.9136 82.2298 10.0506C82.278 10.1133 82.2853 10.2437 82.2648 10.2989C81.1981 10.265 80.2482 10.5339 79.3939 11.0231C79.1756 11.1336 79.2712 11.4364 79.2508 11.6508C79.8524 11.25 80.5008 10.9546 81.2185 10.8227C81.5259 10.8036 81.8735 10.7262 82.1685 10.8087L82.202 11.4033C81.3901 11.8313 80.5008 12.0789 79.805 12.7825C79.8181 12.9954 79.7772 13.2429 79.8386 13.4227L80.4614 12.9129C81.0623 12.4502 81.6909 12.0575 82.3802 11.8026C82.5657 12.0229 82.757 12.2586 83.003 12.3957C83.4192 12.126 83.8712 11.9264 84.3494 11.8026C84.602 11.6508 85.0058 11.7886 85.1694 11.4858L85.2847 10.8581C85.2657 10.8441 85.2511 10.8161 85.2168 10.8227C84.8963 10.6363 84.6838 10.3129 84.7116 9.93423C84.602 9.98875 84.4801 10.0241 84.3494 10.0293C84.2413 10.0027 84.1377 9.97475 84.0902 9.8635C84.0836 9.72647 84.0143 9.51944 84.1523 9.41704C84.5955 9.14076 85.1701 9.12676 85.7301 9.16802C86.1463 9.22401 86.7479 9.20265 86.8925 9.69921C86.8721 9.84435 86.8852 10.0035 86.7414 10.0993C86.591 10.1818 86.4208 10.0919 86.2836 10.0293C86.1748 10.3682 85.99 10.7468 85.6147 10.8574L85.6615 11.2567C85.7082 11.4364 85.7228 11.7326 86.0032 11.67C86.6523 11.8299 87.2269 12.1673 87.7935 12.532C87.9855 12.3397 88.1352 12.1187 88.271 11.9183C89.2837 12.2645 90.157 13.0293 90.9923 13.7402L91.0251 13.1604C90.2322 12.4494 89.3516 11.947 88.4353 11.5543C88.4704 11.3679 88.5112 11.1882 88.5185 10.9878C89.6043 11.0504 90.636 11.3885 91.5304 11.9183L91.5165 11.4224C90.5739 10.9119 89.5422 10.5745 88.4156 10.5612C88.3732 10.4993 88.3601 10.4094 88.3674 10.3475C88.9143 10.2584 89.3027 9.68668 89.4334 9.18865C89.7145 8.86522 90.1176 8.51306 90.0219 8.03124C90.0336 7.99072 90.0475 7.94872 90.0621 7.90673C90.0978 7.78811 90.1285 7.66139 90.0891 7.54941Z" fill="white"/>
<path fill-rule="evenodd" clip-rule="evenodd" d="M91.0383 9.32203L91.5981 9.14227L91.6609 8.82621C91.8178 8.36353 91.4828 8.01874 91.3186 7.65332L91.0383 9.32203Z" fill="white"/>
<path fill-rule="evenodd" clip-rule="evenodd" d="M92.4526 11.5064C92.719 11.8033 92.9788 12.2785 93.4504 12.1341C93.4154 11.9337 93.3059 11.768 93.2387 11.5889C93.1161 11.4445 93.0737 11.0305 92.8285 11.1756C92.6438 11.0519 92.5971 10.8448 92.4796 10.6791C92.4263 10.9347 92.4599 11.2515 92.4526 11.5064Z" fill="white"/>
<path fill-rule="evenodd" clip-rule="evenodd" d="M92.5482 13.5266C92.6511 13.671 92.6796 13.8581 92.7803 13.9893C92.965 14.1123 93.2387 14.0917 93.465 14.0718C93.6687 14.0232 93.7993 14.2501 93.9898 14.1197C93.7511 13.9679 93.6081 13.6924 93.3833 13.4913C93.1161 13.2791 92.8292 13.4655 92.5482 13.5266Z" fill="white"/>
<path fill-rule="evenodd" clip-rule="evenodd" d="M92.9111 16.7336C93.3826 17.0158 93.9811 17.2921 94.6103 17.1956C94.6782 17.1617 94.795 17.1683 94.8082 17.0858C94.4184 16.9473 94.0096 16.5546 93.6008 16.4721C93.3753 16.1207 93.0811 16.562 92.7943 16.534C92.8008 16.6158 92.8826 16.6776 92.9111 16.7336Z" fill="white"/>
<path fill-rule="evenodd" clip-rule="evenodd" d="M94.3298 22.8213L94.4327 23.0416C94.5363 23.7592 94.9852 24.42 94.74 25.2061C94.9451 25.352 95.0064 25.5929 95.1371 25.7859H95.1707C95.3276 25.187 95.2188 24.5659 95.1371 23.9654C95.1984 23.421 94.6509 23.1042 94.3298 22.8213Z" fill="white"/>
<path fill-rule="evenodd" clip-rule="evenodd" d="M94.4481 15.7611C94.8028 16.0374 95.37 16.0639 95.7795 15.9269C95.5203 15.7825 95.2335 15.6226 95.0211 15.4303L94.4481 15.7611Z" fill="white"/>
<path fill-rule="evenodd" clip-rule="evenodd" d="M96.1347 17.877C96.1011 18.1673 96.2916 18.4082 96.4967 18.5541C96.5719 18.3825 96.6938 18.2358 96.7077 18.0436C96.6464 17.7474 96.4821 17.4777 96.2157 17.2773C96.169 17.4704 96.1135 17.6568 96.1347 17.877Z" fill="white"/>
<path fill-rule="evenodd" clip-rule="evenodd" d="M96.1551 21.0221C96.1062 21.3456 96.4617 21.3876 96.6113 21.5666C96.7347 21.7184 96.5296 21.8222 96.5296 21.9666C96.7894 22.3041 96.9405 22.6886 96.9405 23.138C97.042 22.7181 97.1989 22.3181 97.2544 21.8841C97.2267 21.5798 96.7493 21.6432 96.8238 21.305C96.961 20.9603 96.7967 20.6228 96.7077 20.3112C96.6814 20.264 96.6186 20.1668 96.5654 20.1955C96.4413 20.477 96.1347 20.6773 96.1551 21.0221Z" fill="white"/>
<path fill-rule="evenodd" clip-rule="evenodd" d="M97.0912 19.3807L97.4459 20.0769C97.6029 20.0563 97.705 19.9045 97.8277 19.794C97.9233 19.5045 97.67 19.3181 97.5963 19.083C97.5342 18.9173 97.5963 18.6977 97.4795 18.5533C97.3905 18.4973 97.289 18.4075 97.1868 18.4355L97.0912 19.3807Z" fill="white"/>
<path fill-rule="evenodd" clip-rule="evenodd" d="M97.5475 17.5461C97.8286 17.7185 98.1492 17.9661 98.3003 18.2704C98.5391 18.9739 98.9216 19.6068 99.2013 20.2898C99.3042 20.7657 99.386 21.1908 99.5153 21.6586C99.5642 21.7831 99.5364 22.024 99.7285 22.0034C99.7818 21.4796 99.8847 20.9757 99.892 20.4312C99.7212 20.2036 99.4963 20.1078 99.2838 19.97V19.9214C99.3115 19.805 99.4079 19.6657 99.5503 19.6878C99.6109 19.6186 99.7964 19.5501 99.7146 19.4256C99.359 19.0675 99.3795 18.4509 98.8136 18.3396C98.615 18.2571 98.5675 18.0493 98.5471 17.8578C98.2799 17.6287 97.8841 17.5535 97.5475 17.5461Z" fill="white"/>
<path fill-rule="evenodd" clip-rule="evenodd" d="M97.8775 21.2837C98.225 21.6071 98.1031 22.0764 98.0754 22.5111C98.0213 22.7733 98.3483 22.6201 98.4513 22.7593C98.6637 23.0761 98.5403 23.5388 98.4659 23.8829C98.6505 23.5992 98.8615 23.3517 99.0046 23.0408C98.9987 22.9244 99.1484 22.8684 99.1418 22.7232C99.2024 22.5236 98.971 22.6135 98.8746 22.5928C98.7929 22.5722 98.7046 22.517 98.7323 22.4064C98.9082 22.0617 98.7454 21.6483 98.6768 21.3036C98.5951 21.0206 98.7119 20.6412 98.5805 20.3929C98.3615 20.698 97.7118 20.7665 97.8775 21.2837Z" fill="white"/>
<path fill-rule="evenodd" clip-rule="evenodd" d="M98.512 16.3888C99.1208 17.0098 99.5646 17.6331 100.22 18.2336C100.234 17.9639 100.2 17.7164 100.187 17.4541C100.091 17.2677 99.9128 17.1307 99.7617 16.9914C99.277 16.9443 99.0245 16.2849 98.512 16.3888Z" fill="white"/>
<path fill-rule="evenodd" clip-rule="evenodd" d="M100.103 19.6739C100.118 19.7373 100.145 19.7918 100.173 19.8529C100.439 20.295 100.692 20.7503 100.877 21.2255C100.821 20.7149 101.163 20.0813 100.711 19.6879C100.65 19.5214 100.447 19.5774 100.315 19.5907L100.103 19.6739Z" fill="white"/>
<path fill-rule="evenodd" clip-rule="evenodd" d="M101.744 24.7102C101.935 24.8001 102.181 24.6417 102.366 24.5312C102.537 24.49 102.68 24.5872 102.81 24.6764C102.864 24.7861 102.81 24.89 102.831 24.9939C103.24 25.1103 103.643 25.2628 104.005 25.5037L104.12 25.3866C104.148 25.0904 103.917 24.876 103.697 24.7102C103.554 24.6277 103.341 24.6764 103.24 24.5452C103.308 24.4347 103.308 24.2689 103.301 24.1452C103.075 24.1452 102.932 24.0752 102.748 23.9661C102.632 23.9315 102.529 23.8343 102.433 23.9661C102.092 24.1997 102.072 24.5452 101.744 24.7102Z" fill="white"/>
<path fill-rule="evenodd" clip-rule="evenodd" d="M102.223 16.0344C102.393 15.985 102.572 15.9372 102.715 15.8126C103.173 15.392 103.835 15.6749 104.369 15.6682C104.266 15.4818 104.121 15.2955 103.992 15.1371C103.8 15.0612 103.623 14.972 103.404 14.972C102.939 14.6958 102.626 15.1584 102.27 15.3853C102.174 15.5717 102.127 15.8473 102.223 16.0344Z" fill="white"/>
<path fill-rule="evenodd" clip-rule="evenodd" d="M102.235 17.4541C102.235 17.4328 102.235 17.4114 102.256 17.4062C102.318 17.4608 102.249 17.5934 102.352 17.6199C102.529 17.53 102.694 17.4062 102.857 17.2891C103.315 17.2891 103.589 16.8404 104.039 16.8404C104.791 16.9789 105.536 17.1314 106.191 17.502C106.144 17.0555 105.76 16.6474 105.372 16.4477C105.152 16.3719 104.981 16.489 104.825 16.6135C104.368 16.9038 104.607 16.1928 104.286 16.1788C103.868 16.3092 103.438 16.4551 102.973 16.4124C102.7 16.517 102.508 16.7712 102.201 16.7432C102.188 16.9723 102.155 17.2486 102.235 17.4541Z" fill="white"/>
<path fill-rule="evenodd" clip-rule="evenodd" d="M102.55 18.991C102.694 19.1442 102.932 19.1162 103.138 19.1442L103.733 18.9085C103.739 18.8002 103.555 18.7707 103.596 18.6469C103.76 18.4605 103.984 18.5924 104.19 18.5165C104.477 18.4745 104.771 18.1865 105.058 18.3987C105.049 18.434 105.07 18.4812 105.043 18.5165C104.955 18.7302 105.105 18.8613 105.269 18.9438C105.604 19.0057 105.917 19.3166 106.252 19.1774C106.219 18.8945 106.144 18.6344 106.076 18.364C105.795 18.3161 105.597 18.0819 105.337 17.9846C105.222 18.0951 105.07 18.1776 104.927 18.1636C104.401 18.0391 103.771 17.7083 103.239 18.0465C103.048 18.2815 102.706 18.2123 102.446 18.3154C102.461 18.5497 102.488 18.7781 102.55 18.991Z" fill="white"/>
<path fill-rule="evenodd" clip-rule="evenodd" d="M102.776 23.0902C102.735 23.2073 102.619 23.3996 102.832 23.4556C103.268 23.4689 103.829 23.2412 104.17 23.586C104.286 23.6759 104.231 23.8623 104.224 23.9794L104.797 24.462C104.852 24.171 104.956 23.9094 104.963 23.5993C104.915 23.3783 104.805 23.1653 104.614 23.0209C104.237 23.0209 104.02 22.5767 103.616 22.6312C103.405 22.584 103.22 22.7734 103.007 22.7734C102.913 22.8692 102.858 22.987 102.776 23.0902Z" fill="white"/>
<path fill-rule="evenodd" clip-rule="evenodd" d="M102.94 19.8389C103.028 20.0253 103.132 20.3288 103.302 20.3487C103.705 20.1712 104.293 20.0599 104.744 20.2537C104.894 20.2802 104.894 20.4526 104.861 20.5631C105.092 20.7009 105.372 20.8114 105.619 20.9624L105.55 20.5484C105.536 20.1005 104.977 20.0599 104.942 19.6179C104.484 19.4669 103.971 19.4175 103.487 19.5354C103.33 19.6798 103.103 19.6606 102.913 19.7011C102.899 19.7564 102.932 19.7918 102.94 19.8389Z" fill="white"/>
<path fill-rule="evenodd" clip-rule="evenodd" d="M103.056 22.0734C103.322 21.9968 103.494 21.7013 103.781 21.6733C104.217 21.6807 104.607 21.8605 104.881 22.2406C105.044 22.3489 105.01 22.6318 105.222 22.6318C105.159 22.2944 105.269 21.985 105.255 21.6387C104.97 21.1569 104.259 21.5297 103.992 20.9631L103.487 20.9978C103.124 21.0884 103.221 21.5157 103.173 21.806C103.132 21.8944 103.05 21.9636 103.056 22.0734Z" fill="white"/>
<path fill-rule="evenodd" clip-rule="evenodd" d="M105.565 25.0897C105.775 25.517 106.241 25.8412 106.288 26.3304C106.397 26.2 106.473 26.0482 106.547 25.9031C106.54 25.7653 106.383 25.7653 106.322 25.6548C106.259 25.4758 106.355 25.3174 106.383 25.1582C106.294 24.9033 106.081 24.6624 105.843 24.5099L105.565 25.0897Z" fill="white"/>
<path fill-rule="evenodd" clip-rule="evenodd" d="M106.405 24.0001L106.896 24.6764C107.107 24.339 107.107 23.8417 107.025 23.435C106.979 23.3584 106.889 23.2346 106.767 23.2906C106.582 23.4829 106.555 23.7798 106.405 24.0001Z" fill="white"/>
<path fill-rule="evenodd" clip-rule="evenodd" d="M104.402 5.12771C104.58 5.21759 104.75 5.3001 104.963 5.3141C105.106 5.23822 105.291 5.18222 105.469 5.23159C105.721 5.39735 106.028 5.19696 106.323 5.21096C106.063 4.96268 105.768 4.81017 105.469 4.66577C105.085 4.74755 104.779 5.02383 104.402 5.12771Z" fill="white"/>
<path fill-rule="evenodd" clip-rule="evenodd" d="M107.074 5.77461C107.436 5.80924 107.696 6.1334 107.941 6.40231C108.248 6.44946 108.48 6.67122 108.664 6.89814L108.55 6.53345C108.468 6.16729 108.241 5.88439 108.01 5.59485C107.682 5.61621 107.36 5.64495 107.074 5.77461Z" fill="white"/>
<path fill-rule="evenodd" clip-rule="evenodd" d="M81.5749 2.7511L81.7734 2.77246C82.305 3.04137 83.1658 3.17914 83.2155 3.95787C82.6744 4.17226 82.1553 4.46107 81.7245 4.90237C81.3974 4.56494 80.7345 4.7506 80.6242 4.15827C80.7279 3.59835 80.925 2.89476 81.5749 2.7511Z" fill="#72777A"/>
<path fill-rule="evenodd" clip-rule="evenodd" d="M82.0881 6.24756C82.7102 6.19157 83.3111 6.28071 83.9536 6.2262C84.1099 6.29471 84.2735 6.43175 84.3494 6.59088C84.3282 7.33572 84.1033 8.04667 84.0697 8.81141C83.7894 8.92781 83.5156 9.16357 83.4469 9.473C83.1943 9.54888 82.968 9.69991 82.7219 9.81705C82.6146 9.58351 82.6335 9.23135 82.8256 9.03758C83.0921 8.6589 83.7828 8.74731 83.728 8.14761C83.9055 7.85881 83.7353 7.48602 83.7404 7.18322C83.6725 6.95483 83.6039 7.2591 83.4951 7.25173C83.2768 7.29889 83.0519 7.31288 82.8599 7.20237C82.7161 7.0506 82.5401 6.9261 82.4977 6.72055C82.3057 6.62403 82.0816 6.473 81.9852 6.27261L82.0881 6.24756Z" fill="#72777A"/>
<path fill-rule="evenodd" clip-rule="evenodd" d="M82.8394 10.741C83.1314 10.7837 83.4402 10.6511 83.6928 10.797C83.6395 10.8942 83.4949 10.9348 83.3789 10.9628L82.9205 11.1757C82.7504 11.1352 82.846 10.8589 82.8394 10.741Z" fill="#72777A"/>
<path fill-rule="evenodd" clip-rule="evenodd" d="M84.0345 4.98487C84.3273 4.88835 84.6426 4.68943 84.9565 4.78447C84.7316 5.01286 84.5543 5.30829 84.3835 5.58457L83.4477 5.56394C83.5506 5.31492 83.8097 5.10937 84.0345 4.98487Z" fill="#72777A"/>
<path fill-rule="evenodd" clip-rule="evenodd" d="M86.7748 4.75787C87.1638 4.68935 87.1427 5.19918 87.4981 5.21833C87.5609 5.30084 87.65 5.37673 87.6149 5.50124C87.4091 5.58375 87.1091 5.54397 86.877 5.59775C86.5689 5.42535 86.7682 4.88753 86.2828 4.92216C86.2558 4.88017 86.2018 4.79765 86.2689 4.77039C86.4193 4.71588 86.6186 4.7365 86.7748 4.75787Z" fill="#72777A"/>
<path fill-rule="evenodd" clip-rule="evenodd" d="M86.5289 6.60423C86.6997 6.36258 86.9597 6.34269 87.2057 6.2948L88.9756 6.32795C89.0508 6.39794 88.907 6.45983 88.907 6.54234C88.7982 6.64622 88.6404 6.67422 88.5448 6.76999C88.3126 6.77663 88.3331 7.0529 88.1695 7.17078C87.9162 7.42569 87.5467 7.30781 87.2532 7.26729C87.151 7.19067 87.0349 7.08753 86.9859 6.97039L86.9042 7.0529C87.0071 7.43969 86.9801 7.867 87.056 8.25968L87.4795 8.54258C87.4861 9.17618 88.2243 9.00378 88.5448 9.35594C88.4696 9.58433 88.3192 9.77662 88.1556 9.96964C87.8964 9.71473 87.6015 9.5497 87.2882 9.43846C87.2605 9.06788 86.8574 8.84612 86.6333 8.66046C86.5705 7.98414 86.5573 7.29455 86.4486 6.63959L86.5289 6.60423Z" fill="#72777A"/>
<path fill-rule="evenodd" clip-rule="evenodd" d="M87.1714 10.8588H87.9918L87.8889 11.2928L87.0677 10.9414C87.0488 10.8728 87.1232 10.8522 87.1714 10.8588Z" fill="#72777A"/>
<path fill-rule="evenodd" clip-rule="evenodd" d="M88.647 3.04801L89.2552 2.85498C89.6043 3.02001 89.9314 3.2263 90.2526 3.46132C90.5053 3.92988 90.4651 4.56421 90.3483 5.08803C90.1635 5.29432 89.7605 5.08803 89.6108 5.41883H89.5824C89.3575 4.77123 88.7149 4.19068 88.1206 3.89599C88.2163 3.56446 88.3192 3.24029 88.647 3.04801Z" fill="#72777A"/>
</g>
<defs>
<clipPath id="clip0_0_399">
<rect width="117" height="30" fill="white"/>
</clipPath>
</defs>
</svg>
