<svg width="47" height="17" viewBox="0 0 47 17" fill="none" xmlns="http://www.w3.org/2000/svg">
<path d="M44.4811 16.7519H47V0.603548H44.4811V16.7519ZM18.2394 10.0994L20.2093 5.47219L22.134 10.0994H18.2394ZM5.56095 10.0994L7.53086 5.47219L9.45555 10.0994H5.56095ZM34.6122 11.8899L29.0965 0.0938916L26.1384 13.3385L20.6227 0.851672L20.261 0L19.8864 0.844976L13.8346 14.1968L7.94421 0.851672L7.58252 0L7.20792 0.844976L0.251898 16.202L0 16.7586H2.71912L2.82246 16.5172L4.54048 12.4667H10.4502L12.123 16.5172L12.2263 16.7586H15.3976L15.5009 16.5172L17.2189 12.4667H23.1286L24.8079 16.5172L24.9112 16.7586H27.6433H27.6366H27.6753L29.755 6.86706L34.6378 17L39.5142 6.73295L41.5938 16.7586H43.99L40.1665 0.100587L34.6122 11.8899Z" fill="#E1000A"/>
</svg>
