<svg width="82" height="29" viewBox="0 0 82 29" fill="none" xmlns="http://www.w3.org/2000/svg">
<g clip-path="url(#clip0_0_313)">
<path d="M77.6054 28.5767H82V1.02958H77.6054V28.5767ZM31.8219 17.2284L35.2588 9.33492L38.6167 17.2284H31.8219ZM9.70208 17.2284L13.1389 9.33492L16.4969 17.2284H9.70208ZM60.3873 20.2828L50.7641 0.160168L45.6032 22.7538L35.9799 1.45285L35.3489 0L34.6954 1.44143L24.1369 24.2182L13.8601 1.45285L13.2291 0L12.5755 1.44143L0.439482 27.6387L0 28.5882H4.74399L4.92428 28.1763L7.92169 21.2667H18.2322L21.1507 28.1763L21.331 28.5882H26.8638L27.0441 28.1763L30.0415 21.2667H40.3521L43.2819 28.1763L43.4622 28.5882H48.2287H48.2171H48.2846L51.9131 11.7144L60.4319 29L68.9396 11.4856L72.568 28.5882H76.7486L70.0777 0.17159L60.3873 20.2828Z" fill="#72777A"/>
</g>
<defs>
<clipPath id="clip0_0_313">
<rect width="82" height="29" fill="white"/>
</clipPath>
</defs>
</svg>
