<svg width="50" height="53" viewBox="0 0 50 53" fill="none" xmlns="http://www.w3.org/2000/svg">
<path fill-rule="evenodd" clip-rule="evenodd" d="M46.5262 24.7534C44.4477 25.1922 43.8077 23.3904 42.079 22.2494C40.3443 21.1071 38.7534 20.6695 37.1478 19.0749C36.503 18.4312 36.3384 17.3328 35.6971 16.6611C34.8426 15.7517 34.322 15.503 33.1615 15.0507C31.1256 14.2608 29.3786 13.6756 27.6866 12.2834C27.4001 12.0518 26.7284 11.7422 26.1005 11.6251C25.8323 11.5678 25.7116 11.6105 25.6214 11.7129C25.3691 12.0372 25.1387 12.4285 24.9144 12.7967C24.8522 12.8978 24.6437 13.1929 24.4755 13.3526C24.1476 13.6451 23.7392 14.0255 23.4271 14.1998C21.724 15.2397 19.4809 16.1186 18.513 17.8607C18.3338 18.1801 16.4771 19.0457 16.048 19.3797C15.3738 19.9356 14.7119 20.4781 14.0182 20.9901C13.3697 21.4741 12.4712 22.2201 11.7946 22.7175C11.4374 22.5871 11.0717 22.47 10.734 22.4127C9.93673 22.2494 9.26624 21.635 8.58111 21.2266C7.70216 20.6695 7.76799 20.6122 7.49004 20.4488C7.24744 20.3184 7.12797 20.2306 7.0341 20.1879C6.38067 19.8051 6.34166 20.1879 5.41394 20.7572C4.64104 21.2266 3.74989 22.0153 3.0855 22.6444C2.55519 23.143 2.01514 23.6696 1.46168 24.2109C2.2553 12.2395 12.3822 2.78803 24.7632 2.78803C37.0198 2.78803 47.0651 12.0652 48.0342 23.8586C47.6563 24.3572 47.1199 24.6229 46.5262 24.7534ZM24.7486 0C11.0802 0 0 11.04 0 24.6558C0 30.3307 1.92615 35.5361 5.15671 39.7041L5.83208 39.147C4.03394 36.7211 2.70758 33.9416 1.98466 30.9158C2.19313 30.9597 2.44548 31.0316 2.8624 31.1621C4.23753 31.6022 6.83051 32.4482 8.69814 31.6022C9.88553 31.0463 11.9531 30.5915 12.7455 30.2855C13.4964 29.9783 15.0825 30.6647 13.2112 29.4371H13.2014C13.1771 29.4224 13.1478 29.4078 13.1063 29.3932C13.0442 29.3639 12.9832 29.3493 12.9125 29.3347C12.7296 29.2908 11.229 29.5821 10.8962 29.5395C10.7925 29.5102 10.6926 29.4797 10.5938 29.4224C9.77947 28.9836 13.2551 26.2797 13.3697 25.6043C12.3712 25.7091 11.5484 26.3382 10.656 26.7307C9.60758 27.1854 8.45677 27.2001 7.33278 27.2135C6.04786 27.2135 5.04822 28.2095 3.91935 28.6642C3.32809 28.9104 2.35892 29.1311 1.70428 29.5541C1.65551 29.2774 1.61406 28.9982 1.57749 28.7215C1.59822 28.2375 1.65064 27.6523 1.77011 26.9806C2.02733 25.5177 2.62346 24.3767 3.94982 22.6224C3.94982 22.6224 5.24205 21.0742 5.99666 20.5756C6.28924 20.3696 6.6062 20.0941 6.91829 20.283C7.24744 20.489 6.82686 21.7605 7.70947 21.9788C8.24221 22.0958 7.77164 22.9735 7.95573 23.4855C8.15078 24.0268 5.76138 26.1175 6.39164 26.3662C6.74274 26.5125 8.32633 25.7091 9.16627 25.4446C9.90747 25.2117 10.6962 25.1971 11.5081 24.4352C12.3444 23.6599 13.1734 23.221 13.1734 23.221C13.8536 22.6505 14.5144 22.0665 15.1849 21.496C15.8395 20.9255 16.4649 20.3403 17.0988 19.7552C17.4963 19.3772 19.292 18.3825 19.4517 18.0448C20.2867 16.2466 22.4664 15.1921 24.0878 14.0523C24.3853 13.8487 24.7083 13.4086 24.8924 13.1624C25.0753 12.9125 25.2703 12.5333 25.3764 12.4139C25.5824 12.181 25.6324 12.0067 25.864 11.8897C25.9567 11.8433 26.3224 11.8433 26.4809 12.0213C27.0087 12.5772 27.728 13.06 27.7536 13.6439C27.7987 14.5497 30.3442 15.3409 30.9244 16.0431C31.1634 16.3344 31.3036 16.6124 31.4023 16.8891C30.9586 16.7148 30.5209 16.4966 30.1333 16.2186C29.876 16.0284 29.2762 16.0723 28.9703 16.0284C28.0901 15.8651 28.2937 16.2759 28.7801 16.7721C29.2787 17.2999 29.8577 17.7388 30.3125 18.3093C30.8367 18.953 30.7891 19.4796 30.9305 20.2538C31.0866 21.0742 31.5791 21.7898 31.9826 22.5212C32.3922 23.2502 32.3642 24.0268 32.5921 24.8168C32.8372 25.6043 33.5113 26.265 34.0697 26.8502C34.5451 27.3451 35.6301 28.5618 36.2226 28.2972C36.8516 28.0351 37.633 28.7934 37.8683 28.5752C38.1073 28.3692 37.2381 27.3598 37.5709 27.0538C37.9049 26.7453 39.3507 27.2281 39.6494 28.1509C39.9859 29.2335 39.9505 29.3213 39.8981 30.0942C39.8615 30.6062 39.6592 31.017 39.3142 31.3803C38.885 31.8057 37.8903 32.5213 38.0865 33.2406C38.9984 32.7578 39.9907 32.714 41.0099 32.7432C41.9974 32.7725 42.7251 32.3616 43.3859 31.6607C43.6785 31.3522 44.5184 30.3733 44.9951 30.8719C45.2852 31.1621 44.438 32.3616 45.3681 32.1142C45.9874 31.952 46.5397 31.4705 47.1016 31.1633C47.2516 31.0755 47.3906 30.9877 47.51 30.9012C46.7762 33.9708 45.4205 36.8076 43.5761 39.2641L44.2539 39.82C47.5308 35.6385 49.4984 30.3733 49.4984 24.6558C49.4984 11.0387 38.4145 0 24.7486 0ZM15.9175 39.2177C15.8785 39.4774 15.5152 41.7217 15.1178 44.2001C14.3888 44.038 13.6635 43.7637 12.8503 43.315C12.0409 42.8652 11.4264 42.4044 10.9108 41.8692C12.8089 40.2174 14.5229 38.7264 14.735 38.5533C15.247 38.1181 15.497 38.0169 15.7347 38.1474C15.9687 38.2766 16.0187 38.5521 15.9175 39.2177ZM17.2658 35.6093C17.2658 35.6093 17.2049 35.5666 17.1354 35.5337C17.0696 35.5044 17.0208 35.4764 17.0147 35.4605C17.0184 35.4764 17.0208 35.4764 17.0208 35.4764C15.859 34.8339 14.7119 34.8644 13.3916 35.8275C11.5691 37.1392 2.79413 44.5353 2.79413 44.5353L5.32617 46.6809C5.32617 46.6809 6.73299 45.4557 8.45799 43.9673C9.30403 44.7109 10.2549 45.3838 11.3253 45.9812C12.3859 46.5651 13.4708 47.015 14.5473 47.3222L13.8841 51.4219L17.044 52.4289C17.044 52.4289 18.7202 41.0939 18.8787 38.8605C18.9994 37.2416 18.4167 36.2505 17.2658 35.6093ZM23.0199 52.8275H26.3456V36.6345H23.0175V52.8275H23.0199ZM36.3713 43.3297C35.5545 43.7783 34.8292 44.0367 34.1038 44.2001C33.7125 41.7217 33.3602 39.4774 33.3114 39.2177C33.2151 38.5521 33.2626 38.2912 33.5016 38.1474C33.7332 38.0169 33.9892 38.1181 34.4939 38.5521C34.7133 38.7399 36.4286 40.232 38.3218 41.8826C37.8025 42.4044 37.1881 42.8798 36.3713 43.3297ZM32.0948 35.4642C32.0887 35.4788 32.0362 35.5081 31.9655 35.5373C31.8997 35.569 31.8509 35.5983 31.8509 35.5983C30.6953 36.2395 30.1028 37.2294 30.2186 38.8483C30.3819 41.0951 32.0362 52.4289 32.0362 52.4289L35.201 51.4219L34.5488 47.338C35.6252 47.0162 36.709 46.5663 37.7793 45.9824C38.8399 45.3985 39.7969 44.7109 40.6356 43.9685C42.3606 45.4716 43.7723 46.7114 43.7723 46.7114L46.3056 44.5658C46.3056 44.5658 37.5404 37.1416 35.7215 35.8299C34.4074 34.8668 33.2541 34.8364 32.0948 35.4642ZM29.1799 29.5931C28.8995 29.3456 28.3022 28.8056 27.9974 27.884C27.7073 27.0111 27.2672 26.3114 26.5309 25.742C25.2204 24.718 22.1178 23.171 22.3311 21.0827C22.4287 20.1501 23.5575 19.9587 24.0196 19.2736C24.2999 18.8811 24.339 18.341 24.6705 17.9741C25.0424 17.5498 24.5194 17.5498 24.1549 17.5218C23.3747 17.4925 22.7919 18.341 22.1434 18.6897C21.0804 19.2444 20.1246 20.0343 18.9275 20.2952C18.5764 20.3684 16.7868 20.923 17.9534 21.2168C18.7531 21.4192 19.6479 21.3619 20.3099 21.9312C21.1608 22.659 21.852 23.5952 22.7066 24.3243C23.1394 24.69 23.5612 25.0386 23.9135 25.4909C24.3195 26.0176 24.267 26.6161 24.5681 27.1562C24.8583 27.6804 25.4313 27.2135 25.7872 27.5073C26.9563 28.4691 25.3313 28.936 24.9119 29.3895C24.3633 29.9881 24.2573 30.3684 23.254 30.7744C22.8102 30.9524 19.9308 31.301 19.5797 31.5656C19.2249 31.8265 19.4114 31.9142 19.5029 32.0166C19.5967 32.1203 20.0892 32.28 20.3099 32.2934C21.5192 32.4104 25.2399 33.1101 26.003 32.1629C26.5236 31.5071 27.2965 31.4315 28.1547 31.6668C28.7581 31.8265 29.9528 31.7107 30.9903 31.2864C31.5901 31.0389 33.2504 31.0243 32.7848 30.7744C32.2118 29.665 30.2003 30.5281 29.1799 29.5919V29.5931Z" fill="#D31145"/>
</svg>
