<svg width="47" height="47" viewBox="0 0 47 47" fill="none" xmlns="http://www.w3.org/2000/svg">
<g clip-path="url(#clip0_6043_1372)">
<mask id="mask0_6043_1372" style="mask-type:luminance" maskUnits="userSpaceOnUse" x="0" y="0" width="47" height="47">
<path d="M0 0H46.5574V46.5573H0V0Z" fill="white"/>
</mask>
<g mask="url(#mask0_6043_1372)">
<path d="M7.23043 8.54036H5.23985L5.51029 6.33565H7.60844C8.54441 6.33565 9.01692 6.73779 8.93448 7.39126V7.41539C8.83998 8.17442 8.1669 8.54036 7.23043 8.54036ZM8.96766 10.9094V10.8843C9.05814 10.1871 8.54843 9.77241 7.39933 9.77241H5.08704L4.80805 12.0475H7.2259C8.22019 12.0475 8.87316 11.6574 8.96766 10.9099V10.9094ZM21.4822 12.2274C22.4674 12.2274 23.3672 11.4558 23.519 10.2238V10.1987C23.6708 8.99226 22.9485 8.19503 21.9793 8.19503C21.0102 8.19503 20.0541 8.9993 19.9098 10.1987V10.2238C19.762 11.4181 20.513 12.2269 21.4867 12.2269H21.4817L21.4822 12.2274ZM28.7257 12.2274C29.6858 12.2274 30.6388 11.4232 30.7816 10.2238V10.1987C30.9344 8.99226 30.1784 8.19503 29.2183 8.19503C28.2572 8.19503 27.3252 8.95406 27.1689 10.1987V10.2238C27.0166 11.4302 27.747 12.2269 28.7206 12.2269H28.7247L28.7257 12.2274ZM17.4211 19.0271L17.2653 20.3164H28.8192C31.2335 20.3164 32.5892 19.023 33.2904 18.0996L34.7115 20.7145C34.7739 20.8284 34.8691 20.9209 34.9847 20.9801C35.1003 21.0392 35.231 21.0623 35.3599 21.0463C35.4893 21.0289 35.6105 20.9731 35.7078 20.8862C35.8052 20.7993 35.8744 20.6852 35.9063 20.5587L38.8133 7.83361L40.172 23.2515C40.1883 23.44 40.2744 23.6156 40.4134 23.7439C40.5524 23.8722 40.7343 23.944 40.9235 23.9452C41.2191 23.9452 41.4779 23.7728 41.6011 23.5265L43.7857 18.9934C44.1964 19.6303 44.8373 20.3154 45.8064 20.3154H46.5574V46.5528H0V0H46.5574V19.0271H45.8059C45.2228 19.0271 44.7755 18.1645 44.5332 17.7C44.41 17.4628 44.3281 17.3064 44.2049 17.1873C44.1327 17.118 44.0454 17.0664 43.9499 17.0365C43.8545 17.0066 43.7533 16.9992 43.6545 17.0149C43.4534 17.0475 43.281 17.1707 43.187 17.3517L41.2854 21.4163L39.8196 5.21017C39.7998 5.01586 39.7121 4.83477 39.5719 4.69879C39.4317 4.56282 39.248 4.48069 39.0532 4.46687C38.8583 4.45305 38.6649 4.50844 38.5069 4.62326C38.3489 4.73809 38.2365 4.90499 38.1895 5.09456L35.0478 18.6325L33.9233 16.5549C33.8809 16.4759 33.8226 16.4065 33.7519 16.3513C33.6813 16.296 33.5999 16.2561 33.513 16.2341C33.4261 16.2121 33.3355 16.2084 33.2471 16.2233C33.1586 16.2382 33.0743 16.2714 32.9994 16.3207C32.8561 16.4147 32.7822 16.5338 32.6626 16.7309C32.273 17.3592 31.242 19.0261 28.8237 19.0261H17.4226L17.4211 19.0271ZM28.2285 13.4716C29.2464 13.4716 29.9607 12.9503 30.5026 12.2973L30.3754 13.3404H31.808L32.5756 7.08212H31.143L31.0234 8.05529C30.6454 7.46415 30.0583 6.95444 29.0278 6.95444C27.5328 6.95444 25.9816 8.12918 25.7262 10.2027V10.2278C25.4679 12.3008 26.7567 13.4751 28.227 13.4751V13.4716H28.2285ZM17.8886 15.2369H19.3222L19.6751 12.3717C20.0405 12.9498 20.6322 13.4716 21.6707 13.4716C23.1536 13.4716 24.7169 12.2973 24.9717 10.2243V10.1992C25.2301 8.11309 23.9412 6.95193 22.4709 6.95193C21.4525 6.95193 20.7342 7.47269 20.1963 8.12566L20.3235 7.08262H18.8909L17.8886 15.2369ZM3.21961 13.3409H7.05851C8.90684 13.3409 10.2253 12.5476 10.4053 11.0658V11.0406C10.545 9.91567 9.94134 9.3577 9.00938 9.02494C9.66688 8.70474 10.2992 8.1704 10.4219 7.17712V7.15199C10.4923 6.59402 10.3606 6.14665 10.0363 5.77719C9.62164 5.30468 8.90734 5.04228 7.9588 5.04228H4.23903L3.22062 13.3363V13.3414L3.21961 13.3409ZM17.5206 7.08262H16.0754L15.6396 10.6139C15.5205 11.587 14.872 12.1536 14.0426 12.1536C13.2132 12.1536 12.7694 11.6077 12.8885 10.6385L13.3238 7.08262H11.8912L11.4021 11.0658C11.2211 12.5235 11.9239 13.4716 13.3364 13.4716C14.3096 13.4716 14.95 12.9623 15.4265 12.3707L15.3074 13.3444H16.7535L17.5211 7.08614L17.5206 7.08262Z" fill="#0079C8"/>
<path d="M46.5585 19.0259V20.3147H45.807C44.8339 20.3147 44.1975 19.625 43.7863 18.9887L41.6027 23.5217C41.5291 23.6693 41.4092 23.7888 41.2614 23.8619C41.1135 23.935 40.9458 23.9577 40.7838 23.9265C40.6218 23.8954 40.4745 23.8121 40.3643 23.6893C40.2541 23.5666 40.1872 23.4112 40.1736 23.2468L38.8154 7.82838L35.9069 20.553C35.8758 20.6799 35.8071 20.7944 35.7098 20.8816C35.6125 20.9688 35.4911 21.0246 35.3615 21.0416C35.2326 21.0576 35.1019 21.0345 34.9863 20.9753C34.8707 20.9162 34.7755 20.8237 34.7131 20.7098L33.292 18.0934C32.5903 19.0173 31.2311 20.3102 28.8208 20.3102H17.2669L17.4227 19.0213H28.8167C31.2346 19.0213 32.2701 17.3545 32.6556 16.7261C32.7748 16.5291 32.8487 16.4145 32.9924 16.316C33.0674 16.2668 33.1517 16.2337 33.2401 16.2189C33.3285 16.2041 33.419 16.2078 33.5059 16.2298C33.5928 16.2519 33.6742 16.2917 33.7448 16.3469C33.8155 16.402 33.8739 16.4713 33.9163 16.5502L35.0413 18.6277L38.183 5.09034C38.23 4.90077 38.3424 4.73386 38.5004 4.61904C38.6584 4.50421 38.8519 4.44883 39.0467 4.46265C39.2415 4.47647 39.4252 4.5586 39.5655 4.69457C39.7057 4.83055 39.7934 5.01164 39.8132 5.20595L41.2785 21.4105L43.1786 17.3459C43.2741 17.165 43.446 17.0423 43.6476 17.0091C43.8486 16.977 44.0532 17.0423 44.197 17.1821C44.3201 17.3012 44.4031 17.457 44.5257 17.6948C44.768 18.1593 45.2154 19.0218 45.7985 19.0218H46.5495L46.5575 19.0259H46.5585ZM25.7248 10.2231V10.198C25.9837 8.12446 27.5354 6.95072 29.0304 6.95072C30.0608 6.95072 30.652 7.45942 31.026 8.05056L31.1446 7.07739H32.5772L31.8101 13.3346H30.3775L30.5042 12.2921C29.9623 12.9446 29.2475 13.4663 28.2296 13.4663C26.7598 13.4663 25.4699 12.2921 25.7248 10.2191V10.2231ZM28.7258 12.2262C29.6874 12.2262 30.6399 11.422 30.7832 10.2226V10.1975C30.9355 8.99005 30.18 8.19382 29.2189 8.19382C28.2588 8.19382 27.3263 8.95285 27.17 10.1975V10.2226C27.0177 11.429 27.7481 12.2257 28.7217 12.2257H28.7258V12.2262ZM9.00947 9.02775C9.94192 9.36052 10.5497 9.91446 10.4104 11.0435V11.0686C10.2254 12.5505 8.90743 13.3432 7.05961 13.3432H3.2207L4.23912 5.04912H7.95888C8.90743 5.04912 9.62172 5.31202 10.0364 5.78402C10.3566 6.14896 10.4923 6.60036 10.4265 7.15883V7.18396C10.3028 8.18126 9.66646 8.71107 9.00896 9.03127V9.02725L9.00947 9.02775ZM5.24446 8.53916H7.23655C8.17252 8.53916 8.84509 8.17372 8.9406 7.41418V7.38905C9.02254 6.73658 8.55003 6.33445 7.61355 6.33445H5.5154L5.24446 8.53916ZM7.40092 9.7707H5.08863L4.80965 12.0453H7.2275C8.22178 12.0453 8.87475 11.6552 8.96925 10.9082V10.8831C9.05973 10.1854 8.55003 9.7707 7.40092 9.7707ZM16.077 7.08141L15.6412 10.6127C15.5221 11.5858 14.8736 12.1523 14.0442 12.1523C13.2148 12.1523 12.771 11.6059 12.8901 10.6373L13.3254 7.08141H11.8928L11.4037 11.0641C11.2227 12.5218 11.9255 13.4703 13.338 13.4703C14.3111 13.4703 14.9515 12.9611 15.4281 12.3695L15.3089 13.3432H16.7551L17.5227 7.08493H16.0765V7.08141H16.077ZM19.3283 15.2357H17.8957L18.8965 7.08141H20.3291L20.2025 8.12446C20.7443 7.47098 21.4591 6.95022 22.477 6.95022C23.9469 6.95022 25.2367 8.11138 24.9819 10.1975V10.2226C24.723 12.2956 23.1587 13.4698 21.6763 13.4698C20.6337 13.4698 20.0466 12.9481 19.6807 12.369L19.3278 15.2352L19.3283 15.2357ZM21.4838 12.2262C22.469 12.2262 23.3688 11.4541 23.5206 10.2226V10.1975C23.6724 8.99005 22.9501 8.19382 21.9809 8.19382C21.0118 8.19382 20.0557 8.99809 19.9114 10.1975V10.2226C19.7636 11.4169 20.5146 12.2257 21.4883 12.2257H21.4833L21.4838 12.2262Z" fill="white"/>
</g>
</g>
<defs>
<clipPath id="clip0_6043_1372">
<rect width="46.7485" height="46.7483" fill="white"/>
</clipPath>
</defs>
</svg>
