<svg width="119" height="41" viewBox="0 0 119 41" fill="none" xmlns="http://www.w3.org/2000/svg">
<g clip-path="url(#clip0_6043_1369)">
<path d="M112.622 40.4016H119V1.45562H112.622V40.4016ZM46.1806 24.3574L51.1682 13.1976L56.0414 24.3574H46.1806ZM14.0798 24.3574L19.0675 13.1976L23.9406 24.3574H14.0798ZM87.6352 28.6757L73.6698 0.226444L66.1802 32.1692L52.2148 2.05403L51.299 0L50.3506 2.03788L35.0279 34.2395L20.1141 2.05403L19.1983 0L18.2498 2.03788L0.637785 39.0754L0 40.4178H6.88457L7.14622 39.8355L11.4961 30.0667H26.459L30.6944 39.8355L30.956 40.4178H38.9853L39.2469 39.8355L43.5968 30.0667H58.5597L62.8115 39.8355L63.0731 40.4178H69.9904H69.9736H70.0716L75.3372 16.5617L87.7 41L100.046 16.2383L105.312 40.4178H111.379L101.698 0.242593L87.6352 28.6757Z" fill="#E1000A"/>
</g>
<defs>
<clipPath id="clip0_6043_1369">
<rect width="119" height="41" fill="white"/>
</clipPath>
</defs>
</svg>
