<svg width="130" height="31" viewBox="0 0 130 31" fill="none" xmlns="http://www.w3.org/2000/svg">
<g clip-path="url(#clip0_0_332)">
<path d="M72.6885 24.4878C72.4569 24.3334 72.1995 24.2691 71.9036 24.2691C71.6205 24.2691 71.3502 24.3334 71.1057 24.4621C70.9256 24.5522 70.7712 24.6808 70.6167 24.8481V22.9436H69.9476V28.2068H70.6167V26.7655C70.6167 26.2894 70.6425 25.9677 70.6811 25.8004C70.7454 25.543 70.887 25.3243 71.1057 25.157C71.3116 24.9768 71.5561 24.8996 71.8135 24.8996C72.0451 24.8996 72.2253 24.9511 72.3668 25.0669C72.5084 25.1698 72.5985 25.3371 72.6499 25.5559C72.6757 25.6846 72.7014 25.9677 72.7014 26.3795V28.2197H73.3706V26.2379C73.3706 25.7232 73.3191 25.35 73.2033 25.0926C73.0875 24.8353 72.9073 24.6294 72.6885 24.4878Z" fill="#72777A"/>
<path d="M77.8745 26.3148C77.8745 25.8001 77.72 25.3497 77.4498 25.0022C77.0509 24.5132 76.5233 24.2559 75.867 24.2559C75.2236 24.2559 74.7088 24.5004 74.3228 24.9894C74.0268 25.3625 73.8724 25.8001 73.8724 26.2891C73.8724 26.8038 74.0525 27.2671 74.4129 27.6789C74.7732 28.0906 75.275 28.2965 75.9056 28.2965C76.1887 28.2965 76.4461 28.2579 76.6777 28.1679C76.9093 28.0778 77.1152 27.9491 77.2954 27.7947C77.4755 27.6274 77.63 27.4086 77.7715 27.1513L77.8101 27.0612L77.2439 26.7652L77.1924 26.8424C77.0509 27.074 76.9222 27.2413 76.8064 27.3443C76.6906 27.4472 76.549 27.5244 76.3817 27.5888C76.2144 27.6531 76.0471 27.6789 75.867 27.6789C75.4938 27.6789 75.1978 27.5502 74.9533 27.3057C74.7217 27.074 74.6059 26.7781 74.5673 26.4306H77.9002L77.8745 26.3148ZM76.9093 25.3754C76.9994 25.4912 77.0766 25.6328 77.1281 25.8129H74.6316C74.7217 25.5556 74.8375 25.3625 74.9919 25.221C75.2364 25.0022 75.5195 24.8993 75.867 24.8993C76.0729 24.8993 76.2659 24.9379 76.4589 25.028C76.6391 25.118 76.7935 25.2339 76.9093 25.3754Z" fill="#72777A"/>
<path d="M81.6576 24.8478C81.5032 24.6805 81.3359 24.5518 81.1558 24.4618C80.8984 24.3331 80.6024 24.2559 80.2807 24.2559C79.7274 24.2559 79.2513 24.4489 78.8652 24.8478C78.4792 25.2339 78.2733 25.7229 78.2733 26.2633C78.2733 26.8295 78.4663 27.3057 78.8523 27.7046C79.2384 28.1035 79.7145 28.2965 80.2679 28.2965C80.5767 28.2965 80.8598 28.2322 81.13 28.1035C81.3231 28.0134 81.5032 27.8848 81.6576 27.7175V28.1936H82.3268V24.3459H81.6576V24.8478ZM81.2845 25.3111C81.5547 25.5813 81.6834 25.903 81.6834 26.3019C81.6834 26.5593 81.619 26.7909 81.5032 26.9968C81.3874 27.2027 81.2201 27.37 81.0014 27.4858C80.5638 27.7303 80.0491 27.7303 79.6244 27.4858C79.4185 27.37 79.2513 27.1899 79.1226 26.9711C78.9939 26.7523 78.9295 26.5207 78.9295 26.2762C78.9295 26.0317 78.9939 25.8001 79.1097 25.5813C79.2384 25.3625 79.4057 25.1953 79.6116 25.0794C79.8175 24.9636 80.0491 24.8993 80.2936 24.8993C80.7054 24.9121 81.0271 25.0408 81.2845 25.3111Z" fill="#72777A"/>
<path d="M83.7936 22.9436H83.1248V28.2068H83.7936V22.9436Z" fill="#72777A"/>
<path d="M85.8145 22.9941H85.1454V24.3582H84.4891V24.9501H85.1454V28.2058H85.8145V24.9501H86.5738V24.3582H85.8145V22.9941Z" fill="#72777A"/>
<path d="M89.9837 24.4878C89.752 24.3334 89.4947 24.2691 89.1987 24.2691C88.9156 24.2691 88.6454 24.3334 88.4009 24.4621C88.2207 24.5522 88.0663 24.6808 87.9119 24.8481V22.9436H87.2427V28.2068H87.9119V26.7655C87.9119 26.2894 87.9376 25.9677 87.9762 25.8004C88.0405 25.543 88.1821 25.3243 88.4009 25.157C88.6068 24.9768 88.8513 24.8996 89.1086 24.8996C89.3403 24.8996 89.5204 24.9511 89.662 25.0669C89.8035 25.1698 89.8936 25.3371 89.9451 25.5559C89.9708 25.6846 89.9965 25.9677 89.9965 26.3795V28.2197H90.6657V26.2379C90.6657 25.7232 90.6142 25.35 90.4984 25.0926C90.3826 24.8353 90.2153 24.6294 89.9837 24.4878Z" fill="#72777A"/>
<path d="M94.2814 24.3594H93.6126V28.207H94.2814V24.3594Z" fill="#72777A"/>
<path d="M93.9469 22.8535C93.8183 22.8535 93.7025 22.905 93.5996 22.9951C93.5096 23.0851 93.4582 23.201 93.4582 23.3425C93.4582 23.4712 93.5096 23.587 93.5996 23.69C93.6897 23.78 93.8054 23.8315 93.9469 23.8315C94.0755 23.8315 94.2041 23.78 94.2942 23.69C94.3842 23.5999 94.4356 23.4841 94.4356 23.3425C94.4356 23.2138 94.3842 23.098 94.2942 22.9951C94.2041 22.8921 94.0884 22.8535 93.9469 22.8535Z" fill="#72777A"/>
<path d="M97.8336 24.4883C97.6019 24.3339 97.3446 24.2695 97.0486 24.2695C96.7655 24.2695 96.4952 24.3339 96.2507 24.4626C96.0706 24.5526 95.9162 24.6813 95.7617 24.8486V24.3596H95.0926V28.2073H95.7617V26.766C95.7617 26.2899 95.7875 25.9682 95.8261 25.8009C95.8904 25.5435 96.032 25.3247 96.2507 25.1575C96.4566 24.9773 96.7011 24.9001 96.9585 24.9001C97.1901 24.9001 97.3703 24.9516 97.5118 25.0674C97.6534 25.1703 97.7435 25.3376 97.795 25.5564C97.8336 25.6851 97.8464 25.9682 97.8464 26.3799V28.2201H98.5156V26.2384C98.5156 25.7237 98.4641 25.3505 98.3483 25.106C98.2325 24.8357 98.0652 24.6298 97.8336 24.4883Z" fill="#72777A"/>
<path d="M100.24 24.9001C100.458 24.9001 100.69 25.0159 100.922 25.2347L100.986 25.299L101.424 24.8486L101.346 24.7843C100.986 24.4368 100.613 24.2695 100.253 24.2695C99.9308 24.2695 99.6734 24.3725 99.4547 24.5784C99.2488 24.7843 99.133 25.0416 99.133 25.3376C99.133 25.5692 99.1973 25.7751 99.326 25.9682C99.4547 26.1483 99.6863 26.3285 100.047 26.4958C100.42 26.6888 100.561 26.8046 100.613 26.8561C100.69 26.9462 100.729 27.0362 100.729 27.1521C100.729 27.2936 100.677 27.4094 100.561 27.5124C100.446 27.6153 100.304 27.6668 100.137 27.6668C99.8922 27.6668 99.6606 27.5381 99.4289 27.2936L99.3517 27.2164L98.9271 27.6925L98.9785 27.7569C99.1201 27.9242 99.2874 28.0657 99.4933 28.1687C99.6992 28.2716 99.9179 28.3102 100.15 28.3102C100.497 28.3102 100.793 28.1944 101.025 27.9756C101.256 27.744 101.372 27.4738 101.372 27.1392C101.372 26.9076 101.308 26.6888 101.166 26.5086C101.025 26.3285 100.78 26.1483 100.407 25.9553C100.059 25.7751 99.9179 25.6593 99.8665 25.595C99.7892 25.5049 99.7506 25.4148 99.7506 25.3119C99.7506 25.2089 99.7892 25.1188 99.8793 25.0288C99.9951 24.9387 100.111 24.9001 100.24 24.9001Z" fill="#72777A"/>
<path d="M104.731 26.1613C104.731 26.7146 104.692 26.9334 104.667 27.0235C104.602 27.2165 104.487 27.3581 104.319 27.4739C104.152 27.5897 103.946 27.6412 103.702 27.6412C103.457 27.6412 103.238 27.5768 103.071 27.461C102.891 27.3452 102.788 27.1908 102.724 26.9849C102.685 26.8433 102.659 26.5602 102.659 26.1484V24.3469H101.99V26.1999C101.99 26.7404 102.054 27.1393 102.183 27.4095C102.312 27.6798 102.505 27.8985 102.762 28.053C103.02 28.2074 103.341 28.2846 103.714 28.2846C104.088 28.2846 104.409 28.2074 104.667 28.053C104.924 27.8985 105.117 27.6798 105.246 27.4095C105.374 27.1393 105.439 26.7532 105.439 26.2256V24.334H104.757V26.1613H104.731Z" fill="#72777A"/>
<path d="M108.115 24.3982C107.742 24.1923 107.408 24.2309 107.086 24.4368C106.983 24.5011 106.88 24.5912 106.777 24.707V24.3596H106.095V28.2072H106.777V26.8689C106.777 26.2512 106.803 25.8266 106.867 25.6336C106.944 25.3762 107.047 25.196 107.176 25.0802C107.305 24.9644 107.433 24.9129 107.575 24.9129C107.626 24.9129 107.704 24.9258 107.794 24.9644L107.871 25.003L108.218 24.4497L108.115 24.3982Z" fill="#72777A"/>
<path d="M111.448 24.8478C111.294 24.6805 111.126 24.5518 110.946 24.4618C110.689 24.3331 110.393 24.2559 110.071 24.2559C109.518 24.2559 109.042 24.4489 108.656 24.8478C108.27 25.2339 108.064 25.7229 108.064 26.2633C108.064 26.8295 108.257 27.3057 108.643 27.7046C109.029 28.1035 109.505 28.2965 110.058 28.2965C110.367 28.2965 110.65 28.2322 110.921 28.1035C111.114 28.0134 111.294 27.8848 111.448 27.7175V28.1936H112.117V24.3459H111.448V24.8478ZM111.088 25.3111C111.358 25.5813 111.487 25.903 111.487 26.3019C111.487 26.5593 111.422 26.7909 111.307 26.9968C111.191 27.2027 111.024 27.37 110.805 27.4858C110.367 27.7303 109.852 27.7303 109.428 27.4858C109.222 27.37 109.055 27.1899 108.926 26.9711C108.797 26.7523 108.733 26.5207 108.733 26.2762C108.733 26.0317 108.797 25.8001 108.913 25.5813C109.042 25.3625 109.209 25.1953 109.415 25.0794C109.621 24.9636 109.852 24.8993 110.097 24.8993C110.509 24.9121 110.818 25.0408 111.088 25.3111Z" fill="#72777A"/>
<path d="M115.746 24.4883C115.515 24.3339 115.257 24.2695 114.961 24.2695C114.678 24.2695 114.408 24.3339 114.163 24.4626C113.983 24.5526 113.829 24.6813 113.674 24.8486V24.3596H113.005V28.2073H113.674V26.766C113.674 26.2899 113.7 25.9682 113.739 25.8009C113.803 25.5435 113.945 25.3247 114.163 25.1575C114.369 24.9773 114.614 24.9001 114.871 24.9001C115.103 24.9001 115.283 24.9516 115.424 25.0674C115.566 25.1703 115.656 25.3376 115.708 25.5564C115.746 25.6851 115.759 25.9682 115.759 26.3799V28.2201H116.428V26.2384C116.428 25.7237 116.377 25.3505 116.261 25.106C116.145 24.8357 115.978 24.6298 115.746 24.4883Z" fill="#72777A"/>
<path d="M120.34 27.0623C120.018 27.4741 119.607 27.6671 119.079 27.6671C118.796 27.6671 118.551 27.6028 118.32 27.487C118.101 27.3712 117.921 27.191 117.792 26.9722C117.663 26.7535 117.599 26.5219 117.599 26.2645C117.599 25.8784 117.741 25.5567 118.011 25.2865C118.294 25.0162 118.641 24.8876 119.066 24.8876C119.607 24.8876 120.018 25.0806 120.327 25.4924L120.379 25.5567L120.919 25.2221L120.868 25.1449C120.752 24.9519 120.61 24.7846 120.443 24.6688C120.276 24.5401 120.07 24.4372 119.838 24.36C119.607 24.2827 119.349 24.2441 119.105 24.2441C118.706 24.2441 118.333 24.3342 117.998 24.5144C117.663 24.6945 117.406 24.939 117.213 25.2607C117.02 25.5825 116.93 25.9299 116.93 26.3031C116.93 26.8564 117.136 27.3326 117.535 27.7186C117.934 28.1047 118.448 28.2977 119.053 28.2977C119.452 28.2977 119.8 28.2205 120.108 28.0661C120.417 27.9116 120.675 27.6929 120.855 27.4226L120.906 27.3454L120.379 26.998L120.34 27.0623Z" fill="#72777A"/>
<path d="M124.612 26.8432C124.471 27.0748 124.342 27.2421 124.226 27.3451C124.111 27.448 123.969 27.5252 123.802 27.5896C123.634 27.6539 123.467 27.6797 123.287 27.6797C122.914 27.6797 122.618 27.551 122.373 27.3065C122.142 27.0748 122.026 26.7789 121.987 26.4314H125.32V26.3285C125.32 25.8137 125.166 25.3633 124.896 25.0159C124.497 24.5269 123.969 24.2695 123.313 24.2695C122.669 24.2695 122.155 24.514 121.769 25.003C121.473 25.3762 121.318 25.8137 121.318 26.3027C121.318 26.8175 121.498 27.2807 121.859 27.6925C122.219 28.1043 122.721 28.3102 123.351 28.3102C123.634 28.3102 123.892 28.2716 124.123 28.1815C124.355 28.0914 124.561 27.9628 124.741 27.8083C124.921 27.6411 125.076 27.4223 125.217 27.1649L125.256 27.0748L124.69 26.7789L124.612 26.8432ZM124.342 25.3762C124.432 25.492 124.51 25.6336 124.561 25.8137H122.065C122.155 25.5564 122.27 25.3633 122.425 25.2218C122.669 25.003 122.952 24.9001 123.3 24.9001C123.506 24.9001 123.699 24.9387 123.892 25.0288C124.072 25.1188 124.226 25.2347 124.342 25.3762Z" fill="#72777A"/>
<path d="M69.8317 1.35067L69.9346 20.6404H74.4L74.6831 0.835938L69.8317 1.35067Z" fill="#72777A"/>
<path d="M26.8254 6.71685C26.8254 6.71685 29.2318 6.71685 29.2318 8.1195C29.2318 9.35487 26.8512 9.49643 26.8512 9.49643L26.8254 6.71685ZM21.5108 20.6791H26.8126L26.8769 13.8202C30.3643 14.0261 34.1862 11.4524 34.1862 7.79779C34.1862 5.09543 32.0243 2.27725 28.9873 1.99414H21.4207L21.5108 20.6791Z" fill="#72777A"/>
<path d="M63.6291 11.4781C63.6291 11.4781 64.813 11.5425 64.9159 12.8164C65.0189 14.0904 63.642 14.1548 63.642 14.1548L63.6291 11.4781ZM59.3311 6.38223L59.3825 28.2843L63.6548 28.2714L63.6162 19.315C63.6162 19.4179 69.1368 18.7616 69.1368 13.0095C69.1368 10.1269 67.3738 6.34363 63.835 6.34363L59.3311 6.38223Z" fill="#72777A"/>
<path d="M80.1521 10.9763C80.95 10.6674 81.6191 11.6969 81.6191 11.6969L79.5473 12.7264C79.5602 12.7264 79.187 11.3495 80.1521 10.9763ZM75.2493 14.6309C76.0342 19.1606 81.8379 21.9916 86.0073 20.0485C86.0073 20.0485 85.8271 18.7488 85.5054 16.2009C82.6743 16.87 80.5253 15.8277 80.5253 15.8277L85.6727 13.1124C86.4319 9.88247 84.0127 6.45948 80.6797 6.1635C80.5511 6.15064 80.4352 6.15063 80.3065 6.15063C76.6519 6.15063 74.6058 10.9248 75.2493 14.6309Z" fill="#72777A"/>
<path d="M38.7931 10.9763C39.5909 10.6674 40.2601 11.6969 40.2601 11.6969L38.1882 12.7264C38.2011 12.7264 37.8279 11.3495 38.7931 10.9763ZM33.8902 14.6309C34.6752 19.1606 40.4788 21.9916 44.6482 20.0485C44.6482 20.0485 44.468 18.7488 44.1463 16.2009C41.3153 16.87 39.1662 15.8277 39.1662 15.8277L44.3136 13.1124C45.0728 9.88247 42.6536 6.45948 39.3207 6.1635C39.192 6.15064 39.0762 6.15063 38.9475 6.15063C35.2929 6.15063 33.2468 10.9248 33.8902 14.6309Z" fill="#72777A"/>
<path d="M51.0826 13.473C51.147 12.4049 52.3566 11.6457 52.7941 12.9711C53.3603 14.6826 50.9926 14.9657 51.0826 13.473ZM45.0345 13.4086C45.0345 17.3978 48.0586 20.6407 51.8033 20.6407C55.5351 20.6407 58.5721 17.4107 58.5721 13.4086C58.5721 9.41942 55.548 6.18945 51.8033 6.18945C48.0586 6.18945 45.0345 9.41942 45.0345 13.4086Z" fill="#72777A"/>
<path d="M109.75 6.33008H106.687L106.725 20.6655L110.985 20.6784L110.097 11.1686L113.906 11.2201C114.06 9.59865 113.803 6.33008 109.84 6.33008C109.788 6.33008 109.775 6.33008 109.75 6.33008Z" fill="#72777A"/>
<path d="M119.182 10.9763C119.98 10.6674 120.649 11.6969 120.649 11.6969L118.577 12.7264C118.577 12.7264 118.204 11.3495 119.182 10.9763ZM114.279 14.6309C115.064 19.1606 120.868 21.9916 125.037 20.0485C125.037 20.0485 124.857 18.7488 124.535 16.2009C121.704 16.87 119.555 15.8277 119.555 15.8277L124.703 13.1124C125.462 9.88247 123.043 6.45948 119.71 6.1635C119.581 6.15064 119.465 6.15063 119.336 6.15063C115.682 6.15063 113.636 10.9119 114.279 14.6309Z" fill="#72777A"/>
<path d="M100.484 15.1714C100.574 14.2963 101.411 14.0647 101.411 14.0647L101.359 16.2523C101.359 16.2652 100.381 16.2266 100.484 15.1714ZM96.5336 7.81063L99.0687 10.5773C97.3315 11.4781 96.4564 12.8679 96.2762 14.914C96.0446 17.6035 97.3958 20.6404 99.9437 20.6404H105.683L105.812 11.6583C105.722 9.70228 104.988 8.37684 103.47 7.32163C102.505 6.6396 101.436 6.34363 100.394 6.34363C98.9529 6.3565 97.5631 6.90984 96.5336 7.81063Z" fill="#72777A"/>
<path d="M123.287 6.22852V6.31859H123.634V7.24512H123.737V6.31859H124.084V6.22852H123.287Z" fill="#72777A"/>
<path d="M125.088 6.22852L124.741 7.11644L124.394 6.22852H124.252V7.24512H124.342V6.37007L124.689 7.24512H124.779L125.127 6.37007V7.24512H125.23V6.22852H125.088Z" fill="#72777A"/>
<path d="M95.1955 11.1431C93.8314 11.0788 92.5189 11.1302 91.9141 12.7388C91.2449 14.5146 92.2358 16.5864 95.5816 15.9173C95.633 17.4615 95.9419 20.2668 95.9419 20.2668C95.9419 20.2668 90.254 22.0555 87.4487 18.0148C85.9302 15.8272 86.1361 11.9924 87.4873 9.77905C90.0481 5.62256 95.0153 6.47187 95.0153 6.47187L95.1955 11.1431Z" fill="#72777A"/>
<path d="M1.7964 5.18638C-1.6266 12.6115 2.29827 21.9925 10.5727 20.577C15.1409 19.7148 21.9998 9.72893 17.4315 5.72686C13.4294 2.00788 14.0214 11.4404 10.2896 11.4404C5.91429 11.4404 5.45103 2.96015 3.76527 2.72852H3.62372C3.14758 2.79286 2.58137 3.48775 1.80927 5.16064" fill="#72777A"/>
<path d="M11.3062 1.08042H11.2418C7.69015 1.47934 5.32236 7.38595 9.27296 8.56984C11.9496 9.39342 13.5067 7.14145 13.7898 4.90234C14.0343 2.98495 13.3522 1.05469 11.6665 1.05469C11.5507 1.05469 11.4349 1.06756 11.3062 1.08042Z" fill="#72777A"/>
</g>
<defs>
<clipPath id="clip0_0_332">
<rect width="129.495" height="31" fill="white"/>
</clipPath>
</defs>
</svg>
