<svg width="25" height="25" viewBox="0 0 25 25" fill="none" xmlns="http://www.w3.org/2000/svg">
<path fill-rule="evenodd" clip-rule="evenodd" d="M9.40735 3.80392H8.63088L8.39804 5.70049C8.33431 6.22206 7.9848 6.5277 7.53922 6.5277C7.08137 6.5277 6.85613 6.23456 6.92034 5.71299L7.15466 3.80368H6.38505L6.12279 5.94191C6.02647 6.72451 6.40294 7.23358 7.16029 7.23358C7.68186 7.23358 8.02721 6.9598 8.28284 6.64191L8.21863 7.16348H8.9951L9.40784 3.80368L9.40735 3.80392ZM1.72843 7.16373H3.78971C4.78235 7.16373 5.4902 6.73725 5.58799 5.94216L5.58922 5.92941C5.66348 5.32475 5.3375 5.02574 4.83775 4.84755C5.18897 4.67598 5.5299 4.38922 5.59559 3.8549L5.5973 3.84216C5.63358 3.54314 5.56152 3.30123 5.38848 3.10441C5.16544 2.84951 4.78137 2.7098 4.27255 2.7098H2.27525L1.72843 7.16373ZM9.60735 8.18211H10.3775L10.5667 6.64216C10.7637 6.95392 11.0789 7.23382 11.639 7.23382C12.4346 7.23382 13.2755 6.60392 13.4123 5.4902L13.4137 5.47794C13.551 4.35784 12.8578 3.73407 12.0686 3.73407C11.5221 3.73407 11.1373 4.01397 10.8463 4.36397L10.915 3.80392H10.1453L9.60735 8.18211ZM15.1578 7.23358C15.7044 7.23358 16.0892 6.95417 16.3804 6.60368L16.3118 7.16373H17.0814L17.4941 3.80392H16.7245L16.66 4.32598C16.4576 4.00735 16.1412 3.73407 15.5875 3.73407C14.786 3.73407 13.9512 4.36397 13.8145 5.4777L13.813 5.48995C13.6757 6.60368 14.3686 7.23358 15.1578 7.23358ZM9.35588 10.2164L9.27108 10.91H15.475C16.7706 10.91 17.5 10.2164 17.8765 9.7201L18.6382 11.1257C18.6716 11.1874 18.7228 11.2375 18.7852 11.2694C18.8476 11.3013 18.9182 11.3136 18.9877 11.3045C19.0572 11.2955 19.1223 11.2656 19.1745 11.2188C19.2267 11.172 19.2634 11.1105 19.2799 11.0424L20.8412 4.20907L21.5711 12.4877C21.5784 12.576 21.6145 12.6595 21.6738 12.7253C21.733 12.7911 21.8123 12.8357 21.8993 12.8523C21.9863 12.8688 22.0764 12.8563 22.1557 12.8168C22.2349 12.7772 22.2991 12.7128 22.3382 12.6333L23.5118 10.199C23.7324 10.5397 24.0755 10.9098 24.5975 10.9098H25V25H0V0H25V10.2167H24.5975C24.2843 10.2167 24.0436 9.75343 23.9145 9.50441C23.8483 9.37696 23.8049 9.29314 23.738 9.22843C23.6992 9.19103 23.6523 9.16319 23.6009 9.1471C23.5494 9.13102 23.495 9.12714 23.4418 9.13578C23.3886 9.14441 23.3382 9.16533 23.2945 9.19685C23.2509 9.22838 23.2151 9.26966 23.1902 9.3174L22.1689 11.4998L21.3809 2.79632C21.3702 2.69207 21.323 2.59495 21.2477 2.52207C21.1724 2.44919 21.0738 2.40525 20.9692 2.39798C20.8647 2.39072 20.7609 2.42059 20.6762 2.48235C20.5916 2.5441 20.5314 2.63377 20.5064 2.73554L18.8196 10.0042L18.2152 8.88897C18.1922 8.84673 18.1608 8.80971 18.1228 8.78027C18.0848 8.75083 18.041 8.72961 17.9944 8.71795C17.9478 8.70629 17.8992 8.70445 17.8518 8.71254C17.8044 8.72063 17.7592 8.73848 17.7191 8.76495C17.6417 8.81642 17.6025 8.88015 17.5377 8.98456C17.3289 9.32157 16.7745 10.2164 15.4752 10.2164H9.35588ZM15.4245 6.56569C15.9392 6.56569 16.451 6.13309 16.5299 5.4902L16.5314 5.47794C16.6113 4.82843 16.2054 4.40196 15.69 4.40196C15.162 4.40196 14.6728 4.80956 14.5909 5.47794L14.5895 5.4902C14.5098 6.13971 14.9032 6.56569 15.4245 6.56569ZM11.5365 6.56569C12.0645 6.56569 12.548 6.15196 12.6292 5.4902L12.6309 5.47794C12.7105 4.82843 12.3238 4.40196 11.8025 4.40196C11.2804 4.40196 10.7691 4.83505 10.6902 5.47794L10.6887 5.4902C10.6103 6.13309 11.0145 6.56569 11.5365 6.56569ZM4.81544 5.85907L4.81691 5.84681C4.86299 5.47132 4.59142 5.24877 3.97377 5.24877H2.73309L2.58333 6.47059H3.88137C4.41569 6.47059 4.76618 6.26054 4.81569 5.85907H4.81544ZM3.88333 4.58701H2.81471L2.96005 3.40319H4.08603C4.58848 3.40319 4.8424 3.61961 4.79926 3.96936L4.79755 3.98211C4.74755 4.38946 4.38578 4.58701 3.88333 4.58701Z" fill="#0079C8"/>
</svg>
