<svg width="81" height="27" viewBox="0 0 81 27" fill="none" xmlns="http://www.w3.org/2000/svg">
<g clip-path="url(#clip0_0_323)">
<path d="M47.7517 8.62572C47.0608 7.93478 46.2931 7.39739 45.295 7.01353C44.3738 6.62967 43.299 6.39936 42.1474 6.39936C40.7655 6.39936 39.5372 6.62967 38.5392 7.16707C37.5411 7.70447 36.8502 8.24187 36.3128 8.77927V6.70644H31.0156V26.667H36.3896V15.7655C36.3896 14.3836 36.7734 13.3088 37.6179 12.4643C38.3856 11.6966 39.4604 11.3127 40.8423 11.3127C41.9939 11.3127 42.9151 11.6966 43.5293 12.3875C44.1435 13.1552 44.4506 14.0765 44.4506 15.3048V26.667H49.8245V14.3836C49.8245 13.1552 49.671 12.0804 49.2871 11.0824C48.9801 10.1611 48.4427 9.31667 47.7517 8.62572ZM57.4249 6.70644H52.0509V26.667H57.4249V6.70644ZM57.4249 0.0273438H52.0509V5.01748H57.4249V0.0273438ZM80.1492 12.7714C79.6118 11.543 78.8441 10.3915 77.9996 9.47021C77.0783 8.54895 76.0035 7.85801 74.7752 7.32061C73.5469 6.78321 72.2418 6.5529 70.9366 6.5529C69.7851 6.5529 68.7103 6.70644 67.7122 7.01353C66.7142 7.32061 65.793 7.78124 65.102 8.31864V0.0273438H59.728V26.667H65.102V25.2083C65.793 25.7457 66.6374 26.2063 67.7122 26.5134C68.7103 26.8205 69.7851 26.9741 70.9366 26.9741C72.3185 26.9741 73.5469 26.7437 74.7752 26.2063C76.0035 25.6689 77.0783 24.978 77.9996 24.0567C78.9208 23.1355 79.6118 22.0607 80.1492 20.8324C80.6866 19.604 80.9937 18.2221 80.9937 16.8403C80.9937 15.3816 80.6866 13.9997 80.1492 12.7714ZM75.3126 18.9131C75.0055 19.5272 74.6984 20.1414 74.2378 20.602C73.7772 21.0627 73.2398 21.4465 72.5488 21.7536C71.9347 22.0607 71.2437 22.1375 70.476 22.1375C69.7083 22.1375 68.9406 21.9839 68.3264 21.7536C67.6355 21.4465 67.0981 21.0627 66.5607 20.602C66.1 20.1414 65.7162 19.5272 65.4091 18.9131C65.102 18.2989 65.0252 17.5312 65.0252 16.8403C65.0252 16.1493 65.1788 15.3816 65.4859 14.7674C65.793 14.0765 66.1768 13.5391 66.6375 13.0785C67.0981 12.6178 67.7122 12.234 68.4032 11.9269C69.0941 11.6198 69.7851 11.4663 70.5528 11.4663C71.2437 11.4663 71.9347 11.6198 72.6256 11.9269C73.2398 12.234 73.854 12.6178 74.3146 13.0785C74.7752 13.5391 75.1591 14.1533 75.3894 14.7674C75.6965 15.4584 75.7732 16.1493 75.7732 16.8403C75.6965 17.5312 75.5429 18.2221 75.3126 18.9131ZM0 10.8521V15.8422H7.37004L2.1496 21.0627L5.68107 24.5174L10.8247 19.2969V26.667H15.8149V10.8521H0ZM9.67318 9.70052V6.16904L5.68107 2.17694L2.1496 5.70842L6.1417 9.70052H9.67318ZM16.9664 16.9938V20.5253L21.0353 24.5174L24.49 21.0627L20.4979 16.9938H16.9664ZM24.49 5.70842L21.0353 2.17694L16.9664 6.16904V9.70052H20.4979L24.49 5.70842ZM21.0353 10.8521L18.5019 13.3855L21.0353 15.8422H26.6396V10.8521H21.0353ZM10.8247 5.70842L13.3582 8.1651L15.8149 5.70842V0.0273438H10.8247V5.70842Z" fill="#72777A"/>
</g>
<defs>
<clipPath id="clip0_0_323">
<rect width="80.9937" height="27" fill="white"/>
</clipPath>
</defs>
</svg>
