<svg width="112" height="38" viewBox="0 0 112 38" fill="none" xmlns="http://www.w3.org/2000/svg">
<path d="M65.6564 11.8223C64.7064 10.8723 63.6509 10.1334 62.2786 9.60566C61.0119 9.07787 59.5341 8.7612 57.9508 8.7612C56.0508 8.7612 54.3618 9.07787 52.9896 9.81677C51.6174 10.5557 50.6674 11.2946 49.9285 12.0335V9.18343H42.645V36.6282H50.034V21.6391C50.034 19.7391 50.5618 18.2613 51.7229 17.1002C52.7785 16.0446 54.2563 15.5168 56.1563 15.5168C57.7397 15.5168 59.0064 16.0446 59.8508 16.9946C60.6953 18.0502 61.1175 19.3169 61.1175 21.0058V36.6282H68.5065V19.7391C68.5065 18.0502 68.2954 16.5724 67.7676 15.2002C67.3454 13.9335 66.6065 12.7724 65.6564 11.8223ZM78.9566 9.18343H71.5676V36.6282H78.9566V9.18343ZM78.9566 0H71.5676V6.86118H78.9566V0ZM110.201 17.5224C109.463 15.8335 108.407 14.2502 107.246 12.9835C105.979 11.7168 104.501 10.7668 102.813 10.0279C101.124 9.28899 99.3291 8.97232 97.5347 8.97232C95.9513 8.97232 94.4735 9.18343 93.1013 9.60566C91.729 10.0279 90.4623 10.6612 89.5123 11.4001V0H82.1233V36.6282H89.5123V34.6226C90.4623 35.3615 91.6235 35.9948 93.1013 36.4171C94.4735 36.8393 95.9513 37.0504 97.5347 37.0504C99.4347 37.0504 101.124 36.7337 102.813 35.9948C104.501 35.2559 105.979 34.3059 107.246 33.0392C108.513 31.7726 109.463 30.2948 110.201 28.6059C110.94 26.917 111.363 25.0169 111.363 23.1169C111.363 21.1113 110.94 19.2113 110.201 17.5224ZM103.551 25.9669C103.129 26.8114 102.707 27.6558 102.074 28.2892C101.44 28.9225 100.701 29.4503 99.7514 29.8725C98.9069 30.2948 97.9569 30.4003 96.9013 30.4003C95.8457 30.4003 94.7902 30.1892 93.9457 29.8725C92.9957 29.4503 92.2568 28.9225 91.5179 28.2892C90.8846 27.6558 90.3568 26.8114 89.9346 25.9669C89.5123 25.1225 89.4068 24.0669 89.4068 23.1169C89.4068 22.1669 89.6179 21.1113 90.0401 20.2669C90.4623 19.3169 90.9901 18.578 91.6235 17.9446C92.2568 17.3113 93.1013 16.7835 94.0513 16.3613C95.0013 15.9391 95.9513 15.7279 97.0069 15.7279C97.9569 15.7279 98.9069 15.9391 99.8569 16.3613C100.701 16.7835 101.546 17.3113 102.179 17.9446C102.813 18.578 103.34 19.4224 103.657 20.2669C104.079 21.2169 104.185 22.1669 104.185 23.1169C104.079 24.0669 103.868 25.0169 103.551 25.9669ZM0 14.8835V21.7447H10.1335L2.9556 28.9225L7.81122 33.6726L14.8835 26.4947V36.6282H21.7447V14.8835H0ZM13.3002 13.3001V8.44453L7.81122 2.95559L2.9556 7.81119L8.44456 13.3001H13.3002ZM23.3281 23.328V28.1836L28.9226 33.6726L33.6727 28.9225L28.1837 23.328H23.3281ZM33.6727 7.81119L28.9226 2.95559L23.3281 8.44453V13.3001H28.1837L33.6727 7.81119ZM28.9226 14.8835L25.4392 18.3669L28.9226 21.7447H36.6283V14.8835H28.9226ZM14.8835 7.81119L18.3669 11.189L21.7447 7.81119V0H14.8835V7.81119Z" fill="#144A38"/>
</svg>
