<svg width="36" height="14" viewBox="0 0 36 14" fill="none" xmlns="http://www.w3.org/2000/svg">
<path d="M28.5272 8.08621C27.6969 8.08621 27.0445 7.99569 26.3921 7.78448C27.1631 5.64224 27.8451 3.71121 27.9044 3.46983C28.112 2.89655 28.2603 2.71552 28.4975 2.71552C28.7348 2.71552 28.883 2.89655 29.0906 3.46983C29.1796 3.71121 29.8616 5.64224 30.6326 7.75431C30.0395 7.99569 29.3575 8.08621 28.5272 8.08621ZM31.285 1.84052C30.6919 0.512931 29.8023 0 28.6458 0H28.5272H28.4086C27.2521 0 26.3624 0.543103 25.7694 1.87069C24.939 3.71121 21.1433 14 21.1433 14H24.257C24.257 14 24.8204 12.3405 25.5025 10.4095C26.4811 10.6207 27.4893 10.7414 28.5568 10.7414C29.6244 10.7414 30.6623 10.6207 31.6112 10.3793C32.2932 12.3103 32.916 14 32.916 14H36C35.9703 14 32.1153 3.68103 31.285 1.84052ZM7.3542 8.08621C6.52389 8.08621 5.8715 7.99569 5.21911 7.78448C5.96046 5.64224 6.6425 3.71121 6.73147 3.46983C6.93904 2.89655 7.08731 2.71552 7.32455 2.71552C7.56178 2.71552 7.71005 2.89655 7.91763 3.46983C8.00659 3.71121 8.68863 5.64224 9.45964 7.75431C8.86656 7.99569 8.18451 8.08621 7.3542 8.08621ZM7.47282 0H7.3542H7.23558C6.07908 0 5.18946 0.543103 4.59638 1.87069C3.76606 3.71121 0 14 0 14H3.11367C3.11367 14 3.6771 12.3405 4.35914 10.4095C5.30807 10.6207 6.34596 10.7414 7.41351 10.7414C8.48105 10.7414 9.51894 10.6207 10.4679 10.3793C11.1499 12.3103 11.7727 14 11.7727 14H14.8567C14.8567 14 11.0016 3.68103 10.1417 1.87069C9.48929 0.543103 8.62932 0 7.47282 0ZM16.458 14H19.453V0.181034H16.458V14Z" fill="#D41245"/>
</svg>
