<svg width="201" height="73" viewBox="0 0 201 73" fill="none" xmlns="http://www.w3.org/2000/svg">
<g clip-path="url(#clip0_4_2432)">
<path d="M182.725 38.6472C189.294 38.7691 195.031 33.1633 194.865 26.7451V8.74965C194.865 7.20602 193.576 5.90613 191.954 5.90613H191.539C189.959 5.90613 188.628 7.1654 188.628 8.74965V16.549C186.965 15.4116 184.97 14.8023 182.683 14.8023C176.114 14.6804 170.335 20.2862 170.501 26.7045C170.377 33.1227 176.114 38.7691 182.683 38.6066M176.655 26.7045C176.655 24.9983 177.237 23.5766 178.359 22.3985C179.482 21.2611 180.895 20.6518 182.641 20.6518C184.388 20.6518 185.801 21.2611 187.007 22.3985C188.171 23.536 188.753 24.9983 188.753 26.7045C188.753 28.4106 188.171 29.8729 187.007 31.051C185.843 32.1884 184.388 32.7571 182.641 32.7571C180.895 32.7571 179.482 32.1884 178.359 31.051C177.237 29.9136 176.655 28.4106 176.655 26.7045Z" fill="black"/>
<path d="M158.444 38.2816H164.598V26.1357C164.598 22.7641 165.803 21.1393 168.215 20.9768C169.753 20.8955 170.917 19.6363 170.917 18.1739V17.9708C170.917 17.1583 170.626 16.4678 170.002 15.9397C169.42 15.371 168.672 15.1273 167.882 15.1679C162.228 15.4522 158.444 19.1488 158.444 26.1764V38.3223V38.2816Z" fill="black"/>
<path d="M127.845 26.1358C127.845 18.6207 123.729 14.8023 117.451 14.8023C111.173 14.8023 107.057 18.5801 107.057 26.1358V35.4787C107.057 37.0224 108.346 38.3223 109.967 38.3223H110.342C111.921 38.3223 113.252 37.063 113.252 35.4787V26.1358C113.252 22.3986 114.541 20.6924 117.493 20.6924C120.444 20.6924 121.733 22.3986 121.733 26.1358V35.4787C121.733 37.0224 123.022 38.3223 124.644 38.3223H125.018C126.598 38.3223 127.928 37.063 127.928 35.4787V26.1358H127.845Z" fill="black"/>
<path d="M104.438 26.7045C104.563 20.2862 98.8251 14.6398 92.2562 14.8023C85.6872 14.6804 79.9082 20.2862 80.0745 26.7045C79.9498 33.1227 85.6872 38.7691 92.2562 38.6066C98.8251 38.7285 104.604 33.1227 104.438 26.7045ZM86.1861 26.7045C86.1861 24.9984 86.7682 23.5766 87.9323 22.3986C89.0964 21.2612 90.5516 20.6518 92.2978 20.6518C94.0439 20.6518 95.4575 21.2612 96.58 22.3986C97.7026 23.536 98.2846 24.9984 98.2846 26.7045C98.2846 28.4106 97.7026 29.873 96.58 31.051C95.4575 32.1884 94.0439 32.7571 92.2978 32.7571C90.5516 32.7571 89.138 32.1884 87.9323 31.051C86.7266 29.9136 86.1861 28.4106 86.1861 26.7045Z" fill="black"/>
<path fill-rule="evenodd" clip-rule="evenodd" d="M132.876 35.1538C132.876 36.8599 134.289 38.2816 136.077 38.2816C137.865 38.2816 139.278 36.9005 139.278 35.1538V30.9697L142.646 28.0043L149.215 36.8193C149.963 37.8348 150.711 38.2816 152 38.2816C153.289 38.2816 154.952 37.1036 154.952 35.4787C154.952 33.8539 154.578 34.0976 154.121 33.4477L147.136 24.2265L153.081 19.2301C153.913 18.4582 154.62 17.6052 154.62 16.4678C154.62 15.3304 153.455 13.7461 151.876 13.7461C150.296 13.7461 149.838 14.4367 149.007 15.2085L139.32 24.1859V7.8966C139.32 6.19048 137.906 4.76872 136.118 4.76872C134.331 4.76872 132.917 6.14986 132.917 7.8966V35.1538H132.876Z" fill="black"/>
<path fill-rule="evenodd" clip-rule="evenodd" d="M50.7222 35.1132C50.7222 36.8599 52.1358 38.2817 53.9651 38.2817C55.7944 38.2817 57.208 36.9005 57.208 35.1132V28.4512L61.8229 24.2265L71.5515 36.6974C72.2999 37.6317 73.0483 38.241 74.2955 38.241C76.1249 38.241 77.58 37.0224 77.58 35.1944C77.58 33.3664 77.2474 33.6508 76.6653 32.9602L66.2714 20.205L75.8754 11.4307C76.5822 10.7807 77.0811 10.0496 77.0811 9.03401C77.0811 7.40915 75.8338 6.14987 74.1292 6.14987C72.4246 6.14987 72.1752 6.63733 71.3437 7.40915L57.208 21.1393V9.31837C57.208 7.57163 55.7944 6.14987 53.9651 6.14987C52.1358 6.14987 50.7222 7.53101 50.7222 9.31837V35.1132Z" fill="black"/>
</g>
<path d="M197.996 67.798C197.996 66.9692 198.634 66.3303 199.498 66.3303C200.361 66.3303 201 66.9692 201 67.798V67.8325C201 68.6613 200.361 69.3002 199.498 69.3002C198.634 69.3002 197.996 68.6613 197.996 67.8325V67.798Z" fill="black"/>
<path d="M195.858 57.8006V67.9879C195.858 68.713 195.271 69.3001 194.546 69.3001C193.821 69.3001 193.234 68.713 193.234 67.9879V67.867C192.595 68.7303 191.714 69.3692 190.35 69.3692C188.192 69.3692 186.137 67.6771 186.137 64.5864V64.5518C186.137 61.4611 188.157 59.769 190.35 59.769C191.749 59.769 192.612 60.4079 193.234 61.1503V57.8006C193.234 57.0754 193.821 56.4884 194.546 56.4884C195.271 56.4884 195.858 57.0754 195.858 57.8006ZM191.024 61.9964C189.798 61.9964 188.762 62.9978 188.762 64.5518V64.5864C188.762 66.1231 189.798 67.1418 191.024 67.1418C192.25 67.1418 193.268 66.1231 193.268 64.5864V64.5518C193.268 63.0151 192.25 61.9964 191.024 61.9964Z" fill="black"/>
<path d="M178.086 63.844H182.04C181.885 62.6698 181.194 61.8756 180.089 61.8756C179.001 61.8756 178.293 62.6526 178.086 63.844ZM183.559 68.2815C182.748 68.9721 181.695 69.4038 180.348 69.4038C177.568 69.4038 175.513 67.4527 175.513 64.621V64.5864C175.513 61.9447 177.395 59.7691 180.089 59.7691C183.18 59.7691 184.544 62.3072 184.544 64.2238C184.544 64.9836 184.008 65.4843 183.318 65.4843H178.12C178.379 66.6757 179.208 67.2973 180.382 67.2973C181.108 67.2973 181.712 67.0728 182.247 66.6757C182.437 66.5375 182.61 66.4685 182.886 66.4685C183.473 66.4685 183.905 66.9174 183.905 67.5045C183.905 67.8498 183.749 68.1088 183.559 68.2815Z" fill="black"/>
<path d="M168.998 67.9879V61.1504C168.998 60.4252 169.585 59.8381 170.311 59.8381C171.036 59.8381 171.623 60.4252 171.623 61.1504V61.5648C172.003 60.6669 172.624 59.8381 173.401 59.8381C174.213 59.8381 174.679 60.3734 174.679 61.1158C174.679 61.8065 174.23 62.2209 173.695 62.3417C172.365 62.6525 171.623 63.6713 171.623 65.536V67.9879C171.623 68.7131 171.036 69.3001 170.311 69.3001C169.585 69.3001 168.998 68.7131 168.998 67.9879Z" fill="black"/>
<path d="M160.533 63.844H164.487C164.332 62.6698 163.641 61.8756 162.536 61.8756C161.448 61.8756 160.74 62.6526 160.533 63.844ZM166.007 68.2815C165.195 68.9721 164.142 69.4038 162.795 69.4038C160.015 69.4038 157.96 67.4527 157.96 64.621V64.5864C157.96 61.9447 159.842 59.7691 162.536 59.7691C165.627 59.7691 166.991 62.3072 166.991 64.2238C166.991 64.9836 166.455 65.4843 165.765 65.4843H160.568C160.827 66.6757 161.655 67.2973 162.83 67.2973C163.555 67.2973 164.159 67.0728 164.694 66.6757C164.884 66.5375 165.057 66.4685 165.333 66.4685C165.92 66.4685 166.352 66.9174 166.352 67.5045C166.352 67.8498 166.196 68.1088 166.007 68.2815Z" fill="black"/>
<path d="M156.06 61.1504V67.9879C156.06 68.7131 155.473 69.3001 154.748 69.3001C154.023 69.3001 153.436 68.7131 153.436 67.9879V67.8843C152.832 68.6613 152.055 69.3692 150.725 69.3692C148.74 69.3692 147.583 68.057 147.583 65.9332V61.1504C147.583 60.4252 148.17 59.8381 148.895 59.8381C149.62 59.8381 150.207 60.4252 150.207 61.1504V65.1044C150.207 66.3476 150.794 66.9864 151.796 66.9864C152.797 66.9864 153.436 66.3476 153.436 65.1044V61.1504C153.436 60.4252 154.023 59.8381 154.748 59.8381C155.473 59.8381 156.06 60.4252 156.06 61.1504Z" fill="black"/>
<path d="M145.307 61.1504V70.7506C145.307 71.4758 144.719 72.0628 143.994 72.0628C143.269 72.0628 142.682 71.4758 142.682 70.7506V67.8671C142.043 68.7304 141.163 69.3692 139.798 69.3692C137.64 69.3692 135.585 67.6771 135.585 64.5864V64.5519C135.585 61.4612 137.606 59.7691 139.798 59.7691C141.197 59.7691 142.06 60.4079 142.682 61.1504V61.1331C142.682 60.4252 143.269 59.8381 143.994 59.8381C144.719 59.8381 145.307 60.4252 145.307 61.1504ZM140.472 61.9965C139.246 61.9965 138.21 62.9979 138.21 64.5519V64.5864C138.21 66.1231 139.246 67.1419 140.472 67.1419C141.698 67.1419 142.717 66.1231 142.717 64.5864V64.5519C142.717 63.0152 141.698 61.9965 140.472 61.9965Z" fill="black"/>
<path d="M125.242 67.9879V61.1504C125.242 60.4252 125.829 59.8381 126.554 59.8381C127.28 59.8381 127.867 60.4252 127.867 61.1504V61.254C128.471 60.477 129.248 59.7691 130.577 59.7691C132.563 59.7691 133.72 61.0813 133.72 63.2051V67.9879C133.72 68.7131 133.133 69.3002 132.408 69.3002C131.683 69.3002 131.095 68.7131 131.095 67.9879V64.0339C131.095 62.7907 130.508 62.1518 129.507 62.1518C128.505 62.1518 127.867 62.7907 127.867 64.0339V67.9879C127.867 68.7131 127.28 69.3002 126.554 69.3002C125.829 69.3002 125.242 68.7131 125.242 67.9879Z" fill="black"/>
<path d="M118.317 69.4038C115.451 69.4038 113.327 67.28 113.327 64.621V64.5864C113.327 61.9274 115.468 59.7691 118.352 59.7691C121.218 59.7691 123.342 61.8929 123.342 64.5519V64.5864C123.342 67.2455 121.201 69.4038 118.317 69.4038ZM118.352 67.1419C119.854 67.1419 120.752 65.985 120.752 64.621V64.5864C120.752 63.2224 119.767 62.031 118.317 62.031C116.815 62.031 115.917 63.1878 115.917 64.5519V64.5864C115.917 65.9505 116.901 67.1419 118.352 67.1419Z" fill="black"/>
<path d="M107.137 69.4038C103.58 69.4038 100.938 66.6585 100.938 63.1879V63.1534C100.938 59.7173 103.528 56.9029 107.24 56.9029C109.053 56.9029 110.279 57.3864 111.28 58.1288C111.557 58.336 111.798 58.7159 111.798 59.1821C111.798 59.9073 111.211 60.4771 110.486 60.4771C110.124 60.4771 109.882 60.3389 109.692 60.2181C108.95 59.6655 108.173 59.3547 107.223 59.3547C105.185 59.3547 103.718 61.0469 103.718 63.1188V63.1534C103.718 65.2253 105.151 66.952 107.223 66.952C108.345 66.952 109.088 66.6067 109.847 66.0023C110.055 65.8297 110.331 65.7088 110.642 65.7088C111.315 65.7088 111.885 66.2613 111.885 66.9347C111.885 67.3491 111.678 67.6772 111.436 67.8844C110.348 68.834 109.07 69.4038 107.137 69.4038Z" fill="black"/>
<path d="M85.2624 67.9879V61.1504C85.2624 60.4252 85.8495 59.8381 86.5747 59.8381C87.2999 59.8381 87.8869 60.4252 87.8869 61.1504V61.254C88.4913 60.477 89.2682 59.7691 90.5978 59.7691C92.5834 59.7691 93.7403 61.0813 93.7403 63.2051V67.9879C93.7403 68.7131 93.1532 69.3002 92.428 69.3002C91.7028 69.3002 91.1158 68.7131 91.1158 67.9879V64.0339C91.1158 62.7907 90.5287 62.1518 89.5272 62.1518C88.5258 62.1518 87.8869 62.7907 87.8869 64.0339V67.9879C87.8869 68.7131 87.2999 69.3002 86.5747 69.3002C85.8495 69.3002 85.2624 68.7131 85.2624 67.9879Z" fill="black"/>
<path d="M80.0182 57.7661V57.7316C80.0182 56.9718 80.6571 56.5056 81.4859 56.5056C82.3147 56.5056 82.9535 56.9718 82.9535 57.7316V57.7661C82.9535 58.5258 82.3147 59.0093 81.4859 59.0093C80.6571 59.0093 80.0182 58.5258 80.0182 57.7661ZM80.1736 67.9879V61.1503C80.1736 60.4251 80.7607 59.8381 81.4859 59.8381C82.2111 59.8381 82.7981 60.4251 82.7981 61.1503V67.9879C82.7981 68.7131 82.2111 69.3001 81.4859 69.3001C80.7607 69.3001 80.1736 68.7131 80.1736 67.9879Z" fill="black"/>
<path d="M63.6458 67.9879V61.1504C63.6458 60.4252 64.2329 59.8381 64.9581 59.8381C65.6833 59.8381 66.2703 60.4252 66.2703 61.1504V61.254C66.8746 60.477 67.6689 59.7691 68.9984 59.7691C70.2071 59.7691 71.1222 60.3043 71.6057 61.2367C72.4172 60.2871 73.3841 59.7691 74.6446 59.7691C76.5957 59.7691 77.7698 60.9432 77.7698 63.1706V67.9879C77.7698 68.7131 77.1827 69.3002 76.4575 69.3002C75.7324 69.3002 75.1453 68.7131 75.1453 67.9879V64.0339C75.1453 62.7907 74.5928 62.1518 73.6086 62.1518C72.6244 62.1518 72.0201 62.7907 72.0201 64.0339V67.9879C72.0201 68.7131 71.433 69.3002 70.7078 69.3002C69.9826 69.3002 69.3955 68.7131 69.3955 67.9879V64.0339C69.3955 62.7907 68.843 62.1518 67.8588 62.1518C66.8746 62.1518 66.2703 62.7907 66.2703 64.0339V67.9879C66.2703 68.7131 65.6833 69.3002 64.9581 69.3002C64.2329 69.3002 63.6458 68.7131 63.6458 67.9879Z" fill="black"/>
<path d="M61.3009 57.8006V67.9879C61.3009 68.713 60.7138 69.3001 59.9886 69.3001C59.2634 69.3001 58.6764 68.713 58.6764 67.9879V67.867C58.0375 68.7303 57.1569 69.3692 55.7929 69.3692C53.6345 69.3692 51.5798 67.6771 51.5798 64.5864V64.5518C51.5798 61.4611 53.6 59.769 55.7929 59.769C57.1914 59.769 58.0548 60.4079 58.6764 61.1503V57.8006C58.6764 57.0754 59.2634 56.4884 59.9886 56.4884C60.7138 56.4884 61.3009 57.0754 61.3009 57.8006ZM56.4662 61.9964C55.2403 61.9964 54.2043 62.9978 54.2043 64.5518V64.5864C54.2043 66.1231 55.2403 67.1418 56.4662 67.1418C57.6922 67.1418 58.7109 66.1231 58.7109 64.5864V64.5518C58.7109 63.0151 57.6922 61.9964 56.4662 61.9964Z" fill="black"/>
<path d="M38.3905 68.057C38.3905 67.8671 38.4596 67.6771 38.5459 67.4872L42.7589 57.9734C43.0525 57.3172 43.5877 56.9201 44.3129 56.9201H44.4683C45.1935 56.9201 45.7115 57.3172 46.005 57.9734L50.2181 67.4872C50.3044 67.6771 50.3562 67.8498 50.3562 68.0225C50.3562 68.7304 49.8037 69.3002 49.0957 69.3002C48.4741 69.3002 48.0597 68.9376 47.818 68.3851L47.0065 66.4857H41.6884L40.8424 68.4714C40.6179 68.9894 40.169 69.3002 39.6164 69.3002C38.9258 69.3002 38.3905 68.7477 38.3905 68.057ZM42.6726 64.1375H46.0223L44.3475 60.1489L42.6726 64.1375Z" fill="black"/>
<path d="M25.3014 63.844H29.2554C29.1 62.6698 28.4094 61.8756 27.3043 61.8756C26.2165 61.8756 25.5086 62.6526 25.3014 63.844ZM30.7749 68.2815C29.9634 68.9721 28.9101 69.4038 27.5633 69.4038C24.7834 69.4038 22.7287 67.4527 22.7287 64.621V64.5864C22.7287 61.9447 24.6107 59.7691 27.3043 59.7691C30.395 59.7691 31.7591 62.3072 31.7591 64.2238C31.7591 64.9836 31.2238 65.4843 30.5331 65.4843H25.3359C25.5949 66.6757 26.4237 67.2973 27.5978 67.2973C28.323 67.2973 28.9274 67.0728 29.4626 66.6757C29.6526 66.5375 29.8252 66.4685 30.1015 66.4685C30.6885 66.4685 31.1202 66.9174 31.1202 67.5045C31.1202 67.8498 30.9648 68.1088 30.7749 68.2815Z" fill="black"/>
<path d="M17.2021 67.9879V62.1864H17.0985C16.4942 62.1864 16.0107 61.7202 16.0107 61.1159C16.0107 60.5116 16.4942 60.0281 17.0985 60.0281H17.2021V59.441C17.2021 58.4223 17.4611 57.6798 17.9446 57.1964C18.428 56.7129 19.136 56.4712 20.0684 56.4712C20.4828 56.4712 20.8454 56.4885 21.1389 56.5403C21.5878 56.6093 22.0367 57.0065 22.0367 57.5935C22.0367 58.1806 21.5533 58.6813 20.9662 58.6813H20.7418C20.1374 58.6813 19.7921 58.9921 19.7921 59.6828V60.0454H20.9317C21.536 60.0454 22.0195 60.5116 22.0195 61.1159C22.0195 61.7202 21.536 62.1864 20.9317 62.1864H19.8266V67.9879C19.8266 68.7131 19.2396 69.3002 18.5144 69.3002C17.7892 69.3002 17.2021 68.7131 17.2021 67.9879Z" fill="black"/>
<path d="M11.5086 57.7661V57.7316C11.5086 56.9718 12.1475 56.5056 12.9763 56.5056C13.8051 56.5056 14.4439 56.9718 14.4439 57.7316V57.7661C14.4439 58.5258 13.8051 59.0093 12.9763 59.0093C12.1475 59.0093 11.5086 58.5258 11.5086 57.7661ZM11.664 67.9879V61.1503C11.664 60.4251 12.2511 59.8381 12.9763 59.8381C13.7015 59.8381 14.2885 60.4251 14.2885 61.1503V67.9879C14.2885 68.7131 13.7015 69.3001 12.9763 69.3001C12.2511 69.3001 11.664 68.7131 11.664 67.9879Z" fill="black"/>
<path d="M1.12896 67.867V58.3359C1.12896 57.5935 1.71602 57.0064 2.45847 57.0064C3.20093 57.0064 3.788 57.5935 3.788 58.3359V66.7792H8.70895C9.38234 66.7792 9.9176 67.3145 9.9176 67.9879C9.9176 68.6613 9.38234 69.1966 8.70895 69.1966H2.45847C1.71602 69.1966 1.12896 68.6095 1.12896 67.867Z" fill="black"/>
<g clip-path="url(#clip1_4_2432)">
<mask id="mask0_4_2432" style="mask-type:luminance" maskUnits="userSpaceOnUse" x="0" y="0" width="42" height="46">
<path d="M28.541 6.52655C29.3392 12.9376 25.8044 19.8877 17.9461 27.3961L17.7656 27.5501L17.5945 27.7042L17.4235 27.8582L17.262 28.0122L17.1099 28.1566L16.9674 28.301L16.8249 28.4454L16.6918 28.5898L16.5683 28.7342L16.4543 28.8785L16.3403 29.0229L16.2357 29.1577C16.1977 29.2058 16.1692 29.254 16.1407 29.2925L16.0457 29.4272C16.0172 29.4754 15.9887 29.5139 15.9602 29.562L15.8842 29.6968C15.8557 29.7449 15.8366 29.7834 15.8081 29.8315C15.7891 29.8797 15.7606 29.9182 15.7416 29.9663C15.7226 30.0144 15.7036 30.0529 15.6846 30.1011C15.6656 30.1492 15.6466 30.1877 15.6371 30.2358C15.6181 30.284 15.6086 30.3225 15.5896 30.3706C15.5801 30.4187 15.5611 30.4572 15.5516 30.5054C15.5421 30.5535 15.5326 30.592 15.5231 30.6401C15.5231 30.6883 15.5041 30.7268 15.4946 30.7749C15.4946 30.823 15.4851 30.8615 15.4756 30.9C15.4756 30.9482 15.4756 30.9867 15.4661 31.0348C15.4661 31.0829 15.4661 31.1215 15.4661 31.16C15.4661 31.1985 15.4661 31.2466 15.4661 31.2851C15.4661 31.3236 15.4661 31.3717 15.4661 31.4102C15.4661 31.4584 15.4661 31.4969 15.4851 31.545C15.4851 31.5835 15.4946 31.6316 15.5041 31.6798C15.5041 31.7279 15.5231 31.7664 15.5326 31.8049L15.5706 31.9397C15.5801 31.9782 15.5991 32.0263 15.6086 32.0744C15.6276 32.1226 15.6371 32.1611 15.6561 32.2092C15.6941 32.2958 15.7321 32.3825 15.7701 32.4691C15.7891 32.5172 15.8176 32.5558 15.8366 32.6039C16.4638 33.759 17.8511 34.9912 19.9796 36.5025C24.5216 39.7176 30.698 42.9328 33.8717 44.7906C34.0142 44.8773 34.1567 44.9543 34.2898 45.0217L34.0902 44.9158H34.0997L34.2993 45.0313C35.4205 45.5992 36.3327 45.7147 37.0739 45.5222C37.8436 45.3393 38.4422 44.8291 38.9553 44.1457L38.9743 44.1264L39.0218 44.059C39.6965 43.1446 40.1906 41.9605 40.6847 40.892V40.8728L40.7512 40.7476C42.0245 38.0138 42.0435 36.0501 41.3404 34.5869C40.2761 32.3921 37.5775 31.3043 34.9169 30.4091C33.0925 29.7738 31.2966 29.2251 30.0613 28.5128C29.1491 27.9641 28.5505 27.2999 28.484 26.4046C28.408 25.3842 29.0161 24.0655 30.622 22.2654C33.083 19.5219 37.1594 14.7184 39.3354 10.223C41.2073 6.34365 41.6729 2.70496 38.4517 0.818224C35.8101 -0.721966 34.3183 0.182895 32.8835 1.77122C32.0568 2.6857 31.2396 3.83122 30.2324 4.86122C29.6717 5.43879 29.0921 5.99711 28.5125 6.5458M6.79062 33.3451C10.1259 33.3451 12.834 36.0886 12.834 39.4674C12.834 42.8461 10.1259 45.5896 6.79062 45.5896C3.45538 45.5896 0.74727 42.8365 0.74727 39.4577C0.74727 36.0789 3.45538 33.3355 6.79062 33.3355V33.3451Z" fill="white"/>
</mask>
<g mask="url(#mask0_4_2432)">
<path opacity="0.8" d="M42.091 -0.750839H0.74727V45.6762H42.091V-0.750839Z" fill="url(#paint0_linear_4_2432)"/>
</g>
<mask id="mask1_4_2432" style="mask-type:luminance" maskUnits="userSpaceOnUse" x="0" y="0" width="41" height="28">
<path d="M39.3734 10.2038C37.1974 14.6896 33.121 19.5026 30.66 22.2461C22.5642 27.6368 12.5869 29.3021 3.21782 26.8185C1.7545 25.9618 0.918309 24.489 0.918309 22.7852C0.918309 19.6663 2.2296 18.9154 4.12053 18.54C5.08974 18.3475 6.2205 18.2416 7.40826 17.9721C16.6348 15.8351 24.056 11.1856 30.2704 4.8516C31.2776 3.82159 32.0948 2.67608 32.9215 1.76159C34.3658 0.173271 35.8481 -0.73159 38.4897 0.808599C41.7109 2.69533 41.2453 6.33403 39.3734 10.2134M6.79062 0C10.1259 0 12.834 2.74346 12.834 6.12225C12.834 9.50104 10.1259 12.2445 6.79062 12.2445C3.45538 12.2445 0.74727 9.50104 0.74727 6.12225C0.74727 2.74346 3.45538 0 6.79062 0Z" fill="white"/>
</mask>
<g mask="url(#mask1_4_2432)">
<path opacity="0.8" d="M41.7109 -0.750839H0.74727V29.2925H41.7109V-0.750839Z" fill="url(#paint1_linear_4_2432)"/>
</g>
</g>
<defs>
<linearGradient id="paint0_linear_4_2432" x1="3.76895" y1="29.2347" x2="35.9418" y2="17.2183" gradientUnits="userSpaceOnUse">
<stop stop-color="#1992F6"/>
<stop offset="1" stop-color="#F041D8"/>
</linearGradient>
<linearGradient id="paint1_linear_4_2432" x1="13.5276" y1="18.9732" x2="40.1821" y2="3.13563" gradientUnits="userSpaceOnUse">
<stop stop-color="#1992F6"/>
<stop offset="1" stop-color="#F041D8"/>
</linearGradient>
<clipPath id="clip0_4_2432">
<rect width="194.865" height="44.3995" fill="white" transform="translate(0 0.747177)"/>
</clipPath>
<clipPath id="clip1_4_2432">
<rect width="41.0967" height="45.58" fill="white" transform="translate(0.74727)"/>
</clipPath>
</defs>
</svg>
